<svg xmlns="http://www.w3.org/2000/svg" xmlns:xlink="http://www.w3.org/1999/xlink" width="508" height="394" viewBox="0 0 508 394">
  <defs>
    <linearGradient id="jiangli--a" x1="50%" x2="50%" y1="0%" y2="100%">
      <stop offset="0%" stop-color="#FFF"/>
      <stop offset="100%" stop-color="#FFF"/>
    </linearGradient>
    <linearGradient id="jiangli--b" x1="50%" x2="50%" y1="0%" y2="100%">
      <stop offset="0%" stop-color="#FFF" stop-opacity=".775"/>
      <stop offset="100%" stop-color="#FFF"/>
    </linearGradient>
    <circle id="jiangli--c" cx="141.136" cy="141.136" r="141.136"/>
    <linearGradient id="jiangli--d" x1="93.106%" x2="4.539%" y1="71.193%" y2="26.455%">
      <stop offset="0%" stop-color="#B8B8FF"/>
      <stop offset="100%" stop-color="#EFF3FB" stop-opacity="0"/>
    </linearGradient>
    <polygon id="jiangli--e" points="125.415 .786 125.415 73.514 0 73.514 0 .786 125.415 .786"/>
  </defs>
  <g fill="none" fill-rule="evenodd" transform="translate(-39)">
    <path fill="url(#jiangli--a)" d="M448.808094,329.464698 C448.766983,329.416662 448.72868,329.36585 448.694037,329.313741 C448.48928,329.054494 446.92976,327.043576 446.668905,326.654705 C441.575219,328.535999 436.534827,325.291906 433.261517,321.785061 C429.26174,317.696663 426.557824,313.023206 424.064274,307.568505 C422.71512,304.912972 420.998526,300.239516 421.102307,296.925355 C421.570724,297.054979 422.036336,297.121542 422.558046,297.251166 C426.038918,298.162034 431.75529,300.561823 437.575442,306.664643 C442.615835,311.986217 445.213165,317.437416 447.291591,325.806897 C447.471817,326.006275 447.649943,326.205362 447.826373,326.403712 C444.92573,316.884957 443.216103,306.722236 442.425433,296.107474 C442.377101,296.015764 442.336319,295.919268 442.304491,295.825306 C442.147417,295.499495 441.056314,293.292391 440.848752,292.836956 C435.600798,292.96658 431.701997,288.10044 429.365521,283.556607 C426.661605,278.235032 425.051596,273.043081 423.856712,266.943765 C423.180733,263.955415 422.661827,258.763464 423.076952,255.323183 C423.545369,255.58243 423.960493,255.845181 424.375617,256.167488 C427.545146,258.178406 432.846393,262.462992 436.952756,270.380542 C440.587897,277.261103 441.471438,283.556607 441.575219,292.251899 C441.794932,292.652194 442.019641,293.017986 442.242401,293.371493 C441.897779,287.572435 441.816695,281.645203 441.955728,275.620431 C442.052649,271.645257 442.302868,267.712377 442.699799,263.827476 C442.562377,263.631788 442.487748,263.330072 442.458761,263.04805 C442.35498,262.655675 441.679,260.255887 441.575219,259.737393 C436.641413,257.985722 434.145058,253.053018 432.950174,248.120314 C431.547728,242.343305 431.132604,236.240486 431.236385,230.141169 C431.286873,227.156323 431.805778,222.157056 432.950174,219.109149 C433.261517,219.431457 433.626153,219.886891 433.990789,220.275762 C439.08167,225.72696 442.562542,232.800205 443.549864,241.176693 C444.279136,247.146386 443.760231,252.793771 442.562542,259.089274 C442.710091,259.666245 442.874633,260.254114 443.035539,260.835706 C444.20715,251.255973 446.272043,241.9808 449.129514,233.097081 C449.094097,232.91258 449.091926,232.714402 449.111966,232.544461 C449.162454,232.152087 449.058673,229.622675 449.058673,229.104181 C444.69426,226.115831 443.13474,220.405385 442.927178,215.213434 C442.666323,209.243742 443.446083,203.207485 444.643772,197.363913 C445.266458,194.50869 446.722198,189.772173 448.435987,187.239258 C448.694037,187.761256 448.954892,188.213187 449.215747,188.668621 C451.190392,192.171962 453.683941,197.756287 454.152358,206.84045 C454.567483,214.761503 453.165036,221.768185 450.045995,228.389499 C450.045995,228.942803 450.061623,229.584734 450.08075,230.238934 C453.385045,220.634965 457.620779,211.508578 462.656974,202.972791 C462.666619,202.819355 462.694269,202.655906 462.726916,202.492804 C462.726916,202.037369 462.881185,199.830265 462.984966,199.182147 C459.34702,196.586171 458.516772,189.446363 459.296532,184.513659 C459.607875,181.139942 460.491416,177.958908 461.6863,174.844438 C463.9218,169.133993 466.622912,164.068162 470.729275,160.046327 C470.936837,160.564821 471.091106,161.083316 471.194887,161.60181 C472.182209,165.886396 472.8077,172.118839 471.767085,180.036389 C470.729275,187.628129 468.286213,193.342078 463.711433,199.31177 C463.628135,200.083562 463.589814,200.778748 463.555847,201.469577 C467.783199,194.493541 472.54884,187.923059 477.779485,181.821368 C477.883176,181.688036 477.883176,181.688036 477.93362,181.754702 C478.037311,181.821368 478.194248,181.951192 478.297939,182.014349 C478.315335,182.024944 478.331232,182.031985 478.345405,182.036978 C478.285485,181.945839 478.285793,181.833989 478.420291,181.721496 C479.146758,180.880694 479.977006,180.166013 480.706278,179.451331 C479.716151,175.362933 481.278476,170.885663 484.551786,167.056512 C489.384616,161.346066 495.516112,159.461269 501.801877,156.150612 C502.062732,155.957928 502.374075,155.761741 502.63493,155.632117 C502.63493,155.891364 502.63493,156.087552 502.581637,156.346799 C501.751389,161.279503 499.515889,166.793761 496.553922,170.689476 C495.30855,172.441146 493.799518,173.93357 492.29329,175.233309 C488.862906,178.088532 485.174472,179.710579 481.17189,180.036389 C480.549204,180.751071 479.977006,181.203002 479.303832,181.984247 C478.939196,182.243494 478.939196,182.306554 478.731634,182.243494 C478.639459,182.243494 478.505798,182.192368 478.413187,182.112513 C478.410193,182.121548 478.406354,182.132014 478.40163,182.144172 C472.82083,188.443609 467.818048,195.529786 463.458928,203.196602 C463.457112,203.221187 463.455265,203.245834 463.453383,203.270545 C463.350187,203.611191 463.248201,203.728036 463.145836,203.750232 C454.648399,218.856997 448.638054,236.182762 445.611581,254.167842 C445.617808,254.163707 445.62431,254.159942 445.631094,254.156571 C446.40805,253.378829 447.448665,252.793771 448.228425,252.012526 C447.656227,247.794504 448.332206,243.513421 451.658809,239.162272 C456.85347,232.933332 464.17985,230.337357 470.729275,226.767452 C471.040618,226.571265 471.298668,226.378581 471.663304,226.245454 L471.509035,227.026699 C470.521713,232.022463 468.23292,237.995659 465.220465,242.147118 C463.296309,244.939281 460.595197,247.66488 457.790304,249.612738 C454.775045,251.560595 451.866371,252.401397 448.643549,252.53102 L448.643549,252.534524 C448.278913,252.986455 446.200487,255.389747 445.681582,255.130499 C445.616446,255.07429 445.55081,254.915029 445.516343,254.740003 C443.920503,264.433488 443.191655,274.313411 443.407398,284.136135 C443.439386,285.977664 443.502779,287.80917 443.596916,289.629704 C444.253931,288.598346 445.035377,287.7221 445.631094,286.671077 C444.225843,282.908489 444.433405,277.324163 446.772686,271.743341 C450.618194,263.566544 456.645908,259.218898 462.415573,253.245702 C462.673623,252.923395 462.934478,252.660644 463.192528,252.338337 C463.245821,252.597584 463.296309,252.856831 463.296309,253.182642 C463.506676,258.504217 462.623135,265.318214 460.595197,270.576729 C459.296532,274.146633 457.218106,277.716538 454.825533,280.764444 C452.281495,283.945477 449.52709,285.826771 446.25378,287.126511 C445.992925,287.711569 444.433405,290.892602 443.864012,290.759475 C443.797124,290.759475 443.719168,290.69217 443.64948,290.590035 C444.32386,302.264506 446.26307,313.478939 449.291143,323.981394 C449.700008,322.768573 450.157051,321.370261 450.514413,320.096451 C448.332206,318.215157 447.241103,312.504712 448.48928,306.401892 C450.668682,297.317729 456.387858,290.111357 460.856052,282.389994 C461.063614,281.99762 461.271176,281.675313 461.478738,281.286442 C461.582519,281.545689 461.635812,281.804936 461.6863,282.064183 C462.881185,287.126511 463.296309,293.944012 462.308987,299.654458 C461.6863,303.480106 460.334342,307.698128 458.56726,311.401159 C456.749689,315.293371 454.463702,318.022473 451.501735,320.422262 C451.344661,321.13344 450.357339,324.769908 449.787945,324.966095 C449.717337,324.966095 449.623663,324.907684 449.534284,324.815236 C452.925262,336.315096 457.625587,346.947059 463.401726,356.376761 C463.529228,355.193944 463.610457,353.890866 463.610457,352.744084 C461.217883,351.447848 459.08897,346.515144 458.30921,340.412325 C458.101647,331.002351 461.532031,322.173932 464.129362,313.086266 C464.17985,312.697395 464.283631,312.241961 464.440705,311.85309 C464.594974,312.049277 464.698755,312.241961 464.805341,312.438148 C467.245598,316.852358 469.273535,323.210921 469.79244,328.991434 C470.157077,332.817082 469.949514,337.297855 469.169754,341.515877 C468.336701,345.796959 466.883767,349.303804 464.698755,352.677521 C464.698755,353.132955 464.594974,355.34006 464.336924,356.702859 C464.264858,356.972893 464.242835,357.337528 464.07926,357.46948 C469.574211,366.224784 476.007364,373.911289 483.186099,380.253209 C483.074076,379.137589 482.995754,377.982593 482.731411,376.822546 C480.13408,376.170924 476.442841,372.408336 474.52149,366.957138 C472.131721,358.065659 473.480874,348.589122 473.795022,338.982961 C473.845511,338.594091 473.795022,338.14216 473.795022,337.686725 C473.949292,337.882912 474.159659,338.012536 474.364416,338.14216 C477.744311,341.449313 481.225183,346.707828 483.096047,352.029403 C484.341419,355.536247 485.174472,359.883893 485.435327,364.101915 C485.642889,368.579185 485.070691,372.408336 483.772026,376.367111 C483.875807,376.885606 484.083369,378.963087 484.18715,380.39245 C484.18715,380.622443 484.223453,380.897779 484.156208,381.098142 C491.78555,387.648752 500.232053,392.69471 509.270809,395.913998 C508.97952,395.026907 508.842377,394.114056 508.348496,393.242704 C505.90824,394.087009 501.33346,391.168726 498.217224,387.080327 C493.799518,379.940519 492.812195,371.178663 490.683282,362.416808 C490.629989,362.024434 490.472915,361.635563 490.369134,361.246692 C490.579501,361.246692 490.787063,361.376316 490.994625,361.439376 C494.890621,363.127986 499.412108,366.242456 502.427368,370.330855 C504.505793,372.993394 506.530926,376.692922 507.779103,380.525577 C509.128257,384.480849 509.442405,388.376563 509.181549,392.528022 C509.442405,392.920397 509.857529,394.605503 510.272653,395.905243 C510.314646,396.008725 510.373631,396.155801 510.40148,396.307014 C516.75089,398.497787 523.354556,399.972968 530.16574,400.426201 C530.684194,401.078826 531.04571,401.920923 531.098957,402.963018 L531.098957,402.959509 C524.455937,402.612829 518.078595,401.436885 511.99779,399.508274 C511.101564,399.824069 509.619915,400.20091 508.766425,400.515639 C506.634707,406.678016 501.024921,409.340555 496.657703,410.377544 C491.409749,411.740343 486.576919,411.614223 481.536526,410.573731 C479.042977,410.118297 474.729052,408.885121 472.701114,406.614956 C473.06575,406.159521 473.480874,405.833711 473.898803,405.378276 C476.756989,402.526557 482.108725,397.91616 489.799741,396.034866 C496.450141,394.409316 501.751389,395.709056 508.455082,399.149336 C508.937479,399.048917 509.389154,398.919061 509.824941,398.782777 C501.105936,395.724434 493.01897,391.100928 485.658289,385.146217 C484.703798,385.159891 483.481943,385.056428 482.680923,384.999343 C479.35432,390.191294 473.480874,390.972539 469.116461,390.454045 C463.868507,389.99861 459.296532,388.24694 454.775045,385.647461 C452.489057,384.417788 448.694037,381.755249 447.241103,378.963087 C447.656227,378.70384 448.124644,378.378029 448.590256,378.188848 C451.970152,376.367111 458.30921,373.708076 466.050714,374.485817 C472.701114,375.133935 477.536749,378.122285 482.784704,383.636543 C483.170718,383.678419 483.5459,383.693238 483.913751,383.698483 C476.807567,377.650884 470.407439,370.340323 464.802324,361.987621 C464.695955,361.930527 464.591136,361.852654 464.493998,361.765187 C464.233143,361.569 462.205206,360.532011 461.843374,360.272764 C457.425668,363.905728 450.564901,362.546432 446.668905,360.339327 C441.471438,357.547164 431.859071,348.329875 430.509917,340.804699 C431.028823,340.734632 431.49724,340.675075 432.016145,340.605008 C435.600798,340.282701 441.109607,339.827267 448.071351,343.722982 C454.152358,347.033639 458.258721,351.899779 462.308987,359.298835 C462.658273,359.495212 463.019252,359.662381 463.381953,359.822202 C458.017897,351.455797 453.426093,342.104848 449.690498,331.977762 C449.386367,331.14554 449.092298,330.307806 448.808094,329.464698 Z M457.683718,221.705125 C457.271399,221.964372 454.932119,223.523359 454.516995,223.130984 C454.359921,223.001361 454.359921,222.419806 454.620776,222.290183 C455.504317,221.834748 456.542127,221.508938 457.37518,220.990443 C457.476156,217.161292 459.243239,213.3952 463.088747,210.606541 C469.015485,206.581203 476.030522,206.518142 482.574337,205.284966 L483.511171,205.088779 C483.40739,205.284966 483.354097,205.47765 483.250316,205.736897 C481.328964,209.958423 478.055655,214.565316 474.571978,217.353975 C472.235502,219.301833 469.324023,220.86082 466.41535,221.768185 C463.402895,222.742114 460.64849,222.61249 457.683718,221.705125 Z M469.949514,197.819347 C469.53439,198.012031 467.038036,198.989463 466.726693,198.467465 C466.622912,198.337842 466.726693,197.819347 466.934255,197.756287 C467.871089,197.5601 468.858411,197.363913 469.741952,197.104666 C470.987325,191.586904 475.405031,188.798245 479.458101,187.498505 C484.394712,186.006082 489.95401,187.109634 495.931236,187.435445 C496.242579,187.498505 496.553922,187.498505 496.865265,187.435445 C496.814777,187.628129 496.657703,187.824316 496.553922,188.017 C494.321228,191.783091 490.683282,195.352995 487.045336,197.363913 C484.602274,198.726712 481.587015,199.637581 478.627853,199.767205 C475.455519,200.026452 472.754407,199.507957 469.949514,197.819347 Z" opacity=".75" transform="scale(-1 1) rotate(-29 0 2124.44)"/>
    <path fill="url(#jiangli--b)" d="M82.8080937,329.464698 C82.7669835,329.416662 82.7286799,329.36585 82.6940371,329.313741 C82.48928,329.054494 80.9297596,327.043576 80.6689046,326.654705 C75.5752193,328.535999 70.534827,325.291906 67.2615172,321.785061 C63.2617401,317.696663 60.5578235,313.023206 58.0642738,307.568505 C56.7151204,304.912972 54.9985261,300.239516 55.1023071,296.925355 C55.5707242,297.054979 56.0363364,297.121542 56.5580464,297.251166 C60.0389183,298.162034 65.7552898,300.561823 71.5754423,306.664643 C76.6158345,311.986217 79.2131652,317.437416 81.2915908,325.806897 C81.4718172,326.006275 81.649943,326.205362 81.8263727,326.403712 C78.9257301,316.884957 77.2161034,306.722236 76.4254328,296.107474 C76.3771008,296.015764 76.336319,295.919268 76.3044914,295.825306 C76.1474175,295.499495 75.0563142,293.292391 74.8487521,292.836956 C69.6007978,292.96658 65.7019968,288.10044 63.3655212,283.556607 C60.6616045,278.235032 59.0515961,273.043081 57.8567118,266.943765 C57.1807326,263.955415 56.6618275,258.763464 57.0769516,255.323183 C57.5453687,255.58243 57.9604928,255.845181 58.3756169,256.167488 C61.5451458,258.178406 66.8463931,262.462992 70.9527561,270.380542 C74.5878971,277.261103 75.4714383,283.556607 75.5752193,292.251899 C75.794932,292.652194 76.0196406,293.017986 76.2424011,293.371493 C75.8977788,287.572435 75.8166951,281.645203 75.9557278,275.620431 C76.0526485,271.645257 76.3028679,267.712377 76.699799,263.827476 C76.5623767,263.631788 76.487748,263.330072 76.4587605,263.04805 C76.3549795,262.655675 75.6790004,260.255887 75.5752193,259.737393 C70.641413,257.985722 68.1450584,253.053018 66.9501741,248.120314 C65.5477277,242.343305 65.1326036,236.240486 65.2363846,230.141169 C65.2868727,227.156323 65.8057779,222.157056 66.9501741,219.109149 C67.2615172,219.431457 67.6261533,219.886891 67.9907893,220.275762 C73.0816697,225.72696 76.5625416,232.800205 77.5498638,241.176693 C78.2791359,247.146386 77.7602308,252.793771 76.5625416,259.089274 C76.7100906,259.666245 76.8746327,260.254114 77.0355392,260.835706 C78.2071504,251.255973 80.2720433,241.9808 83.129514,233.097081 C83.0940967,232.91258 83.0919262,232.714402 83.1119662,232.544461 C83.1624542,232.152087 83.0586732,229.622675 83.0586732,229.104181 C78.6942601,226.115831 77.1347397,220.405385 76.9271776,215.213434 C76.6663226,209.243742 77.4460828,203.207485 78.643772,197.363913 C79.2664582,194.50869 80.7221975,189.772173 82.435987,187.239258 C82.6940371,187.761256 82.9548922,188.213187 83.2157472,188.668621 C85.1903917,192.171962 87.6839414,197.756287 88.1523585,206.84045 C88.5674826,214.761503 87.1650362,221.768185 84.0459955,228.389499 C84.0459955,228.942803 84.061623,229.584734 84.0807497,230.238934 C87.3850448,220.634965 91.6207786,211.508578 96.6569739,202.972791 C96.666619,202.819355 96.6942693,202.655906 96.7269156,202.492804 C96.7269156,202.037369 96.8811847,199.830265 96.9849658,199.182147 C93.3470198,196.586171 92.5167716,189.446363 93.2965318,184.513659 C93.6078749,181.139942 94.4914161,177.958908 95.6863004,174.844438 C97.9217999,169.133993 100.622912,164.068162 104.729275,160.046327 C104.936837,160.564821 105.091106,161.083316 105.194887,161.60181 C106.182209,165.886396 106.8077,172.118839 105.767085,180.036389 C104.729275,187.628129 102.286213,193.342078 97.711433,199.31177 C97.6281347,200.083562 97.5898136,200.778748 97.5558466,201.469577 C101.783199,194.493541 106.54884,187.923059 111.779485,181.821368 C111.883176,181.688036 111.883176,181.688036 111.93362,181.754702 C112.037311,181.821368 112.194248,181.951192 112.297939,182.014349 C112.315335,182.024944 112.331232,182.031985 112.345405,182.036978 C112.285485,181.945839 112.285793,181.833989 112.420291,181.721496 C113.146758,180.880694 113.977006,180.166013 114.706278,179.451331 C113.716151,175.362933 115.278476,170.885663 118.551786,167.056512 C123.384616,161.346066 129.516112,159.461269 135.801877,156.150612 C136.062732,155.957928 136.374075,155.761741 136.63493,155.632117 C136.63493,155.891364 136.63493,156.087552 136.581637,156.346799 C135.751389,161.279503 133.515889,166.793761 130.553922,170.689476 C129.30855,172.441146 127.799518,173.93357 126.29329,175.233309 C122.862906,178.088532 119.174472,179.710579 115.17189,180.036389 C114.549204,180.751071 113.977006,181.203002 113.303832,181.984247 C112.939196,182.243494 112.939196,182.306554 112.731634,182.243494 C112.639459,182.243494 112.505798,182.192368 112.413187,182.112513 C112.410193,182.121548 112.406354,182.132014 112.40163,182.144172 C106.82083,188.443609 101.818048,195.529786 97.4589275,203.196602 C97.4571124,203.221187 97.4552647,203.245834 97.4533828,203.270545 C97.3501868,203.611191 97.2482015,203.728036 97.145836,203.750232 C88.6483986,218.856997 82.6380543,236.182762 79.6115809,254.167842 C79.617808,254.163707 79.6243098,254.159942 79.6310943,254.156571 C80.4080496,253.378829 81.4486648,252.793771 82.228425,252.012526 C81.6562268,247.794504 82.332206,243.513421 85.6588088,239.162272 C90.8534702,232.933332 98.1798501,230.337357 104.729275,226.767452 C105.040618,226.571265 105.298668,226.378581 105.663304,226.245454 L105.509035,227.026699 C104.521713,232.022463 102.23292,237.995659 99.2204653,242.147118 C97.2963088,244.939281 94.5951971,247.66488 91.7903044,249.612738 C88.7750446,251.560595 85.8663709,252.401397 82.6435491,252.53102 L82.6435491,252.534524 C82.278913,252.986455 80.2004875,255.389747 79.6815823,255.130499 C79.6164462,255.07429 79.55081,254.915029 79.516343,254.740003 C77.9205035,264.433488 77.1916551,274.313411 77.4073985,284.136135 C77.4393858,285.977664 77.5027793,287.80917 77.5969159,289.629704 C78.2539309,288.598346 79.0353767,287.7221 79.6310943,286.671077 C78.225843,282.908489 78.433405,277.324163 80.7726856,271.743341 C84.6181936,263.566544 90.6459081,259.218898 96.4155725,253.245702 C96.6736227,252.923395 96.9344777,252.660644 97.1925278,252.338337 C97.2458208,252.597584 97.2963088,252.856831 97.2963088,253.182642 C97.5066758,258.504217 96.6231346,265.318214 94.5951971,270.576729 C93.2965318,274.146633 91.2181062,277.716538 88.8255327,280.764444 C86.281495,283.945477 83.5270903,285.826771 80.2537804,287.126511 C79.9929254,287.711569 78.433405,290.892602 77.8640118,290.759475 C77.7971244,290.759475 77.7191683,290.69217 77.6494799,290.590035 C78.3238597,302.264506 80.2630695,313.478939 83.2911431,323.981394 C83.7000081,322.768573 84.157051,321.370261 84.5144125,320.096451 C82.332206,318.215157 81.2411027,312.504712 82.48928,306.401892 C84.6686817,297.317729 90.387858,290.111357 94.8560521,282.389994 C95.0636142,281.99762 95.2711763,281.675313 95.4787383,281.286442 C95.5825194,281.545689 95.6358123,281.804936 95.6863004,282.064183 C96.8811847,287.126511 97.2963088,293.944012 96.3089866,299.654458 C95.6863004,303.480106 94.3343421,307.698128 92.5672597,311.401159 C90.7496892,315.293371 88.4637016,318.022473 85.5017348,320.422262 C85.3446608,321.13344 84.3573386,324.769908 83.7879453,324.966095 C83.7173375,324.966095 83.6236627,324.907684 83.5342839,324.815236 C86.925262,336.315096 91.6255872,346.947059 97.4017264,356.376761 C97.5292278,355.193944 97.6104568,353.890866 97.6104568,352.744084 C95.2178833,351.447848 93.0889697,346.515144 92.3092095,340.412325 C92.1016475,331.002351 95.5320313,322.173932 98.129362,313.086266 C98.1798501,312.697395 98.2836311,312.241961 98.4407051,311.85309 C98.5949742,312.049277 98.6987552,312.241961 98.8053412,312.438148 C101.245598,316.852358 103.273535,323.210921 103.79244,328.991434 C104.157077,332.817082 103.949514,337.297855 103.169754,341.515877 C102.336701,345.796959 100.883767,349.303804 98.6987552,352.677521 C98.6987552,353.132955 98.5949742,355.34006 98.3369241,356.702859 C98.264858,356.972893 98.242835,357.337528 98.0792599,357.46948 C103.574211,366.224784 110.007364,373.911289 117.186099,380.253209 C117.074076,379.137589 116.995754,377.982593 116.731411,376.822546 C114.13408,376.170924 110.442841,372.408336 108.52149,366.957138 C106.131721,358.065659 107.480874,348.589122 107.795022,338.982961 C107.845511,338.594091 107.795022,338.14216 107.795022,337.686725 C107.949292,337.882912 108.159659,338.012536 108.364416,338.14216 C111.744311,341.449313 115.225183,346.707828 117.096047,352.029403 C118.341419,355.536247 119.174472,359.883893 119.435327,364.101915 C119.642889,368.579185 119.070691,372.408336 117.772026,376.367111 C117.875807,376.885606 118.083369,378.963087 118.18715,380.39245 C118.18715,380.622443 118.223453,380.897779 118.156208,381.098142 C125.78555,387.648752 134.232053,392.69471 143.270809,395.913998 C142.97952,395.026907 142.842377,394.114056 142.348496,393.242704 C139.90824,394.087009 135.33346,391.168726 132.217224,387.080327 C127.799518,379.940519 126.812195,371.178663 124.683282,362.416808 C124.629989,362.024434 124.472915,361.635563 124.369134,361.246692 C124.579501,361.246692 124.787063,361.376316 124.994625,361.439376 C128.890621,363.127986 133.412108,366.242456 136.427368,370.330855 C138.505793,372.993394 140.530926,376.692922 141.779103,380.525577 C143.128257,384.480849 143.442405,388.376563 143.181549,392.528022 C143.442405,392.920397 143.857529,394.605503 144.272653,395.905243 C144.314646,396.008725 144.373631,396.155801 144.40148,396.307014 C150.75089,398.497787 157.354556,399.972968 164.16574,400.426201 C164.684194,401.078826 165.04571,401.920923 165.098957,402.963018 L165.098957,402.959509 C158.455937,402.612829 152.078595,401.436885 145.99779,399.508274 C145.101564,399.824069 143.619915,400.20091 142.766425,400.515639 C140.634707,406.678016 135.024921,409.340555 130.657703,410.377544 C125.409749,411.740343 120.576919,411.614223 115.536526,410.573731 C113.042977,410.118297 108.729052,408.885121 106.701114,406.614956 C107.06575,406.159521 107.480874,405.833711 107.898803,405.378276 C110.756989,402.526557 116.108725,397.91616 123.799741,396.034866 C130.450141,394.409316 135.751389,395.709056 142.455082,399.149336 C142.937479,399.048917 143.389154,398.919061 143.824941,398.782777 C135.105936,395.724434 127.01897,391.100928 119.658289,385.146217 C118.703798,385.159891 117.481943,385.056428 116.680923,384.999343 C113.35432,390.191294 107.480874,390.972539 103.116461,390.454045 C97.868507,389.99861 93.2965318,388.24694 88.7750446,385.647461 C86.4890571,384.417788 82.6940371,381.755249 81.2411027,378.963087 C81.6562268,378.70384 82.1246439,378.378029 82.5902561,378.188848 C85.9701519,376.367111 92.3092095,373.708076 100.050714,374.485817 C106.701114,375.133935 111.536749,378.122285 116.784704,383.636543 C117.170718,383.678419 117.5459,383.693238 117.913751,383.698483 C110.807567,377.650884 104.407439,370.340323 98.8023238,361.987621 C98.6959551,361.930527 98.5911357,361.852654 98.4939981,361.765187 C98.233143,361.569 96.2052056,360.532011 95.8433744,360.272764 C91.4256683,363.905728 84.5649006,362.546432 80.6689046,360.339327 C75.4714383,357.547164 65.8590708,348.329875 64.5099174,340.804699 C65.0288226,340.734632 65.4972396,340.675075 66.0161448,340.605008 C69.6007978,340.282701 75.1096071,339.827267 82.071351,343.722982 C88.1523585,347.033639 92.2587215,351.899779 96.3089866,359.298835 C96.6582731,359.495212 97.019252,359.662381 97.3819527,359.822202 C92.0178969,351.455797 87.4260935,342.104848 83.6904982,331.977762 C83.3863665,331.14554 83.0922976,330.307806 82.8080937,329.464698 Z M91.6837184,221.705125 C91.2713992,221.964372 88.9321186,223.523359 88.5169945,223.130984 C88.3599205,223.001361 88.3599205,222.419806 88.6207755,222.290183 C89.5043168,221.834748 90.5421271,221.508938 91.3751802,220.990443 C91.4761564,217.161292 93.2432388,213.3952 97.0887468,210.606541 C103.015485,206.581203 110.030522,206.518142 116.574337,205.284966 L117.511171,205.088779 C117.40739,205.284966 117.354097,205.47765 117.250316,205.736897 C115.328964,209.958423 112.055655,214.565316 108.571978,217.353975 C106.235502,219.301833 103.324023,220.86082 100.41535,221.768185 C97.4028948,222.742114 94.6484901,222.61249 91.6837184,221.705125 Z M103.949514,197.819347 C103.53439,198.012031 101.038036,198.989463 100.726693,198.467465 C100.622912,198.337842 100.726693,197.819347 100.934255,197.756287 C101.871089,197.5601 102.858411,197.363913 103.741952,197.104666 C104.987325,191.586904 109.405031,188.798245 113.458101,187.498505 C118.394712,186.006082 123.95401,187.109634 129.931236,187.435445 C130.242579,187.498505 130.553922,187.498505 130.865265,187.435445 C130.814777,187.628129 130.657703,187.824316 130.553922,188.017 C128.321228,191.783091 124.683282,195.352995 121.045336,197.363913 C118.602274,198.726712 115.587015,199.637581 112.627853,199.767205 C109.455519,200.026452 106.754407,199.507957 103.949514,197.819347 Z" opacity=".75" transform="rotate(-29 110.098 283.505)"/>
    <g transform="matrix(-1 0 0 1 472 0)">
      <g>
        <g fill="#FFF">
          <polygon points="109.623 24.575 116.781 11.754 129.739 15.644 137.792 5.663 149.18 11.754 157.885 1.83 169.961 9.078 179.39 0 190.332 9.078 201.326 1.83 210.817 12.287 222.28 5.663 230.899 16.601 243.84 12.287 249.671 23.564 263.279 20.439 266.611 31.891 281.274 31.891 283.416 44.804 298.318 44.804 300.309 57.832 312.865 59.622 312.865 72.388 326.368 76.918 326.368 89.405 337.743 95.344 335.627 108.303 347.336 115.144 343.457 126.066 354.323 134.274 349.155 145.317 358.46 155.096 352.611 165.503 360 175.897 352.611 186.723 360 197.797 350.784 206.765 356.211 218.706 347.336 227.544 350.784 238.219 341.375 246.779 343.457 259.763 331.796 264.533 333.188 278.88 321.188 282.757 321.188 295.659 307.024 298.16 305.815 310.986 292.504 310.986 290.824 324.051 275.437 324.051 272.021 337.118 258.695 335.572 253.211 346.664 240.301 342.961 234.811 354.041 219.852 350.342 212.007 359.604 200.618 354.041 191.455 361.636 180.157 354.041 169.961 361.636 159.685 354.041 149.18 359.604 138.735 350.342 127.52 354.041 119.165 344.476 106.977 346.664 101.029 335.572 88.149 337.118 84.201 324.051 70.716 324.051 67.435 310.986 54.086 310.986 52.408 298.16 39.256 296.193 39.256 282.757 28.037 278.88 28.037 264.533 16.547 258.396 20.614 246.779 9.279 238.219 12.927 227.544 3.765 217.961 9.279 206.765 0 197.286 7.543 186.723 0 175.897 7.543 166.533 1.618 155.096 11.373 145.89 5.438 134.699 16.547 125.508 12.927 115.144 23.924 106.462 21.951 93.014 33.894 89.405 33.894 76.095 46.688 72.388 46.688 59.622 59.907 57.832 61.932 44.804 75.163 44.804 78.538 31.891 93.528 31.339 97.792 20.439" opacity=".403"/>
          <ellipse cx="179.182" cy="181.636" opacity=".65" rx="162.818" ry="163.636"/>
        </g>
        <circle cx="180" cy="182.045" r="147.886" fill="#FFF" opacity=".7"/>
        <g transform="translate(38.864 40.91)">
          <use fill="#FFF" xlink:href="#jiangli--c"/>
        </g>
      </g>
      <g transform="translate(17 72)">
        <polygon fill="url(#jiangli--d)" points="178.836 198.276 169.508 220.047 12.486 153.591 .641 107.161 21.606 81.584 185.802 142.213"/>
        <g transform="translate(107.919 .288)">
          <g transform="translate(0 142.032)">
            <path fill="#A9C2FF" d="M125.396719,4.5633707 C125.405877,4.40070181 125.40893,4.23904961 125.396719,4.07841408 L125.396719,0.166227272 L0.0091582445,0.166227272 L0.0091582445,4.65588864 C0.0152637408,6.11380856 0.89343763,7.50564425 2.69659421,8.54570847 L55.6851793,39.1111929 C59.6791915,41.4160077 66.6577738,41.1272705 71.2704763,38.4656007 L121.5991,9.43428728 C123.932417,8.0892189 125.209484,6.3944124 125.388578,4.74942325 L125.396719,4.74942325 L125.396719,4.5633707 Z" transform="matrix(-1 0 0 1 126.18 36.883)"/>
            <g transform="matrix(-1 0 0 1 126.18 0)">
              <mask id="jiangli--f" fill="#fff">
                <use xlink:href="#jiangli--e"/>
              </mask>
              <path fill="#CDF" d="M55.6846705,71.9495367 L2.697103,41.2223301 C-1.29792676,38.9063425 -0.797276063,34.8589856 3.816444,32.1842551 L54.1450678,2.99933676 C58.7577703,0.3246062 65.735335,0.0333191503 69.7303648,2.35032877 L122.717932,33.0775353 C126.712962,35.394545 126.212311,39.4408798 121.599609,42.1156104 L71.2699675,71.3005287 C66.657265,73.9752592 59.6797003,74.2665463 55.6846705,71.9495367" mask="url(#jiangli--f)"/>
            </g>
          </g>
          <polygon fill="#6464F9" points="63.166 97.598 63.166 178.891 10.677 208.84 10.677 128.067" transform="matrix(-1 0 0 1 73.842 0)"/>
          <polygon fill="#A9C2FF" points="115.503 127.578 115.449 208.86 63.09 178.385 63.097 97.062" transform="matrix(-1 0 0 1 178.594 0)"/>
          <polygon fill="#CDF" points="63.144 128.121 10.677 97.495 62.93 66.973 115.503 97.59" transform="matrix(-1 0 0 1 126.18 0)"/>
          <polygon fill="#6464F9" points="62.12 97.535 23.295 120.357 23.337 96.548 62.119 73.767" transform="matrix(-1 0 0 1 85.414 0)"/>
          <polygon fill="#A9C2FF" points="62.12 97.57 101.872 120.357 101.915 96.586 62.127 73.767" transform="matrix(-1 0 0 1 164.034 0)"/>
          <polygon fill="#CDF" points="62.645 96.091 23.295 73.242 62.485 50.472 101.915 73.314" transform="matrix(-1 0 0 1 125.21 0)"/>
          <polygon fill="#6464F9" points="62.12 72.24 38.825 85.414 38.851 68.476 62.118 55.325" transform="matrix(-1 0 0 1 100.944 0)"/>
          <polygon fill="#A9C2FF" points="62.12 71.288 85.39 84.444 85.414 67.53 62.124 54.355" transform="matrix(-1 0 0 1 147.534 0)"/>
          <polygon fill="#CDF" points="62.628 67.943 39.795 54.817 62.535 41.737 85.414 54.859" transform="matrix(-1 0 0 1 125.21 0)"/>
          <polygon fill="#A9C2FF" points="52.413 141.71 52.413 201.191 49.501 202.703 49.501 143.12" transform="matrix(-1 0 0 1 101.915 0)"/>
          <polygon fill="#A9C2FF" points="40.766 135.886 40.766 194.705 37.854 196.274 37.854 137.296" transform="matrix(-1 0 0 1 78.62 0)"/>
          <polygon fill="#A9C2FF" points="30.089 129.092 30.089 188.385 27.177 189.812 27.177 130.502" transform="matrix(-1 0 0 1 57.266 0)"/>
          <polygon fill="#A9C2FF" points="18.442 123.268 18.442 181.741 15.53 183.632 15.53 124.678" transform="matrix(-1 0 0 1 33.972 0)"/>
          <polygon fill="#6464F9" points="74.738 143.117 74.738 203.948 71.826 202.271 71.826 141.71" transform="matrix(-1 0 0 1 146.563 0)"/>
          <polygon fill="#6464F9" points="85.414 137.293 85.414 197.885 82.502 196.155 82.502 135.886" transform="matrix(-1 0 0 1 167.917 0)"/>
          <polygon fill="#6464F9" points="97.062 130.499 97.062 191.057 94.15 189.018 94.15 129.092" transform="matrix(-1 0 0 1 191.212 0)"/>
          <polygon fill="#6464F9" points="107.739 124.675 107.739 184.667 104.827 182.875 104.827 123.268" transform="matrix(-1 0 0 1 212.565 0)"/>
          <polygon fill="#6464F9" points="61.149 53.384 64.061 53.384 64.061 0 61.149 0" transform="matrix(-1 0 0 1 125.21 0)"/>
          <path fill="#6464F9" d="M61.148894,15.7960532 C53.7999687,9.75443713 45.9404481,21.6622039 36.8834599,15.7960532 L36.8834599,1.08603148 C46.7944795,6.25239709 51.1517621,-3.0296183 61.148894,1.08603148 L61.148894,15.7960532 Z" transform="matrix(-1 0 0 1 98.032 0)"/>
        </g>
      </g>
    </g>
    <path fill="#FDA8FF" d="M456,158 L456,175.079162 C461.076791,178.958866 465.655943,180.898717 469.737458,180.898717 C470.189319,167.025405 469.867405,169.135566 469.737458,164.290497 C466.964273,164.290497 462.38512,162.193665 456,158 Z" opacity=".618"/>
    <polygon fill="#FDA8FF" points="345 7.142 360.864 1 360.864 15.818 345 22.315"/>
    <path fill="#FFED7E" d="M476 97L476 108.3575C482.112789 110.10171 486.102267 110.973815 487.968433 110.973815 488.694996 105.142331 489.214462 104.005028 488.694996 99.964927 484.954921 99.964927 480.723255 98.976618 476 97zM132 5L132 23.6113942C138.617307 26.4696097 142.936056 27.8987174 144.956246 27.8987174 145.742775 18.3427379 146.305116 16.4790532 145.742775 9.85858916 141.694014 9.85858916 137.113089 8.23905944 132 5z" opacity=".68"/>
    <path fill="#6262FA" d="M156,283 L156,289.160473 C159.315666,290.106558 161.479616,290.5796 162.491852,290.5796 C162.88595,287.416519 163.167716,286.799629 162.88595,284.60822 C160.857279,284.60822 158.561962,284.072146 156,283 Z" opacity=".68"/>
    <path fill="#FFED7E" d="M528,62 L528,68.160473 C531.315666,69.1065579 533.479616,69.5796003 534.491852,69.5796003 C534.88595,66.416519 535.167716,65.7996292 534.88595,63.6082195 C532.857279,63.6082195 530.561962,63.0721463 528,62 Z" opacity=".68"/>
    <path fill="#FDA8FF" d="M94,66 C97.8258967,68.7650657 102.106884,70.5642415 106.842961,71.3975274 L112.187525,81.7700545 C105.731521,82.912488 101.332053,82.2604535 98.9891231,79.813951 C96.6461929,77.3674485 94.9831519,72.7627982 94,66 Z"/>
    <path fill="#FFED7E" d="M220,29 C222.103583,30.5787455 224.457387,31.6060053 227.061412,32.0817794 L230,38.0040911 C226.450312,38.6563764 224.031364,38.28409 222.743157,36.8872317 C221.454949,35.4903734 220.540564,32.8612962 220,29 Z" transform="matrix(-1 0 0 1 450 0)"/>
    <path fill="#FFED7E" d="M353,321 C355.524299,322.894495 358.348864,324.127206 361.473694,324.698135 L365,331.804909 C360.740374,332.587652 357.837637,332.140908 356.291788,330.464678 C354.745939,328.788448 353.648677,325.633555 353,321 Z"/>
    <polygon fill="#FFF" points="77 137.241 91.821 145.393 103.128 137.241 91.821 128" opacity=".627"/>
    <polygon fill="#FFF" points="430 44.843 437.925 51.393 443.97 44.843 437.925 37.419" opacity=".627"/>
  </g>
</svg>
