<svg xmlns="http://www.w3.org/2000/svg" width="200" height="50" viewBox="0 0 200 50">
  <defs>
    <linearGradient id="curve-a" x1="0%" y1="0%" y2="0%">
      <stop offset="0%" stop-color="#FFF"/>
      <stop offset="100%" stop-color="#FFF" stop-opacity=".6"/>
    </linearGradient>
  </defs>
  <g fill="#FFF" fill-opacity=".7" transform="translate(-2)">
    <path d="M0,50 L204,50 L203.80416,3.55933333 C203.80416,3.55933333 181.8558,4.24396066 157.78788,22.9643451 C133.71928,41.6847296 111.50436,40.8094379 90.6338,33.6727579 C69.76392,26.5353992 48.15828,29.6640579 34.19584,21.0604162 C6.27096,3.85245425 0,6.88340594 0,6.88340594 L0,50 Z"/>
    <path d="M0,50 L204,50 L204,28.1565061 C204,28.1565061 178.33204,17.47751 141.48692,17.47751 C104.6418,17.47751 86.80404,33.5863537 54.7468,33.5863537 C22.68956,33.5863537 0,13.646 0,13.646 L0,50 Z"/>
    <path d="M0,50 L204,50 L203.80416,17.6788689 C203.80416,17.6788689 194.4358,16.4265479 183.40688,16.227315 C172.37796,16.0280821 171.666,15.5306776 149.32596,22.9517637 C126.98592,30.37285 118.23704,27.0462028 102,27.0462028 C74.78232,27.0462028 47.03152,17.5812854 30.27632,7.81684097 C13.5218,-1.94760348 0,0.200587851 0,0.200587851 L0,50 Z"/>
  </g>
</svg>
