<!-- Generated by IcoMoon.io -->
<svg version="1.1" xmlns="http://www.w3.org/2000/svg" width="7610" height="1024" viewBox="0 0 7610 1024">
<title>icon-text</title>
<g id="icomoon-ignore">
</g>
<path fill="#fff" d="M863.011 875.198c-26.010-29.957 2.153-102.248 68.165-193.913 25.97 61.952 65.724 117.166 116.24 161.444-59.555 29.778-109.423 46.281-143.506 46.281-15.048 1.367-29.936-3.946-40.72-14.53zM1717.050 86.813c13.353-0.348 26.285 4.695 35.877 13.992 51.303 59.017-105.656 279.836-350.692 492.943-17.938 15.606-35.877 30.674-53.815 45.384 15.606-14.53 31.033-29.419 46.46-44.667 131.308-130.052 233.197-260.284 287.012-358.764-32.406-40.014-71.49-74.121-115.522-100.813 64.578-32.468 117.495-48.792 151.757-45.922 0.048-0.656 0.048-1.316 0-1.973zM1528.699 114.438c-143.601-68.542-313.009-54.288-443.137 37.286s-200.738 246.222-184.701 404.532c2.868 27.526 8.273 54.728 16.144 81.26 7.175-6.457 14.171-13.095 21.705-19.553l-21.526 24.037c-141.891 164.314-214.003 300.286-172.566 347.822s175.974-1.256 349.257-110.32c117.002-75.249 228.175-159.198 332.575-251.135l14.53-12.916c-80.937 89.893-167.387 174.666-258.849 253.826-14.35 12.377-28.342 24.217-42.514 35.877 168.782 85.684 373.443 53.878 508.261-78.988s169.605-337.041 86.391-507.055c124.491-150.322 185.482-272.482 146.735-316.968-12.98-12.868-30.934-19.42-49.151-17.938-64.219 0-173.821 47.895-304.95 130.59z"></path>
<path fill="#fff" d="M489.717 769.542v205.393h-489.714v-958.081h233.197v753.406z"></path>
<path fill="#fff" d="M4793.632 769.542v205.393h-489.714v-958.081h233.197v753.406z"></path>
<path fill="#fff" d="M2141.107 974.934v-958.081h358.765c171.848 0 307.282 114.087 307.282 301.9 0 143.506-80.542 244.139-194.45 283.066l241.448 373.115h-255.44l-224.049-354.28v354.28zM2477.807 414.006c67.089 0 96.687-38.926 96.687-95.252 1.472-26.066-8.241-51.524-26.702-69.985s-43.918-28.174-69.985-26.702h-103.145v191.939z"></path>
<path fill="#fff" d="M3511.049 974.934h-328.628v-958.081h328.628c308.717 0 464.242 240.193 464.242 480.386s-154.269 477.695-464.242 477.695zM3476.249 770.977c161.444 0 253.647-130.232 253.647-272.482s-93.996-276.428-253.647-276.428h-60.452v548.91z"></path>
<path fill="#fff" d="M6352.999 211.484c-57.581 0-104.58 28.163-104.58 81.798 0 38.926 26.907 67.089 111.397 79.108 189.068 28.163 281.809 153.013 281.809 299.209 0 156.959-120.903 311.408-348.899 311.408-171.848 0-276.427-53.815-367.733-125.568l116.778-169.157c65.911 56.362 149.359 88.067 236.067 89.692 76.596 0 116.778-45.563 116.778-96.508 0-64.399-42.873-104.76-127.362-119.469-195.885-34.8-273.737-132.922-273.737-256.337 0-173.104 138.125-296.519 350.154-296.519 91.55-2.701 181.932 21.094 260.284 68.524l-81.798 189.069c-49.783-34.535-108.587-53.741-169.157-55.25z"></path>
<path fill="#fff" d="M7321.843 211.484c-57.762 0-104.58 28.163-104.58 81.798 0 38.926 26.728 67.089 111.217 79.108 189.248 28.163 281.81 153.013 281.81 299.209 0 156.959-120.724 311.408-348.719 311.408-171.848 0-276.608-53.815-367.734-125.568l116.778-169.157c65.896 56.388 149.354 88.097 236.067 89.692 76.596 0 116.778-45.563 116.778-96.508 0-64.399-42.873-104.76-127.541-119.469-195.886-34.8-273.737-132.922-273.737-256.337 0-173.104 138.304-296.519 350.333-296.519 91.55-2.701 181.932 21.094 260.284 68.524l-81.798 189.069c-49.783-34.535-108.587-53.741-169.157-55.25z"></path>
<path fill="#fff" d="M5129.256 16.854v205.751h233.556v-0.538h281.81v-205.213z"></path>
<path fill="#fff" d="M5362.812 597.873h265.665v-205.393h-153.551v1.794h-345.67v580.66h515.365v-205.393h-281.81z"></path>
</svg>
