<!-- Generated by IcoMoon.io -->
<svg version="1.1" xmlns="http://www.w3.org/2000/svg" width="142" height="100" viewBox="0 0 142 100">
<title>icon-image</title>
<path fill="#fff" d="M82.629 98.904c0 2.060-72.302 1.46-71.545-3.911 1.682-11.929 71.545-21.238 71.545 3.911z"></path>
<path fill="#fff" d="M130.523 39.697v4.853h-4.393v13.367h-6.652v-10.721h-4.055v-20.994l-5.52-5.797-4.618 4.85v4.378h-4.729v9.464h-10.252v14.906h-6.977v-10.778h-3.724v-26.251h-3.602v-3.786h-10.595v4.142h-3.825v21.768h-7.096v14.822h-6.419v-14.705h-7.66v-14.195h-3.944v-4.614h-6.644v4.378h-4.282v33.007h-6.533v-10.531h-7.546v-7.562h-11.456l10.482 53.982c0.204-7.64 26.99-13.821 60.009-13.821 33.148 0 60.022 6.226 60.022 13.907-0.006 0.304-0.053 0.606-0.14 0.896h0.14l10.955-54.965z"></path>
<path fill="#fff" d="M68.336 0h4.1v13.188h-4.1v-13.188z"></path>
</svg>
