<svg xmlns="http://www.w3.org/2000/svg" xmlns:xlink="http://www.w3.org/1999/xlink" viewBox="0 0 18 18">
  <path fill="#fff" d="M0 0.508v0.508l1.159 1.057c3.572 3.261 7.378 6.729 7.452 6.792 0.085 0.072 0.014-0.005-2.479-2.742-0.464-0.51-1.396-1.534-2.072-2.275-0.676-0.743-1.562-1.715-1.969-2.164-0.408-0.446-0.919-1.009-1.136-1.249l-0.395-0.436h-0.559v0.508zM3 0.012c0 0.005 0.109 0.182 0.245 0.392 0.134 0.21 0.644 1.004 1.131 1.766 0.489 0.762 1.076 1.678 1.306 2.038 0.229 0.358 0.775 1.209 1.209 1.888 1.562 2.439 1.742 2.718 1.759 2.735 0.019 0.018-0.169-0.355-0.577-1.138-0.118-0.228-0.296-0.574-0.397-0.768-0.18-0.349-0.713-1.384-1.218-2.356-0.143-0.277-0.346-0.671-0.45-0.874-0.104-0.205-0.284-0.549-0.397-0.768s-0.307-0.591-0.429-0.829c-0.122-0.238-0.349-0.679-0.506-0.979-0.155-0.302-0.349-0.676-0.429-0.833l-0.145-0.288h-0.551c-0.304 0-0.552 0.005-0.552 0.012zM5.894 0.014c0 0.007 0.099 0.323 0.219 0.701 0.686 2.164 1.029 3.245 1.114 3.503 0.053 0.161 0.219 0.685 0.371 1.165s0.399 1.255 0.547 1.721c0.148 0.466 0.334 1.043 0.408 1.283 0.076 0.24 0.141 0.434 0.143 0.431 0.007-0.007-0.139-0.686-0.392-1.837-0.083-0.379-0.325-1.486-0.538-2.462-0.212-0.976-0.425-1.952-0.475-2.171-0.048-0.219-0.18-0.822-0.293-1.341-0.111-0.519-0.208-0.958-0.214-0.976-0.009-0.028-0.046-0.030-0.45-0.030-0.242 0-0.439 0.005-0.439 0.014zM8.329 0.005c0 0.034 0.284 6.224 0.291 6.348 0.005 0.092 0.034 0.679 0.062 1.304 0.030 0.625 0.056 1.14 0.062 1.145s0.009-0.014 0.009-0.042c0-0.046 0.074-1.643 0.229-4.975 0.028-0.621 0.056-1.205 0.062-1.297 0.009-0.155 0.115-2.434 0.115-2.472 0-0.009-0.166-0.016-0.415-0.016-0.228 0-0.415 0.002-0.415 0.005zM10.703 0.021c-0.007 0.026-0.143 0.649-0.575 2.635-0.164 0.757-0.367 1.678-0.448 2.047s-0.259 1.182-0.395 1.809c-0.136 0.626-0.304 1.392-0.371 1.701-0.12 0.54-0.143 0.676-0.085 0.492 0.192-0.596 0.475-1.489 0.648-2.035 0.118-0.374 0.261-0.822 0.318-0.997s0.226-0.708 0.376-1.182c0.281-0.884 0.692-2.179 1.161-3.648 0.145-0.452 0.263-0.828 0.263-0.833s-0.199-0.011-0.441-0.011c-0.339 0-0.445 0.005-0.45 0.021zM12.971 0.798c-0.226 0.439-0.572 1.108-0.768 1.488-0.196 0.378-0.561 1.085-0.812 1.571s-0.623 1.207-0.829 1.606c-0.206 0.397-0.461 0.889-0.565 1.094-0.104 0.203-0.219 0.425-0.256 0.494-0.062 0.116-0.154 0.293-0.582 1.129-0.099 0.194-0.217 0.42-0.261 0.503-0.104 0.198-0.060 0.15 0.115-0.124 0.625-0.976 1.996-3.118 2.52-3.935 1.316-2.054 2.921-4.56 2.945-4.602 0.011-0.016-0.102-0.021-0.542-0.021h-0.552l-0.413 0.798zM16.544 0.409c-0.203 0.226-0.828 0.911-1.385 1.523s-1.408 1.546-1.888 2.074c-0.919 1.011-2.622 2.88-2.868 3.15-0.187 0.206-1.426 1.571-1.498 1.65-0.101 0.111 0.009 0.014 0.731-0.644 3.785-3.454 7.62-6.946 7.775-7.085l0.109-0.097 0.002-0.491 0.002-0.489h-0.609l-0.371 0.409zM16.774 3.822c-0.755 0.487-1.234 0.794-3.326 2.137-0.694 0.445-1.998 1.281-2.898 1.858s-1.632 1.052-1.631 1.055c0.007 0.005 0.746-0.372 1.564-0.799 0.228-0.118 0.598-0.309 0.821-0.424 0.224-0.115 0.478-0.245 0.565-0.291 0.088-0.048 0.854-0.443 1.703-0.882s1.639-0.847 1.756-0.909c0.116-0.060 0.364-0.187 0.547-0.282 0.461-0.236 1.249-0.646 1.47-0.762l0.18-0.095v-0.538c0-0.295-0.005-0.536-0.012-0.535-0.009 0-0.339 0.212-0.738 0.468zM0.004 3.928l0.005 0.545 0.274 0.141c0.15 0.078 0.674 0.349 1.165 0.602 0.491 0.254 1.562 0.808 2.382 1.234 0.821 0.424 1.595 0.824 1.721 0.891 0.127 0.065 0.476 0.247 0.776 0.402 0.302 0.155 0.746 0.385 0.988 0.51 0.856 0.445 1.279 0.66 1.279 0.651 0-0.004-0.164-0.113-0.365-0.242-0.203-0.129-0.586-0.374-0.852-0.545s-0.854-0.549-1.306-0.838c-1.029-0.66-1.692-1.085-3.176-2.038-0.646-0.415-1.542-0.99-1.994-1.279s-0.838-0.538-0.861-0.552l-0.039-0.025 0.004 0.544zM17.268 6.256c-0.125 0.041-0.734 0.235-1.35 0.431s-1.327 0.424-1.579 0.505c-0.252 0.081-0.895 0.286-1.429 0.455-0.533 0.169-1.256 0.401-1.606 0.512-0.349 0.113-1.016 0.325-1.482 0.471-0.741 0.236-1.015 0.328-0.856 0.293 0.025-0.005 0.648-0.143 1.385-0.304s1.878-0.409 2.532-0.554c0.655-0.145 1.56-0.342 2.012-0.439 0.452-0.099 1.226-0.268 1.721-0.378l0.9-0.199 0.005-0.436c0.002-0.24-0.002-0.436-0.009-0.434-0.009 0.002-0.116 0.035-0.244 0.078zM0.004 6.646l0.005 0.436 0.468 0.102c0.258 0.058 1.087 0.24 1.844 0.404 0.757 0.166 1.738 0.381 2.179 0.478s1.489 0.326 2.329 0.51c0.84 0.184 1.578 0.344 1.638 0.358 0.217 0.049 0.078-0.002-0.473-0.178-0.706-0.226-2.179-0.694-3.45-1.098-0.544-0.173-1.198-0.381-1.456-0.464s-0.882-0.282-1.391-0.443c-0.506-0.162-1.078-0.344-1.271-0.406-0.191-0.062-0.365-0.116-0.388-0.124l-0.039-0.012 0.004 0.436zM17.363 8.566c-0.004 0.004-0.125 0.011-0.272 0.018-0.492 0.021-4.421 0.205-5.541 0.258-0.611 0.028-1.445 0.069-1.851 0.088-0.408 0.019-0.743 0.037-0.746 0.041s0.12 0.012 0.272 0.019c0.154 0.007 0.335 0.016 0.402 0.021 0.069 0.004 0.739 0.035 1.491 0.069 2.296 0.104 2.631 0.12 3.053 0.143 0.307 0.016 3.236 0.148 3.296 0.148h0.056v-0.812h-0.076c-0.042 0-0.081 0.004-0.085 0.007zM0 9.002v0.408l0.182-0.011c0.099-0.007 0.875-0.042 1.724-0.081 0.849-0.037 1.624-0.072 1.721-0.078s0.284-0.014 0.415-0.019c0.131-0.005 0.274-0.014 0.318-0.018 0.044-0.002 1.011-0.048 2.151-0.099 1.14-0.053 2.049-0.101 2.021-0.108s-0.445-0.028-0.925-0.049c-0.48-0.019-1.013-0.044-1.182-0.055-0.169-0.009-0.738-0.037-1.262-0.060-0.524-0.025-1.894-0.088-3.044-0.141s-2.096-0.097-2.104-0.097c-0.009 0-0.014 0.184-0.014 0.408zM9.671 9.258c0.413 0.131 1.131 0.36 1.597 0.51 0.466 0.148 1.078 0.344 1.359 0.432 0.282 0.088 0.817 0.259 1.191 0.379s1.069 0.342 1.544 0.492c0.476 0.152 1.151 0.365 1.5 0.478 0.349 0.111 0.641 0.203 0.649 0.203 0.007 0 0.012-0.194 0.012-0.432v-0.432l-0.039-0.009c-0.023-0.005-0.334-0.072-0.694-0.15-0.358-0.079-0.828-0.182-1.041-0.229s-1.031-0.226-1.818-0.397c-0.785-0.171-1.675-0.365-1.976-0.432-1.133-0.252-2.986-0.653-3.011-0.653-0.014 0.002 0.312 0.109 0.725 0.24zM7.659 9.24c-0.461 0.101-1.343 0.295-1.959 0.431s-1.74 0.381-2.497 0.547c-0.757 0.164-1.786 0.39-2.285 0.499l-0.909 0.199-0.005 0.438-0.004 0.436 0.039-0.012c0.023-0.007 0.469-0.148 0.994-0.316s1.184-0.378 1.465-0.468c0.282-0.088 0.905-0.288 1.385-0.441 0.911-0.291 1.821-0.582 3.609-1.151 0.582-0.184 1.062-0.339 1.066-0.342 0.021-0.019-0.125 0.011-0.898 0.18zM8.921 9.065c0.011 0.011 0.471 0.309 1.024 0.662 0.554 0.355 1.654 1.059 2.444 1.567 4.362 2.799 5.116 3.282 5.126 3.282 0.005 0 0.009-0.242 0.009-0.536v-0.536l-0.604-0.314c-0.334-0.171-0.851-0.439-1.152-0.595-0.3-0.154-0.741-0.383-0.979-0.506s-0.591-0.307-0.785-0.406c-0.194-0.101-0.531-0.275-0.75-0.388s-0.54-0.281-0.715-0.371c-0.175-0.090-0.429-0.221-0.565-0.291-2.107-1.094-3.078-1.592-3.053-1.567zM8.356 9.208c-0.36 0.189-1.239 0.644-1.818 0.944-0.291 0.15-1.324 0.683-2.294 1.186-0.971 0.501-2.035 1.052-2.365 1.223-1.251 0.646-1.645 0.849-1.759 0.911l-0.12 0.064v1.078l0.037-0.021c0.021-0.011 0.102-0.062 0.182-0.113 0.078-0.051 0.778-0.499 1.555-0.997 1.897-1.218 2.472-1.585 3.274-2.1 0.374-0.24 1.006-0.646 1.403-0.9 0.932-0.598 1.871-1.2 2.038-1.308 0.072-0.048 0.125-0.086 0.115-0.086-0.009 0-0.12 0.055-0.247 0.12zM9.048 9.277c0.095 0.106 0.57 0.626 1.055 1.161 1.391 1.528 2.419 2.658 3.856 4.235 0.732 0.805 1.705 1.872 2.16 2.374 0.455 0.499 0.838 0.914 0.851 0.923 0.012 0.007 0.141 0.011 0.284 0.009l0.261-0.005 0.007-1.024-0.584-0.529c-0.321-0.291-0.958-0.872-1.415-1.288-0.459-0.418-1.408-1.283-2.111-1.924s-1.826-1.666-2.495-2.276c-1.973-1.8-2.022-1.844-2.033-1.844-0.005 0 0.069 0.085 0.164 0.189zM8.439 9.296c-0.307 0.281-1.736 1.585-3.109 2.836-0.702 0.641-1.652 1.505-2.111 1.924-0.457 0.416-1.368 1.248-2.024 1.844l-1.193 1.085v0.498l-0.002 0.499h0.288c0.157 0 0.295-0.007 0.305-0.014s0.424-0.457 0.918-1.001c0.494-0.544 1.339-1.474 1.879-2.065 1.408-1.548 2.446-2.688 3.87-4.255 0.688-0.755 1.283-1.408 1.324-1.451 0.124-0.131 0.051-0.079-0.145 0.099zM8.492 9.427c-0.106 0.168-0.374 0.588-0.595 0.932s-0.784 1.221-1.249 1.95c-0.466 0.727-1.106 1.728-1.424 2.224-0.318 0.494-0.939 1.466-1.382 2.158-0.445 0.692-0.806 1.265-0.806 1.274 0 0.021 1.057 0.025 1.087 0.004 0.011-0.007 0.113-0.196 0.228-0.418 0.115-0.224 0.309-0.6 0.432-0.838s0.364-0.702 0.535-1.032c0.261-0.508 0.981-1.902 1.521-2.947 0.079-0.155 0.33-0.641 0.556-1.076 0.226-0.438 0.531-1.029 0.679-1.315s0.349-0.678 0.45-0.87c0.099-0.191 0.176-0.348 0.171-0.348s-0.095 0.138-0.203 0.304zM9.032 9.476c0.097 0.189 0.289 0.563 0.427 0.829s0.394 0.762 0.568 1.103c0.175 0.339 0.364 0.704 0.42 0.812 0.102 0.196 1.534 2.965 2.042 3.953 0.572 1.112 0.893 1.731 0.918 1.77l0.023 0.039h0.549c0.45 0 0.547-0.004 0.54-0.023-0.005-0.014-0.146-0.238-0.314-0.499s-0.563-0.881-0.881-1.375c-0.318-0.496-0.866-1.354-1.221-1.906-2.084-3.254-2.455-3.833-2.808-4.385-0.214-0.335-0.401-0.621-0.415-0.635s0.055 0.129 0.152 0.318zM8.831 9.229c0.011 0.060 0.224 1.038 0.672 3.088 0.122 0.558 0.392 1.793 0.6 2.744s0.436 1.996 0.508 2.321l0.131 0.591 0.429 0.005c0.236 0.002 0.436-0.002 0.445-0.011 0.007-0.007-0.051-0.212-0.129-0.454-0.078-0.244-0.265-0.831-0.415-1.306-0.152-0.476-0.372-1.17-0.492-1.544s-0.286-0.898-0.371-1.165c-0.085-0.266-0.247-0.78-0.364-1.142-0.115-0.36-0.289-0.909-0.386-1.218-0.392-1.235-0.623-1.955-0.632-1.964-0.005-0.005-0.004 0.019 0.004 0.053zM8.516 9.798c-0.106 0.334-0.293 0.923-0.416 1.311-0.125 0.388-0.326 1.024-0.45 1.412s-0.321 1.011-0.441 1.385c-0.12 0.374-0.286 0.898-0.371 1.165s-0.249 0.784-0.365 1.147c-0.261 0.817-0.538 1.694-0.547 1.729-0.005 0.023 0.053 0.026 0.425 0.032 0.238 0.002 0.438-0.002 0.446-0.011 0.007-0.007 0.078-0.307 0.155-0.667 0.079-0.358 0.222-1.013 0.319-1.454s0.304-1.384 0.457-2.091c0.154-0.709 0.334-1.526 0.397-1.818 0.206-0.935 0.575-2.628 0.586-2.688 0.005-0.030 0.007-0.056 0.002-0.056-0.004 0-0.094 0.272-0.198 0.604zM8.686 10.856c-0.274 5.926-0.321 6.967-0.321 7.041v0.085h0.404c0.224 0 0.409-0.005 0.413-0.014 0.007-0.011-0.102-2.522-0.136-3.127-0.007-0.102-0.030-0.614-0.055-1.138-0.023-0.524-0.051-1.108-0.062-1.297-0.025-0.459-0.141-3.021-0.141-3.108 0-0.037-0.005-0.069-0.014-0.069-0.007 0-0.046 0.732-0.088 1.627z"></path>
</svg>
