<!-- Generated by IcoMoon.io -->
<svg version="1.1" xmlns="http://www.w3.org/2000/svg" width="100" height="100" viewBox="0 0 100 100">
<title>tips</title>
<path fill="#fff" d="M50 0c27.614 0 50 22.386 50 50s-22.386 50-50 50c-27.614 0-50-22.386-50-50s22.386-50 50-50zM50.349 10.896c-21.974 0-39.788 17.814-39.788 39.788s17.814 39.788 39.788 39.788c21.974 0 39.788-17.814 39.788-39.788s-17.814-39.788-39.788-39.788zM42.271 78.571c-3.107 0-5.264-1.479-5.264-4.8 0-4.186 2.936-11.336 3.543-12.821l6.043-15.357c0.6-1.571-0.171-2.357-0.864-2.357-3.2 0-7.343 7.593-8.893 7.593-0.607 0-1.121-0.607-1.121-1.129 0-1.571 3.8-5.236 4.921-6.371 3.45-3.314 7.943-5.843 12.943-5.843 3.714 0 7.686 2.264 4.571 10.729l-6.214 17.014c-0.507 1.307-1.457 3.486-1.457 4.886 0 0.607 0.343 1.214 1.029 1.214 2.593 0 7.343-7.407 8.55-7.407 0.429 0 1.036 0.521 1.036 1.307 0 2.529-10.1 13.343-18.821 13.343zM57.129 34.343c-3.55 0-5.879-2.357-5.879-5.936 0-3.836 3.286-6.979 7.079-6.979 3.457 0 5.957 2.357 5.957 5.929 0 4.021-3.286 6.986-7.164 6.986h0.007z"></path>
</svg>
