<svg xmlns="http://www.w3.org/2000/svg" xmlns:xlink="http://www.w3.org/1999/xlink" viewBox="0 0 320 320">
  <symbol id="icon-sale" viewBox="0 0 18 18">
    <title>sale</title>
    <path d="M17.634 9.831l-2.804-3.157c-0.189-0.21-0.466-0.299-0.728-0.259-0.041-0.007-0.083-0.009-0.124-0.009h-1.799c-0.446 0-0.809 0.365-0.809 0.809 0 0.446 0.365 0.809 0.809 0.809h1.685l1.486 1.673h-1.937c-0.444 0-0.809 0.365-0.809 0.809s0.365 0.809 0.809 0.809h2.968v5.486c0 0.446 0.365 0.809 0.809 0.809s0.809-0.363 0.809-0.809v-6.296c0-0.282-0.146-0.531-0.365-0.676zM0.384 9.813l2.804-3.157c0.189-0.21 0.466-0.299 0.728-0.259 0.041-0.007 0.083-0.009 0.124-0.009h1.799c0.446 0 0.809 0.365 0.809 0.809 0 0.446-0.365 0.809-0.809 0.809h-1.685l-1.486 1.673h1.937c0.444 0 0.809 0.365 0.809 0.809s-0.365 0.809-0.809 0.809h-2.968v5.486c0 0.446-0.365 0.809-0.809 0.809s-0.809-0.363-0.809-0.809v-6.296c0-0.282 0.146-0.531 0.365-0.676z"></path>
    <path d="M16.999 17.596h-16.189c-0.444 0-0.809-0.363-0.809-0.809s0.363-0.809 0.809-0.809h16.189c0.444 0 0.809 0.365 0.809 0.809 0 0.446-0.363 0.809-0.809 0.809zM11.979 3.892c-0.315 0.315-0.829 0.315-1.144 0l-0.833-0.941v4.68c0 0.446-0.363 0.809-0.809 0.809-0.444 0-0.809-0.365-0.809-0.809v-4.686l-0.763 0.775c-0.315 0.315-0.829 0.315-1.144 0s-0.315-0.829 0-1.144l2.146-2.16c0.315-0.315 0.829-0.315 1.144 0 0.027 0.027 0.050 0.054 0.072 0.083l2.139 2.247c0.317 0.315 0.317 0.831 0.002 1.146zM10.973 13.549h-4.137c-0.444 0-0.809-0.365-0.809-0.809 0-0.446 0.363-0.809 0.809-0.809h4.137c0.446 0 0.809 0.363 0.809 0.809s-0.363 0.809-0.809 0.809z"></path>
    <path d="M13.878 11.066l-1.768 2.2c-0.281 0.345-0.793 0.398-1.139 0.115-0.345-0.281-0.398-0.793-0.115-1.139l1.768-2.2c0.281-0.345 0.793-0.398 1.139-0.115 0.345 0.281 0.398 0.793 0.115 1.139zM4.075 11.084l1.768 2.2c0.281 0.345 0.793 0.398 1.139 0.115 0.345-0.281 0.398-0.793 0.115-1.139l-1.768-2.2c-0.281-0.345-0.793-0.398-1.139-0.115-0.345 0.281-0.398 0.793-0.115 1.139z"></path>
  </symbol>
  <symbol id="icon-cancel-sale" viewBox="0 0 18 18">
    <title>cancel-sale</title>
    <path d="M17.634 10.020l-2.804-3.157c-0.189-0.21-0.466-0.299-0.728-0.259-0.041-0.007-0.083-0.009-0.124-0.009h-1.799c-0.446 0-0.809 0.365-0.809 0.809 0 0.446 0.365 0.809 0.809 0.809h1.685l1.486 1.673h-1.937c-0.444 0-0.809 0.365-0.809 0.809s0.365 0.809 0.809 0.809h2.968v5.486c0 0.446 0.365 0.809 0.809 0.809s0.809-0.363 0.809-0.809v-6.296c0-0.282-0.146-0.531-0.365-0.676zM0.384 10.002l2.804-3.157c0.189-0.21 0.466-0.299 0.728-0.259 0.041-0.007 0.083-0.009 0.124-0.009h1.799c0.446 0 0.809 0.365 0.809 0.809 0 0.446-0.365 0.809-0.809 0.809h-1.685l-1.486 1.673h1.937c0.444 0 0.809 0.365 0.809 0.809s-0.365 0.809-0.809 0.809h-2.968v5.486c0 0.446-0.365 0.809-0.809 0.809s-0.809-0.363-0.809-0.809v-6.296c0-0.282 0.146-0.531 0.365-0.676z"></path>
    <path d="M16.999 17.785h-16.189c-0.444 0-0.809-0.363-0.809-0.809s0.363-0.809 0.809-0.809h16.189c0.444 0 0.809 0.365 0.809 0.809 0 0.446-0.363 0.809-0.809 0.809zM11.979 4.55c-0.315-0.315-0.829-0.315-1.144 0l-0.833 0.941v-4.68c0-0.446-0.363-0.809-0.809-0.809-0.444 0-0.809 0.365-0.809 0.809v4.686l-0.763-0.775c-0.315-0.315-0.829-0.315-1.144 0s-0.315 0.829 0 1.144l2.146 2.16c0.315 0.315 0.829 0.315 1.144 0 0.027-0.027 0.050-0.054 0.072-0.083l2.139-2.247c0.317-0.315 0.317-0.831 0.002-1.146zM10.973 13.738h-4.137c-0.444 0-0.809-0.365-0.809-0.809 0-0.446 0.363-0.809 0.809-0.809h4.137c0.446 0 0.809 0.363 0.809 0.809s-0.363 0.809-0.809 0.809z"></path>
    <path d="M13.878 11.256l-1.768 2.2c-0.281 0.345-0.793 0.398-1.139 0.115-0.345-0.281-0.398-0.793-0.115-1.139l1.768-2.2c0.281-0.345 0.793-0.398 1.139-0.115 0.345 0.281 0.398 0.793 0.115 1.139zM4.075 11.274l1.768 2.2c0.281 0.345 0.793 0.398 1.139 0.115 0.345-0.281 0.398-0.793 0.115-1.139l-1.768-2.2c-0.281-0.345-0.793-0.398-1.139-0.115-0.345 0.281-0.398 0.793-0.115 1.139z"></path>
  </symbol>
  <symbol id="icon-auction" viewBox="0 0 18 18">
    <title>auction</title>
    <path d="M16.625 8.964h-7.809c-0.033 0-0.064-0.009-0.096-0.011v2.811c0.624 0.139 1.095 0.763 1.095 1.513 0 0.852-0.608 1.542-1.358 1.542h-5.975c-0.75 0-1.358-0.69-1.358-1.542 0-0.741 0.46-1.358 1.073-1.507v-8.978h0.005v-0.983c0-0.866 0.526-1.588 1.234-1.79h4.051c0.706 0.201 1.231 0.92 1.233 1.785v4.087c0.032-0.002 0.063-0.011 0.096-0.011h7.809c0.75 0 1.358 0.69 1.358 1.542s-0.608 1.543-1.358 1.543zM7.090 3.202l-0.011 0.489c0-1.26-0.18-1.714-1.079-1.822h-1.133c-0.685 0.083-0.953 0.366-1.040 1.053v8.812h3.263v-8.531h-0zM10.904 16.987c0 0.511-0.365 0.926-0.815 0.926h-9.257c-0.45 0-0.815-0.414-0.815-0.926s0.365-0.925 0.815-0.925h9.257c0.45 0 0.815 0.414 0.815 0.925z"></path>
  </symbol>
  <symbol id="icon-action" viewBox="0 0 18 18">
    <title>action</title>
    <path d="M11.308 16.801l1.951-2.372 1.958 3.014c0.098 0.147 0.259 0.229 0.421 0.229 0.094 0 0.188-0.026 0.271-0.079l0.583-0.38c0.233-0.15 0.297-0.462 0.147-0.695l-1.958-3.014 2.958-0.816-8.092-5.544 1.763 9.656z"></path>
    <path d="M8.827 6.043c0.218-0.143 0.466-0.21 0.714-0.21 0.259 0 0.519 0.075 0.744 0.229l6.969 4.77v-8.325c0-1.368-1.12-2.488-2.488-2.488h-11.919c-1.368 0-2.488 1.12-2.488 2.488v8.897c0 1.368 1.12 2.488 2.488 2.488h6.593l-1.191-6.514c-0.094-0.519 0.135-1.045 0.579-1.334z"></path>
  </symbol>
</svg>
