<svg xmlns="http://www.w3.org/2000/svg" xmlns:xlink="http://www.w3.org/1999/xlink" viewBox="0 0 320 320">
  <symbol id="icon-marketplace" viewBox="0 0 18 18">
    <title>marketplace authorize</title>
    <path d="M17.027 16.271v-8.435c-0.458 0.379-1.044 0.607-1.683 0.607-0.865 0-1.634-0.417-2.117-1.061-0.483 0.644-1.252 1.061-2.117 1.061s-1.634-0.417-2.117-1.061c-0.478 0.638-1.237 1.053-2.091 1.061v7.829h-1.055v-8.037c-0.434-0.184-0.808-0.48-1.087-0.852-0.483 0.644-1.252 1.061-2.117 1.061-0.639 0-1.226-0.228-1.683-0.607v8.435h-0.96v1.055h18v-1.055h-0.973zM5.027 13.201h-1.055v-1.5h1.055v1.5zM15.375 14.854h-6.75v-1.055h1.102c-0.442-0.52-0.709-1.193-0.709-1.927v-1.448h5.964v1.448c0 0.734-0.267 1.407-0.709 1.927h1.102v1.055z"></path>
    <path d="M14.725 0.674h-11.436l-2.3 4.113h16.022z"></path>
    <path d="M13.756 5.842c0.023 0.857 0.726 1.547 1.588 1.547s1.566-0.69 1.588-1.547h-3.177z"></path>
    <path d="M9.522 5.842c0.023 0.857 0.726 1.547 1.588 1.547s1.566-0.69 1.588-1.547h-3.177z"></path>
    <path d="M1.055 5.842c0.023 0.857 0.726 1.547 1.588 1.547s1.566-0.69 1.588-1.547h-3.177z"></path>
    <path d="M5.289 5.842c0.023 0.857 0.726 1.547 1.588 1.547s1.566-0.69 1.588-1.547h-3.177z"></path>
    <path d="M10.073 11.479v0.393c0 1.063 0.865 1.927 1.927 1.927s1.927-0.865 1.927-1.927v-0.393h-3.854z"></path>
  </symbol>
  <symbol id="icon-telegram" viewBox="0 0 18 18">
    <title>telegram authorize</title>
    <path d="M0.366 7.762l16.627-6.096c0.254-0.093 0.539-0.040 0.742 0.138s0.293 0.453 0.234 0.717l-2.884 12.924c-0.062 0.278-0.259 0.507-0.525 0.609s-0.566 0.064-0.798-0.101l-4.032-2.865-2.703 2.68c-0.127 0.127-0.322 0.157-0.481 0.072s-0.245-0.262-0.211-0.439l0.779-4.174 7.685-6.767c0.072-0.063 0.084-0.171 0.027-0.248s-0.163-0.098-0.245-0.048l-9.907 6.055-4.291-1.411c-0.223-0.075-0.376-0.282-0.379-0.518s0.142-0.448 0.362-0.53v-0.001z"></path>
  </symbol>
  <symbol id="icon-ok" viewBox="0 0 18 18">
    <title>ok</title>
    <path d="M6.75 12.127l-3.127-3.127-1.065 1.057 4.192 4.192 9-9-1.057-1.058z"></path>
  </symbol>
</svg>
