<svg xmlns="http://www.w3.org/2000/svg" xmlns:xlink="http://www.w3.org/1999/xlink" viewBox="0 0 320 320">
  <symbol id="icon-no-candy" viewBox="0 0 18 18">
    <title>no-candy</title>
    <path d="M8.971 6.59v7.417l5.905-1.121v-3.614c0-0.151 0.132-0.269 0.282-0.252l0.727 0.112c0.128 0.015 0.224 0.123 0.224 0.252v4.198c0 0.119-0.083 0.222-0.2 0.248l-6.464 1.39c-0.312 0.067-0.635 0.068-0.948 0.002l-6.395-1.345c-0.115-0.024-0.198-0.124-0.201-0.241l-0.11-4.264c-0.003-0.134 0.098-0.247 0.231-0.259l5.432-0.477c0.094-0.008 0.176-0.068 0.212-0.156l0.818-1.987c0.106-0.256 0.487-0.181 0.487 0.096zM1.729 4.162l-1.705 3.644c-0.083 0.178 0.059 0.379 0.255 0.359l6.402-0.647c0.090-0.009 0.169-0.066 0.206-0.149l2.060-4.641-7.034 1.292c-0.081 0.015-0.149 0.068-0.184 0.142zM8.947 2.728l2.18 4.786c0.038 0.084 0.118 0.14 0.21 0.147l6.39 0.514c0.193 0.015 0.331-0.182 0.251-0.357l-1.666-3.653c-0.034-0.076-0.104-0.129-0.186-0.144l-7.178-1.292z"></path>
  </symbol>
  <symbol id="icon-withdraw" viewBox="0 0 18 18">
    <title>withdraw</title>
    <path d="M15.75 1.5h-13.5c-1.24 0-2.25 1.010-2.25 2.25v3c0 1.24 1.010 2.25 2.25 2.25h1.5v6.75c0 0.415 0.336 0.75 0.75 0.75h9c0.415 0 0.75-0.335 0.75-0.75v-6.75h1.5c1.24 0 2.25-1.010 2.25-2.25v-3c0-1.241-1.010-2.25-2.25-2.25zM12.75 15h-7.5v-9h7.5v9zM16.5 6.75c0 0.413-0.336 0.75-0.75 0.75h-1.5v-1.5h0.75c0.415 0 0.75-0.336 0.75-0.75s-0.335-0.75-0.75-0.75h-12c-0.414 0-0.75 0.336-0.75 0.75s0.336 0.75 0.75 0.75h0.75v1.5h-1.5c-0.413 0-0.75-0.337-0.75-0.75v-3c0-0.413 0.337-0.75 0.75-0.75h13.5c0.414 0 0.75 0.337 0.75 0.75v3z"></path>
    <path d="M9.3 9.825v-1.118c0.243 0.063 0.475 0.161 0.69 0.292 0.044 0.009 0.091 0.009 0.135 0 0.207 0.004 0.379-0.16 0.383-0.367-0.002-0.072-0.028-0.141-0.075-0.195-0.311-0.284-0.712-0.452-1.132-0.472v-0.398c-0.004-0.142-0.121-0.255-0.263-0.255-0.003 0-0.005 0-0.008 0-0.145-0.004-0.265 0.11-0.269 0.255v0.39c-0.732-0.022-1.347 0.544-1.388 1.275 0 0.862 0.713 1.103 1.388 1.275v1.26c-0.315-0.044-0.613-0.171-0.862-0.367-0.062-0.048-0.139-0.074-0.218-0.075-0.201 0.008-0.36 0.173-0.36 0.375 0 0.074 0.027 0.146 0.075 0.203 0.37 0.349 0.857 0.547 1.365 0.555v0.375c0 0.003 0 0.005 0 0.008 0.009 0.145 0.133 0.255 0.277 0.247 0.142 0 0.259-0.113 0.263-0.255v-0.375c0.975-0.090 1.388-0.668 1.418-1.312 0-0.878-0.742-1.14-1.418-1.32zM8.76 9.66c-0.345-0.097-0.592-0.187-0.592-0.48s0.232-0.495 0.592-0.533v1.013zM9.3 11.768v-1.117c0.353 0.105 0.615 0.3 0.615 0.547s-0.172 0.502-0.615 0.57z"></path>
  </symbol>
</svg>
