<svg xmlns="http://www.w3.org/2000/svg" xmlns:xlink="http://www.w3.org/1999/xlink" viewBox="0 0 320 320">
  <symbol id="icon-overview_unselected" viewBox="0 0 18 18">
    <title>overview_unselected</title>
    <path d="M14.342 13.939c0.591-0.873 0.932-1.865 1.033-2.911h-2.205c-0.505 0-0.915-0.405-0.915-0.905s0.41-0.905 0.915-0.905h2.132c-0.51-2.641-2.678-4.701-5.388-5.086v2.19c0 0.5-0.409 0.905-0.915 0.905s-0.915-0.405-0.915-0.905v-2.19c-2.737 0.39-4.919 2.488-5.401 5.169h2.145c0.505 0 0.915 0.405 0.915 0.905s-0.41 0.905-0.915 0.905h-2.197c0.113 1.006 0.456 1.983 1.021 2.828h10.69zM17.237 10.157c0.002 0.086 0.013 0.17 0.013 0.257 0 1.822-0.593 3.545-1.716 4.984l-0.274 0.352h-12.53l-0.274-0.355c-1.1-1.421-1.705-3.19-1.705-4.981 0-0.056 0.007-0.11 0.009-0.167-0.001-0.014-0.009-0.027-0.009-0.041 0-0.025 0.012-0.046 0.014-0.070 0.149-4.373 3.781-7.887 8.236-7.887 4.431 0 8.048 3.479 8.232 7.819 0.001 0.020 0.012 0.035 0.012 0.055 0 0.012-0.007 0.022-0.007 0.033zM6.855 10.712l4.18-2.082-2.074 4.106-2.106-2.025z"></path>
  </symbol>
  <symbol id="icon-overview_selected" viewBox="0 0 18 18">
    <title>overview_selected</title>
    <path d="M8.438 3.021v2.229c0 0.311 0.252 0.563 0.563 0.563s0.563-0.252 0.563-0.563v-2.229c3.57 0.264 6.444 3.025 6.88 6.542h-2.23c-0.311 0-0.563 0.252-0.563 0.563s0.252 0.563 0.563 0.563h2.285c-0.041 1.608-0.588 3.090-1.489 4.293-2.791 0.009-8.995 0.026-12.003 0.018-0.909-1.206-1.462-2.694-1.503-4.31h2.285c0.311 0 0.563-0.252 0.563-0.563s-0.252-0.563-0.563-0.563h-2.23c0.436-3.516 3.311-6.277 6.88-6.542zM7.194 10.077l2.158 2.097 2.126-4.253-4.284 2.156z"></path>
  </symbol>

  <symbol id="icon-candy_unselected" viewBox="0 0 18 18">
    <title>candy_unselected</title>
    <path d="M4.858 5.452c0.825 0.083 1.144 1.118 0.509 1.651l-0.755 0.633c-0.238 0.2-0.269 0.554-0.069 0.792l4.376 5.216c0.2 0.238 0.554 0.269 0.792 0.069l0.817-0.686c0.648-0.544 1.627-0.019 1.534 0.821-0.055 0.493-0.055 0.835-0.021 0.986 0.083 0.363 0.197 0.598 0.319 0.73 0.062 0.067 0.112 0.094 0.159 0.102 0.365 0.063 0.623-0.154 0.897-0.999 0.118-0.366 0.448-0.622 0.832-0.647 0.463-0.030 0.721-0.126 0.812-0.228 0.305-0.341 0.32-0.556-0.094-0.866-0.261-0.196-0.713-0.341-1.359-0.406-0.825-0.083-1.144-1.118-0.509-1.651l0.752-0.631c0.238-0.2 0.269-0.554 0.069-0.792l-4.376-5.216c-0.2-0.238-0.554-0.269-0.792-0.069l-0.815 0.684c-0.648 0.544-1.627 0.019-1.534-0.821 0.055-0.493 0.055-0.835 0.021-0.986-0.083-0.363-0.197-0.598-0.319-0.73-0.062-0.067-0.112-0.094-0.159-0.102-0.365-0.063-0.623 0.154-0.897 0.999-0.118 0.366-0.448 0.622-0.832 0.647-0.463 0.030-0.721 0.126-0.812 0.228-0.305 0.341-0.32 0.556 0.094 0.866 0.261 0.196 0.713 0.341 1.359 0.406zM2.374 6.546c-1.429-1.071-1.327-2.542-0.368-3.616 0.36-0.403 0.858-0.652 1.478-0.773 0.574-1.269 1.528-1.914 2.779-1.699 0.89 0.153 1.582 0.844 1.916 1.984 0.957-0.398 2.1-0.151 2.802 0.685l4.376 5.216c0.697 0.831 0.745 1.991 0.198 2.862 0.195 0.093 0.374 0.201 0.537 0.323 1.429 1.071 1.327 2.542 0.368 3.616-0.36 0.403-0.858 0.652-1.478 0.773-0.574 1.269-1.528 1.914-2.779 1.699-0.89-0.153-1.582-0.844-1.916-1.983-0.958 0.399-2.103 0.153-2.805-0.684l-4.376-5.216c-0.698-0.832-0.745-1.993-0.197-2.865-0.194-0.093-0.373-0.201-0.536-0.323z"></path>
  </symbol>
  <symbol id="icon-candy_selected" viewBox="0 0 18 18">
    <title>candy_selected</title>
    <path d="M4.449 6.198c-0.859-0.086-1.511-0.297-1.957-0.63-1.183-0.887-0.7-1.893-0.247-2.399 0.301-0.338 0.819-0.53 1.554-0.577 0.431-1.331 1.126-1.914 2.085-1.749 0.478 0.082 1.052 0.482 1.32 1.658 0.068 0.296 0.066 0.759-0.003 1.389l0.953-0.8c0.635-0.532 1.581-0.45 2.113 0.185l4.821 5.745c0.532 0.635 0.45 1.581-0.185 2.113l-0.886 0.743c0.859 0.086 1.511 0.297 1.957 0.63 1.183 0.887 0.7 1.893 0.247 2.399-0.301 0.338-0.819 0.53-1.554 0.577-0.431 1.331-1.126 1.914-2.085 1.749-0.478-0.082-1.052-0.482-1.32-1.658-0.068-0.296-0.066-0.759 0.003-1.389l-0.956 0.802c-0.635 0.532-1.581 0.45-2.113-0.185l-4.821-5.745c-0.532-0.635-0.45-1.581 0.185-2.113l0.889-0.746z"></path>
  </symbol>

  <symbol id="icon-task_selected" viewBox="0 0 18 18">
    <title>task_selected</title>
    <path d="M3.75 0.75h10.5c0.414 0 0.75 0.336 0.75 0.75v14.834c0 0.414-0.336 0.75-0.75 0.75-0.183 0-0.36-0.067-0.497-0.189l-4.753-4.209-4.753 4.209c-0.31 0.275-0.784 0.246-1.059-0.064-0.121-0.137-0.189-0.314-0.189-0.497v-14.834c0-0.414 0.336-0.75 0.75-0.75z"></path>
  </symbol>
  <symbol id="icon-task_unselected" viewBox="0 0 18 18">
    <title>task_unselected</title>
    <path d="M4.875 2.625v11.21l2.633-2.332c0.851-0.754 2.132-0.754 2.983 0l2.633 2.332v-11.21h-8.25zM4.5 0.75h9c0.828 0 1.5 0.672 1.5 1.5v14.084c0 0.414-0.336 0.75-0.75 0.75-0.183 0-0.36-0.067-0.497-0.189l-4.504-3.988c-0.142-0.126-0.355-0.126-0.497 0l-4.504 3.988c-0.31 0.275-0.784 0.246-1.059-0.064-0.121-0.137-0.189-0.314-0.189-0.497v-14.084c0-0.828 0.672-1.5 1.5-1.5z"></path>
  </symbol>

  <symbol id="icon-building_selected" viewBox="0 0 18 18">
    <title>building_selected</title>
    <path d="M11.25 16.5v-3.759c0-0.414-0.336-0.75-0.75-0.75h-3c-0.414 0-0.75 0.336-0.75 0.75v3.759h-3.75v-9.446c0-0.22 0.097-0.429 0.264-0.572l5.37-4.561c0.285-0.242 0.704-0.237 0.983 0.011l5.13 4.552c0.16 0.142 0.252 0.347 0.252 0.561v9.455h-3.75z"></path>
  </symbol>
  <symbol id="icon-building_unselected" viewBox="0 0 18 18">
    <title>building_unselected</title>
    <path d="M14.063 15.562v-8.434l-4.945-4.388-5.18 4.4v8.421h1.875v-3.563c0-0.932 0.756-1.688 1.688-1.688h3c0.932 0 1.688 0.756 1.688 1.688v3.563h1.875zM7.687 12.187v4.312c0 0.518-0.42 0.937-0.937 0.937h-3.75c-0.518 0-0.937-0.42-0.937-0.937v-9.446c0-0.495 0.218-0.966 0.595-1.286l5.37-4.561c0.641-0.544 1.584-0.534 2.212 0.024l5.13 4.552c0.361 0.32 0.568 0.78 0.568 1.262v9.455c0 0.518-0.42 0.937-0.937 0.937h-3.75c-0.518 0-0.937-0.42-0.937-0.937v-4.312h-2.625z"></path>
  </symbol>

  <symbol id="icon-authorization_selected" viewBox="0 0 18 18">
    <title>authorization_selected</title>
    <path d="M3 3.487c2.657 0.156 4.657-0.507 6-1.987 1.32 1.48 3.32 2.143 6 1.987 0 3.872 0 6.473 0 7.802s-2 3.066-6 5.21c-4-2.174-6-3.911-6-5.21s0-3.9 0-7.802zM12.377 6c-2.237 1.262-3.849 2.856-4.503 3.565l-1.681-1.212c-0.045-0.029-0.967 0.725-0.943 0.748l3.061 2.865c0.022 0.023 0.054 0.034 0.087 0.034 0.007 0 0.016 0 0.024-0.002 0.040-0.008 0.074-0.033 0.089-0.070 0.493-1.161 2.121-3.59 4.2-5.352 0.037-0.032 0.050-0.083 0.029-0.127-0-0-0.333-0.466-0.364-0.449z"></path>
  </symbol>
  <symbol id="icon-authorization_unselected" viewBox="0 0 18 18">
    <title>authorization_unselected</title>
    <path d="M12.38 5.861v0c0.293-0.054 0.293-0.054 0.378 0.002 0.053 0.035 0.053 0.035 0.080 0.058 0.024 0.022 0.048 0.047 0.074 0.077 0.037 0.042 0.080 0.097 0.131 0.163 0.009 0.012 0.009 0.012 0.018 0.024 0.104 0.137 0.138 0.184 0.121 0.175l0.086 0.117c0.093 0.198 0.038 0.427-0.127 0.572-1.773 1.503-3.502 3.812-4.095 5.208-0.064 0.157-0.201 0.263-0.352 0.294-0.033 0.007-0.033 0.007-0.057 0.009-0.038 0.002-0.038 0.002-0.052 0.002-0.132 0-0.261-0.049-0.343-0.135l-3.064-2.868c-0.099-0.499-0.099-0.499-0.028-0.517 0.030-0.035 0.030-0.035 0.055-0.060 0.029-0.029 0.068-0.064 0.116-0.107 0.088-0.077 0.206-0.176 0.327-0.273 0.127-0.103 0.249-0.196 0.343-0.265 0.055-0.040 0.102-0.072 0.141-0.096 0.035-0.021 0.035-0.021 0.084-0.044 0.058-0.041 0.058-0.041 0.384 0.038l1.414 1.020c1.143-1.192 2.629-2.414 4.366-3.395zM12.749 6.515c-0 0-0.061-0.109-0.184-0.327l0.184 0.327zM8.337 10.007l-0.225 0.244-1.744-1.258c-0.072 0.054-0.159 0.122-0.248 0.194-0.044 0.035-0.087 0.071-0.128 0.105l2.512 2.352c0.697-1.423 2.224-3.44 3.84-4.892-1.604 0.963-2.971 2.136-4.006 3.256zM8.353 11.969c0.001-0.001 0.001-0.002 0.002-0.004-0.001 0.001-0.001 0.002-0.002 0.004zM8.769 11.894c-0.007-0.007-0.015-0.014-0.022-0.021l0.022 0.021zM2.25 3.675c0-0.539 0.454-0.967 0.992-0.936 2.393 0.14 4.116-0.431 5.251-1.681 0.374-0.412 1.023-0.41 1.394 0.006 1.11 1.245 2.831 1.815 5.246 1.675 0.538-0.031 0.992 0.397 0.992 0.936v7.802c0 1.833-2.172 3.719-6.495 6.037-0.278 0.149-0.613 0.148-0.891-0.003-4.324-2.35-6.49-4.231-6.49-6.034v-7.802zM12.564 6.188c0.031-0.017 0.363 0.448 0.364 0.449 0.020 0.044 0.007 0.094-0.029 0.127-2.079 1.762-3.707 4.192-4.2 5.352-0.015 0.037-0.049 0.062-0.089 0.070-0.008 0.002-0.018 0.002-0.024 0.002-0.033 0-0.064-0.011-0.087-0.034l-3.061-2.865c-0.025-0.023 0.898-0.777 0.943-0.748l1.681 1.212c0.655-0.708 2.266-2.303 4.503-3.565zM4.125 4.633v6.844c0 0.763 1.686 2.259 5.065 4.142 3.379-1.859 5.060-3.351 5.060-4.142v-6.844c-2.073-0.032-3.774-0.577-5.067-1.65-1.303 1.071-3.001 1.616-5.058 1.65z"></path>
  </symbol>

  <symbol id="icon-logout" viewBox="0 0 18 18">
    <title>logout</title>
    <path d="M2.838 4.823c0 0.518-0.42 0.937-0.937 0.937s-0.937-0.42-0.937-0.937v-0.91c0-1.76 1.427-3.187 3.187-3.187h9.661c1.76 0 3.187 1.427 3.187 3.187v10.276c0 1.76-1.427 3.187-3.187 3.187h-9.661c-1.76 0-3.187-1.427-3.187-3.187v-0.857c0-0.518 0.42-0.937 0.937-0.937s0.937 0.42 0.937 0.937v0.857c0 0.725 0.588 1.313 1.313 1.313h9.661c0.725 0 1.313-0.588 1.313-1.313v-10.276c0-0.725-0.588-1.313-1.313-1.313h-9.661c-0.725 0-1.313 0.588-1.313 1.313v0.91zM4.926 10.015c-0.518 0-0.937-0.42-0.937-0.937s0.42-0.937 0.937-0.937h6.961c0.518 0 0.937 0.42 0.937 0.937s-0.42 0.937-0.937 0.937h-6.961zM3.11 9.059l2.521 3.131c0.325 0.403 0.261 0.993-0.142 1.318s-0.993 0.261-1.318-0.142l-3.001-3.727c-0.279-0.347-0.276-0.842 0.007-1.185l3.004-3.64c0.33-0.399 0.92-0.456 1.32-0.126s0.456 0.92 0.126 1.32l-2.517 3.050z"></path>
  </symbol>
</svg>
