<svg xmlns="http://www.w3.org/2000/svg" xmlns:xlink="http://www.w3.org/1999/xlink" viewBox="0 0 320 320">
  <symbol id="icon-authorization_selected" viewBox="0 0 18 18">
    <title>authorization_selected</title>
    <path d="M3 3.487c2.657 0.156 4.657-0.507 6-1.987 1.32 1.48 3.32 2.143 6 1.987 0 3.872 0 6.473 0 7.802s-2 3.066-6 5.21c-4-2.174-6-3.911-6-5.21s0-3.9 0-7.802zM12.377 6c-2.237 1.262-3.849 2.856-4.503 3.565l-1.681-1.212c-0.045-0.029-0.967 0.725-0.943 0.748l3.061 2.865c0.022 0.023 0.054 0.034 0.087 0.034 0.007 0 0.016 0 0.024-0.002 0.040-0.008 0.074-0.033 0.089-0.070 0.493-1.161 2.121-3.59 4.2-5.352 0.037-0.032 0.050-0.083 0.029-0.127-0-0-0.333-0.466-0.364-0.449z"></path>
  </symbol>
  <symbol id="icon-authorization_unselected" viewBox="0 0 18 18">
    <title>authorization_unselected</title>
    <path d="M12.38 5.861v0c0.293-0.054 0.293-0.054 0.378 0.002 0.053 0.035 0.053 0.035 0.080 0.058 0.024 0.022 0.048 0.047 0.074 0.077 0.037 0.042 0.080 0.097 0.131 0.163 0.009 0.012 0.009 0.012 0.018 0.024 0.104 0.137 0.138 0.184 0.121 0.175l0.086 0.117c0.093 0.198 0.038 0.427-0.127 0.572-1.773 1.503-3.502 3.812-4.095 5.208-0.064 0.157-0.201 0.263-0.352 0.294-0.033 0.007-0.033 0.007-0.057 0.009-0.038 0.002-0.038 0.002-0.052 0.002-0.132 0-0.261-0.049-0.343-0.135l-3.064-2.868c-0.099-0.499-0.099-0.499-0.028-0.517 0.030-0.035 0.030-0.035 0.055-0.060 0.029-0.029 0.068-0.064 0.116-0.107 0.088-0.077 0.206-0.176 0.327-0.273 0.127-0.103 0.249-0.196 0.343-0.265 0.055-0.040 0.102-0.072 0.141-0.096 0.035-0.021 0.035-0.021 0.084-0.044 0.058-0.041 0.058-0.041 0.384 0.038l1.414 1.020c1.143-1.192 2.629-2.414 4.366-3.395zM12.749 6.515c-0 0-0.061-0.109-0.184-0.327l0.184 0.327zM8.337 10.007l-0.225 0.244-1.744-1.258c-0.072 0.054-0.159 0.122-0.248 0.194-0.044 0.035-0.087 0.071-0.128 0.105l2.512 2.352c0.697-1.423 2.224-3.44 3.84-4.892-1.604 0.963-2.971 2.136-4.006 3.256zM8.353 11.969c0.001-0.001 0.001-0.002 0.002-0.004-0.001 0.001-0.001 0.002-0.002 0.004zM8.769 11.894c-0.007-0.007-0.015-0.014-0.022-0.021l0.022 0.021zM2.25 3.675c0-0.539 0.454-0.967 0.992-0.936 2.393 0.14 4.116-0.431 5.251-1.681 0.374-0.412 1.023-0.41 1.394 0.006 1.11 1.245 2.831 1.815 5.246 1.675 0.538-0.031 0.992 0.397 0.992 0.936v7.802c0 1.833-2.172 3.719-6.495 6.037-0.278 0.149-0.613 0.148-0.891-0.003-4.324-2.35-6.49-4.231-6.49-6.034v-7.802zM12.564 6.188c0.031-0.017 0.363 0.448 0.364 0.449 0.020 0.044 0.007 0.094-0.029 0.127-2.079 1.762-3.707 4.192-4.2 5.352-0.015 0.037-0.049 0.062-0.089 0.070-0.008 0.002-0.018 0.002-0.024 0.002-0.033 0-0.064-0.011-0.087-0.034l-3.061-2.865c-0.025-0.023 0.898-0.777 0.943-0.748l1.681 1.212c0.655-0.708 2.266-2.303 4.503-3.565zM4.125 4.633v6.844c0 0.763 1.686 2.259 5.065 4.142 3.379-1.859 5.060-3.351 5.060-4.142v-6.844c-2.073-0.032-3.774-0.577-5.067-1.65-1.303 1.071-3.001 1.616-5.058 1.65z"></path>
  </symbol>
</svg>
