<svg xmlns="http://www.w3.org/2000/svg" xmlns:xlink="http://www.w3.org/1999/xlink" viewBox="0 0 320 320">
  <symbol id="icon-task_approved" viewBox="0 0 13 18">
    <title>task_approved</title>
    <path d="M9.679 12.768c-0.011 0-0.023 0-0.034 0l-0.758-0.029-0.562 0.509c-0.176 0.159-0.404 0.247-0.641 0.247-0.124 0-0.247-0.023-0.362-0.071l-0.702-0.287-0.702 0.287c-0.115 0.048-0.237 0.071-0.362 0.071-0.237 0-0.465-0.088-0.641-0.247l-0.562-0.509-0.757 0.029c-0.011 0-0.023 0-0.034 0-0.356 0-0.679-0.195-0.845-0.511l-0.354-0.671-0.029-0.010v5.924c0 0.356 0.375 0.587 0.692 0.427l3.382-1.699c0.136-0.067 0.295-0.067 0.43 0l3.376 1.701c0.318 0.161 0.692-0.071 0.692-0.427v-5.924l-0.029 0.010-0.354 0.671c-0.165 0.314-0.49 0.509-0.846 0.509z"></path>
    <path d="M13.145 6.764c0.098-0.155 0.098-0.352 0-0.509l-0.404-0.643c-0.067-0.105-0.088-0.233-0.063-0.354l0.161-0.742c0.038-0.18-0.029-0.365-0.174-0.478l-0.599-0.465c-0.098-0.077-0.163-0.187-0.18-0.312l-0.105-0.752c-0.025-0.182-0.153-0.333-0.327-0.39l-0.721-0.233c-0.119-0.038-0.218-0.122-0.275-0.231l-0.354-0.671c-0.082-0.157-0.247-0.254-0.423-0.254-0.006 0-0.011 0-0.017 0l-0.758 0.029c-0.006 0-0.011 0-0.017 0-0.119 0-0.233-0.044-0.321-0.124l-0.562-0.509c-0.090-0.080-0.205-0.124-0.321-0.124-0.061 0-0.122 0.011-0.18 0.036l-0.702 0.287c-0.057 0.023-0.119 0.036-0.18 0.036s-0.122-0.011-0.18-0.036l-0.702-0.287c-0.059-0.023-0.121-0.036-0.18-0.036-0.117 0-0.231 0.042-0.321 0.124l-0.562 0.509c-0.088 0.080-0.203 0.124-0.321 0.124-0.006 0-0.011 0-0.017 0l-0.757-0.029c-0.006 0-0.011 0-0.017 0-0.176 0-0.34 0.098-0.423 0.254l-0.354 0.671c-0.057 0.111-0.157 0.193-0.275 0.231l-0.721 0.233c-0.174 0.055-0.302 0.208-0.327 0.39l-0.105 0.752c-0.017 0.124-0.082 0.235-0.18 0.312l-0.606 0.465c-0.145 0.113-0.212 0.298-0.174 0.478l0.161 0.742c0.027 0.122 0.004 0.249-0.063 0.354l-0.404 0.643c-0.098 0.155-0.098 0.352 0 0.509l0.404 0.643c0.067 0.105 0.088 0.233 0.063 0.354l-0.161 0.742c-0.038 0.18 0.029 0.365 0.174 0.478l0.599 0.465c0.098 0.077 0.163 0.187 0.18 0.312l0.105 0.752c0.025 0.182 0.153 0.333 0.327 0.39l0.547 0.176 0.176 0.057c0.119 0.038 0.218 0.122 0.275 0.231l0.354 0.671c0.082 0.157 0.247 0.254 0.423 0.254 0.006 0 0.011 0 0.017 0l0.757-0.029c0.006 0 0.011 0 0.017 0 0.119 0 0.233 0.044 0.321 0.124l0.562 0.509c0.090 0.080 0.205 0.124 0.321 0.124 0.061 0 0.122-0.011 0.18-0.036l0.702-0.287c0.057-0.023 0.119-0.036 0.18-0.036s0.122 0.011 0.18 0.036l0.702 0.287c0.059 0.023 0.121 0.036 0.18 0.036 0.117 0 0.231-0.042 0.321-0.124l0.562-0.509c0.088-0.080 0.203-0.124 0.321-0.124 0.006 0 0.011 0 0.017 0l0.758 0.029c0.006 0 0.011 0 0.017 0 0.176 0 0.34-0.098 0.423-0.254l0.354-0.671c0.057-0.111 0.157-0.193 0.275-0.231l0.176-0.057 0.547-0.176c0.174-0.055 0.302-0.208 0.327-0.39l0.105-0.752c0.017-0.124 0.082-0.235 0.18-0.312l0.599-0.465c0.145-0.113 0.212-0.298 0.174-0.478l-0.161-0.742c-0.027-0.122-0.004-0.249 0.063-0.354l0.407-0.643zM11.246 8.464c-0.098 0.228-0.208 0.448-0.337 0.658-0.207 0.339-0.453 0.654-0.738 0.937-0.461 0.461-0.999 0.823-1.595 1.075-0.62 0.262-1.278 0.394-1.955 0.394s-1.335-0.132-1.955-0.394c-0.599-0.252-1.134-0.614-1.595-1.075-0.285-0.285-0.532-0.599-0.738-0.937-0.128-0.21-0.241-0.428-0.337-0.658-0.262-0.62-0.394-1.278-0.394-1.955s0.132-1.335 0.394-1.955c0.252-0.599 0.614-1.134 1.075-1.595s0.999-0.823 1.595-1.075c0.62-0.262 1.278-0.394 1.955-0.394s1.335 0.132 1.955 0.394c0.599 0.252 1.134 0.614 1.595 1.075s0.823 0.999 1.075 1.595c0.262 0.62 0.394 1.278 0.394 1.955s-0.132 1.335-0.394 1.955z"></path>
    <path d="M6.619 2.062c2.456 0 4.447 1.991 4.447 4.447 0 0.407-0.055 0.803-0.159 1.178-0.516 1.884-2.242 3.269-4.289 3.269s-3.772-1.385-4.289-3.269c-0.103-0.375-0.159-0.771-0.159-1.178 0-2.456 1.991-4.447 4.447-4.447zM6.462 4.007l-2.428 0.843c-0.111 0.039-0.18 0.148-0.168 0.265 0.070 0.671 0.46 2.862 2.622 4.284 0.084 0.055 0.196 0.055 0.279 0 2.161-1.422 2.552-3.613 2.622-4.284 0.012-0.117-0.057-0.227-0.168-0.265l-2.428-0.843c-0.107-0.037-0.223-0.037-0.33 0zM6.409 7.557c-0.072 0-0.145-0.028-0.2-0.083l-0.971-0.97c-0.11-0.11-0.11-0.289 0-0.4s0.289-0.11 0.4 0l0.771 0.771 1.325-1.325c0.11-0.11 0.289-0.11 0.4 0s0.11 0.289 0 0.4l-1.525 1.525c-0.055 0.055-0.128 0.083-0.2 0.083z"></path>
  </symbol>
  <symbol id="icon-task_reject" viewBox="0 0 13 18">
    <title>task_reject</title>
    <path d="M9.69 12.782c-0.011 0-0.023 0-0.034 0l-0.758-0.029-0.563 0.509c-0.176 0.159-0.404 0.247-0.641 0.247-0.124 0-0.247-0.023-0.362-0.071l-0.703-0.287-0.703 0.287c-0.115 0.048-0.237 0.071-0.362 0.071-0.237 0-0.465-0.088-0.641-0.247l-0.563-0.509-0.758 0.029c-0.011 0-0.023 0-0.034 0-0.356 0-0.68-0.195-0.846-0.511l-0.354-0.672-0.029-0.010v5.93c0 0.356 0.375 0.588 0.693 0.427l3.386-1.7c0.136-0.067 0.295-0.067 0.431 0l3.38 1.702c0.318 0.161 0.693-0.071 0.693-0.427v-5.93l-0.029 0.010-0.354 0.672c-0.165 0.314-0.49 0.509-0.846 0.509z"></path>
    <path d="M13.159 6.771c0.098-0.155 0.098-0.352 0-0.509l-0.404-0.643c-0.067-0.105-0.088-0.234-0.063-0.354l0.161-0.743c0.038-0.18-0.029-0.366-0.174-0.479l-0.599-0.465c-0.098-0.077-0.163-0.188-0.18-0.312l-0.105-0.753c-0.025-0.182-0.153-0.333-0.327-0.391l-0.722-0.234c-0.119-0.038-0.218-0.123-0.276-0.232l-0.354-0.672c-0.082-0.157-0.247-0.255-0.423-0.255-0.006 0-0.011 0-0.017 0l-0.758 0.029c-0.006 0-0.011 0-0.017 0-0.119 0-0.234-0.044-0.322-0.124l-0.563-0.509c-0.090-0.080-0.205-0.124-0.322-0.124-0.061 0-0.123 0.011-0.18 0.036l-0.703 0.287c-0.057 0.023-0.119 0.036-0.18 0.036s-0.123-0.011-0.18-0.036l-0.703-0.287c-0.059-0.023-0.121-0.036-0.18-0.036-0.117 0-0.232 0.042-0.322 0.124l-0.563 0.509c-0.088 0.080-0.203 0.124-0.322 0.124-0.006 0-0.012 0-0.017 0l-0.758-0.029c-0.006 0-0.012 0-0.017 0-0.176 0-0.341 0.098-0.423 0.255l-0.354 0.672c-0.057 0.111-0.157 0.193-0.276 0.232l-0.722 0.234c-0.174 0.056-0.303 0.209-0.327 0.391l-0.105 0.753c-0.017 0.124-0.082 0.236-0.18 0.312l-0.607 0.465c-0.146 0.113-0.213 0.299-0.174 0.479l0.161 0.743c0.027 0.123 0.004 0.249-0.063 0.354l-0.404 0.643c-0.098 0.155-0.098 0.352 0 0.509l0.404 0.643c0.067 0.105 0.088 0.234 0.063 0.354l-0.161 0.743c-0.038 0.18 0.029 0.366 0.174 0.479l0.599 0.465c0.098 0.077 0.163 0.188 0.18 0.312l0.105 0.753c0.025 0.182 0.153 0.333 0.327 0.391l0.548 0.176 0.176 0.057c0.119 0.038 0.218 0.123 0.276 0.232l0.354 0.672c0.082 0.157 0.247 0.255 0.423 0.255 0.006 0 0.011 0 0.017 0l0.758-0.029c0.006 0 0.011 0 0.017 0 0.119 0 0.234 0.044 0.322 0.124l0.563 0.509c0.090 0.080 0.205 0.124 0.322 0.124 0.061 0 0.123-0.011 0.18-0.036l0.703-0.287c0.057-0.023 0.119-0.036 0.18-0.036s0.123 0.011 0.18 0.036l0.703 0.287c0.059 0.023 0.121 0.036 0.18 0.036 0.117 0 0.232-0.042 0.322-0.124l0.563-0.509c0.088-0.080 0.203-0.124 0.322-0.124 0.006 0 0.011 0 0.017 0l0.758 0.029c0.006 0 0.011 0 0.017 0 0.176 0 0.341-0.098 0.423-0.255l0.354-0.672c0.057-0.111 0.157-0.193 0.276-0.232l0.176-0.057 0.548-0.176c0.174-0.056 0.303-0.209 0.327-0.391l0.105-0.753c0.017-0.124 0.082-0.236 0.18-0.312l0.599-0.465c0.146-0.113 0.213-0.299 0.174-0.479l-0.161-0.743c-0.027-0.123-0.004-0.249 0.063-0.354l0.408-0.643zM11.258 8.473c-0.098 0.228-0.209 0.448-0.337 0.659-0.207 0.339-0.454 0.655-0.739 0.938-0.462 0.461-1 0.823-1.597 1.076-0.62 0.262-1.279 0.394-1.957 0.394s-1.337-0.132-1.957-0.394c-0.599-0.253-1.136-0.615-1.597-1.076-0.285-0.285-0.532-0.599-0.739-0.938-0.128-0.211-0.241-0.429-0.337-0.659-0.262-0.62-0.394-1.279-0.394-1.957s0.132-1.337 0.394-1.957c0.253-0.599 0.615-1.136 1.076-1.597s1-0.823 1.597-1.076c0.62-0.262 1.279-0.394 1.957-0.394s1.337 0.132 1.957 0.394c0.599 0.253 1.136 0.615 1.597 1.076s0.823 1 1.076 1.597c0.262 0.62 0.394 1.279 0.394 1.957s-0.132 1.337-0.394 1.957z"></path>
    <path d="M6.626 2.064c-2.459 0-4.452 1.993-4.452 4.452 0 0.408 0.056 0.804 0.159 1.18 0.517 1.886 2.244 3.273 4.293 3.273s3.776-1.386 4.293-3.273c0.103-0.375 0.159-0.772 0.159-1.18 0-2.459-1.993-4.452-4.452-4.452zM4.117 6.013h5.132c0.159 0 0.287 0.129 0.287 0.287v0.728c0 0.159-0.129 0.287-0.287 0.287h-5.132c-0.159 0-0.287-0.129-0.287-0.287v-0.728c0-0.159 0.129-0.287 0.287-0.287z"></path>
  </symbol>
  <symbol id="icon-task_under_way" viewBox="0 0 18 18">
    <title>task_under_way</title>
    <path d="M12.064 12.782c-0.011 0-0.023 0-0.034 0l-0.758-0.029-0.563 0.509c-0.176 0.159-0.404 0.247-0.641 0.247-0.124 0-0.247-0.023-0.362-0.071l-0.703-0.287-0.703 0.287c-0.115 0.048-0.237 0.071-0.362 0.071-0.237 0-0.465-0.088-0.641-0.247l-0.563-0.509-0.758 0.029c-0.011 0-0.023 0-0.034 0-0.356 0-0.68-0.195-0.846-0.511l-0.354-0.672-0.029-0.010v5.93c0 0.356 0.375 0.588 0.693 0.427l3.385-1.7c0.136-0.067 0.295-0.067 0.431 0l3.38 1.702c0.318 0.161 0.693-0.071 0.693-0.427v-5.93l-0.029 0.010-0.354 0.672c-0.165 0.314-0.49 0.509-0.846 0.509z"></path>
    <path d="M15.534 6.771c0.098-0.155 0.098-0.352 0-0.509l-0.404-0.643c-0.067-0.105-0.088-0.234-0.063-0.354l0.161-0.743c0.038-0.18-0.029-0.366-0.174-0.479l-0.599-0.465c-0.098-0.077-0.163-0.188-0.18-0.312l-0.105-0.753c-0.025-0.182-0.153-0.333-0.327-0.391l-0.722-0.234c-0.119-0.038-0.218-0.123-0.276-0.232l-0.354-0.672c-0.082-0.157-0.247-0.255-0.423-0.255-0.006 0-0.011 0-0.017 0l-0.758 0.029c-0.006 0-0.011 0-0.017 0-0.119 0-0.234-0.044-0.322-0.124l-0.563-0.509c-0.090-0.080-0.205-0.124-0.322-0.124-0.061 0-0.123 0.011-0.18 0.036l-0.703 0.287c-0.057 0.023-0.119 0.036-0.18 0.036s-0.123-0.011-0.18-0.036l-0.703-0.287c-0.059-0.023-0.121-0.036-0.18-0.036-0.117 0-0.232 0.042-0.322 0.124l-0.563 0.509c-0.088 0.080-0.203 0.124-0.322 0.124-0.006 0-0.012 0-0.017 0l-0.758-0.029c-0.006 0-0.012 0-0.017 0-0.176 0-0.341 0.098-0.423 0.255l-0.354 0.672c-0.057 0.111-0.157 0.193-0.276 0.232l-0.722 0.234c-0.174 0.056-0.303 0.209-0.327 0.391l-0.105 0.753c-0.017 0.124-0.082 0.236-0.18 0.312l-0.607 0.465c-0.146 0.113-0.213 0.299-0.174 0.479l0.161 0.743c0.027 0.123 0.004 0.249-0.063 0.354l-0.404 0.643c-0.098 0.155-0.098 0.352 0 0.509l0.404 0.643c0.067 0.105 0.088 0.234 0.063 0.354l-0.161 0.743c-0.038 0.18 0.029 0.366 0.174 0.479l0.599 0.465c0.098 0.077 0.163 0.188 0.18 0.312l0.105 0.753c0.025 0.182 0.153 0.333 0.327 0.391l0.548 0.176 0.176 0.057c0.119 0.038 0.218 0.123 0.276 0.232l0.354 0.672c0.082 0.157 0.247 0.255 0.423 0.255 0.006 0 0.011 0 0.017 0l0.758-0.029c0.006 0 0.011 0 0.017 0 0.119 0 0.234 0.044 0.322 0.124l0.563 0.509c0.090 0.080 0.205 0.124 0.322 0.124 0.061 0 0.123-0.011 0.18-0.036l0.703-0.287c0.057-0.023 0.119-0.036 0.18-0.036s0.123 0.011 0.18 0.036l0.703 0.287c0.059 0.023 0.121 0.036 0.18 0.036 0.117 0 0.232-0.042 0.322-0.124l0.563-0.509c0.088-0.080 0.203-0.124 0.322-0.124 0.006 0 0.011 0 0.017 0l0.758 0.029c0.006 0 0.011 0 0.017 0 0.176 0 0.341-0.098 0.423-0.255l0.354-0.672c0.057-0.111 0.157-0.193 0.276-0.232l0.176-0.057 0.548-0.176c0.174-0.056 0.303-0.209 0.327-0.391l0.105-0.753c0.017-0.124 0.082-0.236 0.18-0.312l0.599-0.465c0.146-0.113 0.213-0.299 0.174-0.479l-0.161-0.743c-0.027-0.123-0.004-0.249 0.063-0.354l0.408-0.643zM13.632 8.473c-0.098 0.228-0.209 0.448-0.337 0.659-0.207 0.339-0.454 0.655-0.739 0.938-0.461 0.461-1 0.823-1.597 1.076-0.62 0.262-1.279 0.394-1.957 0.394s-1.337-0.132-1.957-0.394c-0.599-0.253-1.136-0.615-1.597-1.076-0.285-0.285-0.532-0.599-0.739-0.938-0.128-0.211-0.241-0.429-0.337-0.659-0.262-0.62-0.394-1.279-0.394-1.957s0.132-1.337 0.394-1.957c0.253-0.599 0.615-1.136 1.076-1.597s1-0.823 1.597-1.076c0.62-0.262 1.279-0.394 1.957-0.394s1.337 0.132 1.957 0.394c0.599 0.253 1.136 0.615 1.597 1.076s0.823 1 1.076 1.597c0.262 0.62 0.394 1.279 0.394 1.957s-0.132 1.337-0.394 1.957z"></path>
    <path d="M9 2.064c-2.459 0-4.452 1.993-4.452 4.452 0 0.408 0.056 0.804 0.159 1.18 0.517 1.886 2.244 3.273 4.293 3.273s3.776-1.386 4.293-3.273c0.103-0.375 0.159-0.772 0.159-1.18 0-2.459-1.993-4.452-4.452-4.452zM10.982 8.579c0.086 0.404-0.345 0.72-0.705 0.515l-1.277-0.724-1.279 0.724c-0.358 0.203-0.791-0.113-0.705-0.515l0.306-1.444-1-0.902-0.111-0.101c-0.304-0.276-0.144-0.781 0.262-0.831l1.455-0.178 0.634-1.358c0.172-0.368 0.695-0.368 0.867 0l0.634 1.358 1.455 0.178c0.408 0.050 0.567 0.555 0.262 0.831l-0.111 0.101-1 0.902 0.31 1.444z"></path>
  </symbol>
  <symbol id="icon-vs" viewBox="0 0 14 18">
    <title>vs</title>
    <path d="M13.489 5.844c0.054 0.639-0.126 1.216-0.468 1.747-0.126 0.207-0.306 0.369-0.522 0.468-0.252 0.135-0.558 0.090-0.756-0.099-0.162-0.135-0.315-0.279-0.477-0.423-0.297-0.252-0.648-0.432-1.026-0.513-0.072-0.018-0.153-0.054-0.225-0.054-0.117 0.018-0.225 0.045-0.333 0.081-0.027 0.018-0.054 0.045-0.063 0.072-0.009 0.054-0.045 0.108-0.099 0.135-0.189 0.108-0.378 0.198-0.549 0.324-0.396 0.297-0.567 0.702-0.477 1.18 0.054 0.288 0.243 0.468 0.531 0.558 0.090 0.027 0.189 0.072 0.279 0.099 0.018 0.009 0.027 0.009 0.045 0.009 0.396 0.036 0.792 0.072 1.18 0.108 0.117 0.009 0.234 0 0.351 0.009 0.054 0.009 0.108 0.027 0.162 0.054 0.027 0.009 0.054 0.009 0.090 0.018 0.711 0 1.324 0.243 1.801 0.774 0.216 0.234 0.333 0.504 0.324 0.819-0.009 0.099-0.036 0.198-0.063 0.288-0.018 0.081-0.036 0.153-0.045 0.234 0 0.036-0.018 0.072-0.054 0.090-0.063 0.036-0.117 0.081-0.162 0.135-0.099 0.153-0.216 0.288-0.351 0.414-0.027 0.027-0.045 0.054-0.072 0.081-0.261 0.333-0.63 0.522-0.972 0.747-0.099 0.063-0.198 0.117-0.306 0.171-0.063 0.027-0.135 0.036-0.207 0.054-0.045 0.009-0.081 0.018-0.117 0.045l-0.594 0.405c-0.054 0.027-0.108 0.072-0.153 0.117-0.090 0.144-0.243 0.198-0.387 0.261-0.027 0.009-0.045 0.027-0.054 0.045l0.441-0.099 0.009 0.009-0.090 0.054c-0.441 0.279-0.882 0.558-1.324 0.828-0.27 0.162-0.54 0.324-0.81 0.477-0.072 0.036-0.144 0.072-0.225 0.099-0.018 0-0.027 0.009-0.045 0.018-0.162 0.153-0.36 0.225-0.576 0.261-0.288 0.054-0.576 0.090-0.864 0.126-0.054 0.009-0.117 0.018-0.171 0.009 0.045-0.045 0.090-0.090 0.144-0.126l0.567-0.324c0.144-0.081 0.288-0.162 0.432-0.252 0.054-0.036 0.090-0.072 0.135-0.126-0.090-0.018-0.189 0-0.27 0.045-0.18 0.090-0.369 0.171-0.558 0.243-0.153 0.063-0.315 0.126-0.468 0.189-0.126 0.054-0.243 0.126-0.36 0.189-0.126 0.063-0.261 0.099-0.396 0.108-0.225 0.009-0.423 0.117-0.63 0.207-0.162 0.072-0.324 0.153-0.486 0.225l-0.009-0.018 0.288-0.234c-0.18-0.018-0.36 0.009-0.531 0.081-0.576 0.27-1.153 0.531-1.729 0.801-0.261 0.126-0.522 0.279-0.774 0.432-0.126 0.081-0.252 0.18-0.369 0.27-0.045 0.036-0.117 0.045-0.171 0.018-0.072-0.018-0.144-0.018-0.216 0-0.153 0.045-0.306 0.099-0.459 0.153-0.063 0.018-0.126 0.036-0.198 0.036 0.135-0.117 0.252-0.243 0.414-0.324 0.261-0.126 0.513-0.261 0.774-0.387 0.072-0.036 0.108-0.072 0.072-0.153-0.189 0-0.351 0.081-0.513 0.171l-0.018-0.018c0.009-0.009 0.027-0.009 0.036-0.018 0.018-0.009 0.036-0.027 0.054-0.036 0.162-0.153 0.369-0.252 0.585-0.297 0.216-0.063 0.423-0.144 0.621-0.225 0.225-0.090 0.45-0.171 0.684-0.252-0.072 0.045-0.135 0.099-0.216 0.144-0.090 0.045-0.18 0.090-0.279 0.126-0.027 0-0.054 0.018-0.063 0.045-0.018 0.018-0.018 0.045-0.018 0.072 0.153 0.027 0.297-0.045 0.441-0.090 0.117-0.036 0.216-0.108 0.297-0.198 0.063-0.063 0.135-0.117 0.216-0.162 0.045-0.027 0.054-0.054 0.036-0.099-0.009-0.018-0.018-0.036-0.009-0.054s0.018-0.036 0.036-0.045c0.036-0.018 0.072-0.045 0.108-0.063 0.171-0.090 0.342-0.171 0.513-0.261 0.081-0.045 0.18-0.063 0.27-0.027 0.027 0.009 0.054 0.018 0.081 0.018 0.117 0.027 0.243 0 0.351-0.063 0.153-0.090 0.324-0.144 0.495-0.216 0.072-0.027 0.135-0.063 0.198-0.108 0.045-0.045 0.090-0.090 0.135-0.144l-0.018-0.027c-0.054 0-0.117 0.009-0.171 0.018-0.144 0.054-0.288 0.117-0.432 0.18-0.135 0.063-0.27 0.135-0.396 0.198h0.081v0.018l-0.459 0.081v-0.009c0.153-0.081 0.306-0.171 0.468-0.252 0.108-0.054 0.207-0.117 0.315-0.171 0.144-0.081 0.261-0.189 0.351-0.315 0.027-0.045 0.072-0.063 0.126-0.063 0.171-0.009 0.342-0.045 0.468-0.162 0.018-0.027 0.045-0.054 0.054-0.090-0.009-0.009-0.009-0.018-0.018-0.027-0.162 0.027-0.324 0.045-0.486 0.072-0.288 0.054-0.567 0.153-0.837 0.288-0.144 0.072-0.18 0.117-0.234 0.27-0.027 0-0.054 0-0.081-0.009-0.063-0.009-0.126-0.018-0.162 0.054-0.018 0.018-0.036 0.027-0.063 0.036-0.459 0.144-0.909 0.279-1.369 0.423-0.036 0.009-0.072 0.018-0.108 0.009 0.018-0.009 0.036-0.027 0.045-0.036 0.378-0.297 0.756-0.594 1.126-0.9 0.090-0.072 0.171-0.162 0.297-0.144 0.018 0 0.036-0.009 0.054-0.018 0.090-0.036 0.198-0.045 0.288-0.027 0.297 0.054 0.594 0.045 0.864-0.108 0.009 0 0.009-0.009 0.018-0.009 0.081-0.063 0.18-0.108 0.288-0.108 0.18-0.009 0.306-0.144 0.414-0.279 0-0.027-0.018-0.063-0.036-0.081-0.036-0.009-0.072-0.018-0.099-0.018 0.117-0.072 0.234-0.135 0.351-0.216 0.072-0.045 0.144-0.099 0.216-0.153 0.441-0.405 0.945-0.747 1.477-1.008 0.162-0.081 0.333-0.117 0.495-0.18 0.081-0.036 0.153-0.072 0.225-0.117 0.216-0.117 0.432-0.243 0.648-0.36 0.396-0.207 0.792-0.396 1.144-0.684 0.216-0.171 0.405-0.378 0.603-0.576 0.072-0.063 0.027-0.216-0.063-0.279s-0.18-0.117-0.261-0.18c-0.135-0.099-0.297-0.126-0.45-0.153-0.432-0.072-0.873-0.081-1.315-0.099-0.288-0.009-0.585-0.054-0.864-0.135-0.252-0.063-0.468-0.216-0.621-0.432-0.036-0.045-0.081-0.090-0.126-0.126-0.108-0.117-0.18-0.252-0.207-0.405-0.054-0.234-0.045-0.468-0.018-0.693 0.054-0.594 0.333-1.089 0.702-1.549 0.207-0.261 0.468-0.468 0.702-0.702l0.027-0.027c0.261-0.153 0.495-0.342 0.783-0.468 0.279-0.126 0.567-0.225 0.864-0.297 0.324-0.063 0.657-0.054 0.981 0.018 0.135 0.027 0.27 0.054 0.405 0.072 0.189 0.027 0.387 0.009 0.567-0.054 0.243-0.081 0.486-0.162 0.729-0.261 0.117-0.063 0.225-0.126 0.333-0.207l0.018 0.153 0.423-0.36c0.045 0.072 0.090 0.135 0.135 0.207 0.009 0.018 0.009 0.036 0.009 0.054-0.045 0.333-0.045 0.639-0.018 0.936zM9.176 14.605l0.414-0.225c-0.207 0.018-0.387 0.117-0.414 0.225zM9.383 0.495c-0.009 0.018-0.027 0.045-0.027 0.072-0.009 0.198-0.126 0.351-0.207 0.522-0.117 0.252-0.252 0.513-0.369 0.765-0.009 0.009-0.009 0.018-0.009 0.036l0.018 0.009 0.396-0.567c0 0.144 0.009 0.288-0.072 0.414-0.072 0.117-0.135 0.234-0.198 0.36-0.018 0.036-0.036 0.081-0.036 0.117-0.018 0.126-0.027 0.252-0.081 0.369-0.009 0.036-0.009 0.081 0.009 0.117l0.027 0.018c0.036-0.027 0.072-0.063 0.108-0.099 0.072-0.108 0.144-0.225 0.216-0.333 0.027-0.027 0.063-0.054 0.099-0.072 0.027-0.018 0.063-0.027 0.099-0.045-0.009 0.099 0.009 0.198-0.054 0.288-0.108 0.153-0.198 0.324-0.27 0.504-0.018 0.063-0.063 0.108-0.090 0.162-0.054 0.117-0.099 0.234-0.144 0.351-0.117 0.369-0.315 0.693-0.531 1.008-0.468 0.675-0.81 1.405-1.117 2.152-0.414 1.026-0.747 2.080-0.999 3.151-0.117 0.477-0.198 0.954-0.243 1.441-0.018 0.189 0 0.378-0.009 0.567-0.009 0.144-0.027 0.297-0.054 0.441-0.054 0.225-0.225 0.342-0.45 0.369-0.189 0.018-0.378 0-0.558-0.045-0.018-0.009-0.036-0.018-0.045-0.045-0.027-0.18-0.108-0.342-0.234-0.459-0.135-0.144-0.288-0.27-0.441-0.396-0.189-0.144-0.279-0.306-0.252-0.54 0.018-0.126 0.018-0.243 0.027-0.369 0.018-0.234 0-0.468-0.072-0.684l-0.261-0.963c-0.009-0.018-0.009-0.027 0-0.045l0.234 0.549 0.036-0.009c0-0.063 0-0.117-0.009-0.18-0.063-0.351-0.198-0.684-0.315-1.026-0.126-0.378-0.333-0.72-0.513-1.071-0.063-0.117-0.108-0.234-0.171-0.351l0.036 0.27-0.018 0.009c-0.036-0.081-0.072-0.171-0.099-0.252-0.162-0.423-0.333-0.846-0.495-1.27-0.036-0.108-0.099-0.207-0.189-0.279-0.036-0.027-0.027-0.108-0.045-0.171 0 0-0.027-0.009-0.045-0.018-0.108-0.018-0.198-0.081-0.261-0.171-0.045-0.063-0.117-0.099-0.18-0.144-0.018-0.009-0.027-0.027-0.036-0.054 0.036-0.162-0.027-0.297-0.108-0.432-0.054-0.054-0.045-0.144 0.009-0.198 0.099-0.117 0.108-0.261 0.117-0.405 0-0.036 0.009-0.063 0.009-0.099-0.009-0.063 0.027-0.117 0.072-0.153 0.072-0.054 0.117-0.135 0.117-0.225s0.054-0.162 0.135-0.198c0.045-0.018 0.063-0.063 0.063-0.108v-0.261c0.081 0.018 0.162 0.045 0.243 0.072 0.135 0.072 0.306 0.045 0.405-0.081 0.072-0.090 0.135-0.090 0.234-0.027 0.099 0.072 0.225 0.090 0.333 0.045 0.018-0.009 0.036-0.009 0.045-0.009 0.135-0.027 0.144-0.018 0.171 0.108 0 0.018 0.009 0.036 0.018 0.063l0.126-0.009c0.036 0.081 0.063 0.171 0.117 0.216 0.18 0.153 0.234 0.342 0.261 0.567 0.036 0.306 0.099 0.603 0.153 0.909 0.108 0.594 0.288 1.162 0.45 1.747 0.153 0.549 0.315 1.108 0.468 1.657 0.009 0.018 0.018 0.045 0.027 0.090 0.036-0.036 0.063-0.081 0.090-0.126 0.288-0.792 0.567-1.594 0.864-2.386 0.288-0.783 0.576-1.567 0.882-2.35 0.108-0.279 0.27-0.54 0.405-0.81 0.009-0.018 0.027-0.036 0.045-0.054 0.153-0.081 0.153-0.081 0.261-0.243v0.144l0.027 0.018 0.675-0.675-0.117 0.477 0.009 0.009 0.099-0.144c0.198-0.279 0.405-0.549 0.594-0.837 0.207-0.315 0.387-0.648 0.594-0.963 0.063-0.081 0.135-0.153 0.207-0.225l0.018 0.009-0.054 0.099c-0.063 0.153-0.117 0.27-0.171 0.387zM8.672 2.008l-0.189 0.378 0.018 0.009 0.189-0.378c0 0-0.009-0.009-0.018-0.009z"></path>
  </symbol>
  <symbol id="icon-sword" viewBox="0 0 18 18">
    <title>sword</title>
    <path d="M17.775 0.563l-0.113-0.225-0.225-0.112c-0.113 0-2.813-0.9-4.725 1.013l-7.537 7.425c-1.013-0.675-1.913-1.35-2.025-1.125l-0.45 0.337c-0.225 0.225 1.012 1.913 2.025 3.038l-2.813 3.825c-0.338-0.338-0.9-0.338-1.238 0l-0.338 0.338c-0.338 0.338-0.338 0.9 0 1.237l1.125 1.125c0.338 0.338 0.9 0.338 1.238 0l0.337-0.338c0.337-0.337 0.337-0.9 0-1.237l3.938-2.813c1.125 1.013 2.813 2.25 3.038 2.025l0.45-0.45c0.113-0.112-0.45-1.125-1.237-2.025l7.537-7.538c1.912-1.688 1.012-4.388 1.012-4.5zM8.662 11.813l-0.9-0.9 6.975-7.763-7.762 6.975-0.788-0.787 7.312-7.313c1.125-1.125 2.588-0.9 3.262-0.787 0.113 0.675 0.338 2.138-0.787 3.15l-7.313 7.425z"></path>
  </symbol>
  <symbol id="icon-eye" viewBox="0 0 24 24">
    <title>eye</title>
    <path d="M23.9 11.6c-0.2-0.4-4.4-8.6-11.9-8.6s-11.7 8.2-11.9 8.6c-0.1 0.3-0.1 0.6 0 0.9 0.2 0.3 4.4 8.5 11.9 8.5s11.7-8.2 11.9-8.6c0.1-0.2 0.1-0.6 0-0.8zM12 19c-5.4 0-8.9-5.4-9.9-7 0.9-1.6 4.5-7 9.9-7s8.9 5.4 9.9 7c-1 1.6-4.5 7-9.9 7z"></path>
    <path d="M12 8c-2.2 0-4 1.8-4 4s1.8 4 4 4c2.2 0 4-1.8 4-4s-1.8-4-4-4zM12 14c-1.1 0-2-0.9-2-2s0.9-2 2-2c1.1 0 2 0.9 2 2s-0.9 2-2 2z"></path>
  </symbol>
  <symbol id="icon-play" viewBox="0 0 32 32">
    <title>icon-play</title>
    <path d="M16 0c-8.837 0-16 7.163-16 16s7.163 16 16 16 16-7.163 16-16-7.163-16-16-16zM16 29c-7.18 0-13-5.82-13-13s5.82-13 13-13 13 5.82 13 13-5.82 13-13 13zM12 9l12 7-12 7z"></path>
  </symbol>
</svg>
