<svg xmlns="http://www.w3.org/2000/svg" xmlns:xlink="http://www.w3.org/1999/xlink" viewBox="0 0 320 320">
  <symbol id="icon-bitcoin" viewBox="0 0 21 28">
    <title>bitcoin</title>
    <path d="M18.234 10c0.203 2.078-0.672 3.328-2.047 4.031 2.281 0.547 3.719 1.906 3.437 4.953-0.359 3.797-3.172 4.813-7.203 5.031v3.984h-2.406v-3.922c-0.609 0-1.25 0-1.906-0.016v3.938h-2.406v-3.984c-0.562 0-1.125-0.016-1.703-0.016h-3.125l0.484-2.859c1.766 0.031 1.734 0 1.734 0 0.672 0 0.859-0.484 0.906-0.797v-6.281h0.25c-0.094-0.016-0.187-0.016-0.25-0.016v-4.484c-0.094-0.5-0.406-1.062-1.391-1.062 0 0 0.031-0.031-1.734 0v-2.562l3.313 0.016c0.484 0 1 0 1.516-0.016v-3.938h2.406v3.859c0.641-0.016 1.281-0.031 1.906-0.031v-3.828h2.406v3.938c3.094 0.266 5.547 1.219 5.812 4.062zM14.875 18.516c0-3.094-5.094-2.641-6.719-2.641v5.281c1.625 0 6.719 0.344 6.719-2.641zM13.766 11.078c0-2.828-4.25-2.406-5.609-2.406v4.797c1.359 0 5.609 0.313 5.609-2.391z"></path>
  </symbol>
  <symbol id="icon-coin-dollar" viewBox="0 0 32 32">
    <title>coin-dollar</title>
    <path d="M15 2c-8.284 0-15 6.716-15 15s6.716 15 15 15c8.284 0 15-6.716 15-15s-6.716-15-15-15zM15 29c-6.627 0-12-5.373-12-12s5.373-12 12-12c6.627 0 12 5.373 12 12s-5.373 12-12 12zM16 16v-4h4v-2h-4v-2h-2v2h-4v8h4v4h-4v2h4v2h2v-2h4l-0-8h-4zM14 16h-2v-4h2v4zM18 22h-2v-4h2v4z"></path>
  </symbol>
  <symbol id="coin-eth" viewBox="0 0 32 32">
    <title>ethereum</title>
    <path d="M15.925 23.96l-9.819-5.8 9.817 13.84 9.827-13.84-9.825 5.8zM16.075 0l-9.821 16.297 9.82 5.805 9.82-5.8-9.819-16.303z"></path>
  </symbol>
  <symbol id="icon-magnifier" viewBox="0 0 32 32">
    <title>magnifier</title>
    <path d="M29.156 29.961l-0.709 0.709c-0.785 0.784-2.055 0.784-2.838 0l-5.676-5.674c-0.656-0.658-0.729-1.644-0.281-2.412l-3.104-3.102c-1.669 1.238-3.728 1.979-5.965 1.979-5.54 0-10.031-4.491-10.031-10.031s4.491-10.032 10.031-10.032c5.541 0 10.031 4.491 10.031 10.032 0 2.579-0.98 4.923-2.58 6.7l3.035 3.035c0.768-0.447 1.754-0.375 2.41 0.283l5.676 5.674c0.784 0.785 0.784 2.056 0.001 2.839zM18.088 11.389c0-4.155-3.369-7.523-7.524-7.523s-7.524 3.367-7.524 7.523 3.368 7.523 7.523 7.523 7.525-3.368 7.525-7.523z"></path>
  </symbol>
</svg>
