<svg xmlns="http://www.w3.org/2000/svg" xmlns:xlink="http://www.w3.org/1999/xlink" viewBox="0 0 320 320">
  <symbol id="icon-map" viewBox="0 0 32 32">
    <title>map</title>
    <path fill="#776aff" style="fill: var(--color1, #776aff)" d="M4.235 10.188v16.749l2.901-1.469c1.088-0.551 2.361-0.606 3.492-0.152l5.375 2.159 5.421-2.163c1.133-0.452 2.407-0.394 3.494 0.161l2.847 1.452v-16.786l-4.599-3.098-5.173 2.703c-1.268 0.663-2.785 0.64-4.033-0.060l-4.711-2.642-5.014 3.146zM2.764 8.334l5.471-3.433c0.583-0.366 1.32-0.384 1.921-0.047l4.955 2.778c0.555 0.311 1.229 0.321 1.792 0.027l5.421-2.832c0.612-0.32 1.35-0.279 1.923 0.107l5.039 3.394c0.519 0.35 0.831 0.935 0.831 1.561v19.341c0 0.52-0.421 0.941-0.941 0.941-0.149 0-0.295-0.035-0.428-0.103l-4.9-2.499c-0.483-0.246-1.049-0.272-1.553-0.071l-5.596 2.233c-0.449 0.179-0.95 0.179-1.399-0.002l-5.55-2.229c-0.503-0.202-1.069-0.177-1.552 0.067l-4.95 2.507c-0.464 0.235-1.030 0.049-1.265-0.414-0.067-0.132-0.102-0.277-0.102-0.425v-19.306c0-0.648 0.333-1.25 0.882-1.595z"></path>
    <path fill="#fff" style="fill: var(--color2, #fff)" d="M19.983 19.634c0.629 0 7.099-7.673 7.099-11.594s-3.178-7.099-7.099-7.099c-3.921 0-7.099 3.179-7.099 7.099s6.471 11.594 7.099 11.594z"></path>
    <path fill="#776aff" style="fill: var(--color1, #776aff)" d="M8.143 4.969l1.882 0.012-0.143 22.085-1.882-0.012 0.143-22.085zM21.882 20.605c0-0.65 0.527-1.176 1.176-1.176s1.176 0.527 1.176 1.176v5.454c0 0.65-0.527 1.176-1.176 1.176s-1.176-0.527-1.176-1.176v-5.453z"></path>
    <path fill="#776aff" style="fill: var(--color1, #776aff)" d="M19.983 17.675c-0.497 0-5.611-6.065-5.611-9.164s2.512-5.611 5.611-5.611c3.099 0 5.611 2.512 5.611 5.611s-5.114 9.164-5.611 9.164zM20.025 9.642c0.928 0 1.68-0.752 1.68-1.68s-0.752-1.68-1.68-1.68c-0.928 0-1.68 0.752-1.68 1.68s0.752 1.68 1.68 1.68z"></path>
  </symbol>
  <symbol id="icon-marketplace" viewBox="0 0 32 32">
    <title>marketplace</title>
    <path fill="#7769ff" d="M29.388 12.031h-28.108l2.995-7.572c0.499-1.124 1.612-1.849 2.841-1.849h16.436c1.229 0 2.342 0.725 2.841 1.849l2.995 7.572zM21.639 4.556l-4.283 4.281c-0.25 0.25-0.25 0.655-0 0.905s0.655 0.25 0.905 0l4.283-4.281c0.25-0.25 0.25-0.655 0-0.905s-0.655-0.25-0.905-0zM22.637 6.393l-2.22 2.219c-0.25 0.25-0.25 0.655-0 0.905s0.655 0.25 0.905 0l2.22-2.219c0.25-0.25 0.25-0.655 0-0.905s-0.655-0.25-0.905-0z"></path>
    <path fill="#7769ff" d="M8.626 27.488v-7.119c0-0.353 0.287-0.64 0.64-0.64h4.842c0.353 0 0.64 0.287 0.64 0.64v7.119h10.696v-13.204c0-0.442 0.358-0.8 0.8-0.8s0.8 0.358 0.8 0.8v14.004c0 0.442-0.358 0.8-0.8 0.8h-21.767c-0.442 0-0.8-0.358-0.8-0.8v-14.004c0-0.442 0.358-0.8 0.8-0.8s0.8 0.358 0.8 0.8v13.204h3.35z"></path>
    <path fill="#fff" d="M4.365 17.529c-2.634 0-4.365-2.054-4.365-5.966 0-0.407 0.299-0.737 0.668-0.737h29.384c0.369 0 0.668 0.33 0.668 0.737 0 3.611-1.86 5.966-4.365 5.966-1.532 0-2.878-0.765-3.665-2.003-0.787 1.238-2.133 2.003-3.665 2.003s-2.878-0.765-3.665-2.003c-0.787 1.238-2.133 2.003-3.665 2.003s-2.878-0.765-3.665-2.003c-0.787 1.238-2.133 2.003-3.665 2.003zM1.359 12.3c0.172 2.6 1.287 3.754 3.006 3.754 1.532 0 2.754-1.033 3.009-2.526 0.137-0.801 1.176-0.801 1.313 0 0.255 1.493 1.476 2.526 3.009 2.526s2.753-1.033 3.009-2.526c0.137-0.801 1.176-0.801 1.312 0 0.255 1.493 1.476 2.526 3.009 2.526s2.754-1.033 3.009-2.526c0.137-0.801 1.176-0.801 1.313 0 0.255 1.493 1.476 2.526 3.009 2.526 1.568 0 2.791-1.37 2.998-3.754h-27.994z"></path>
    <path fill="#7769ff" d="M22.255 11.908h-20.655c0 3.418 1.685 4.538 3.463 4.538 1.711 0 3.133-1.091 3.432-2.713 0.299 1.623 1.721 2.713 3.432 2.713s3.133-1.091 3.432-2.713c0.299 1.623 1.721 2.713 3.432 2.713s3.133-1.091 3.432-2.714c0.299 1.623 1.721 2.714 3.432 2.714 1.778 0 3.463-1.503 3.463-4.538h-6.865z"></path>
    <path fill="#7769ff" d="M17.197 18.504h5.51v5.51h-5.51v-5.51z"></path>
  </symbol>
  <symbol id="icon-price" viewBox="0 0 42 32">
    <title>price</title>
    <path fill="#edebff" d="M26.24 12.48c0 6.539-5.301 11.84-11.84 11.84s-11.84-5.301-11.84-11.84c0-6.539 5.301-11.84 11.84-11.84s11.84 5.301 11.84 11.84z"></path>
    <path fill="none" stroke="#7763ff" stroke-width="1.28" stroke-miterlimit="4" stroke-linecap="butt" stroke-linejoin="miter" style="stroke: var(--color5, #7763ff)" d="M37.214 23.845l-11.207-6.47-2.138 3.715 1.368 0.79-1.259 2.038-9.161-5.289 1.259-2.038 1.514 0.874 5.231-9.088-1.511-0.873 1.087-2.008 9.283 5.076-1.208 2.221-1.372-0.792-2.065 3.587 11.209 6.472c0.459 0.265 0.616 0.852 0.351 1.311l-0.070 0.122c-0.265 0.459-0.852 0.616-1.311 0.351z"></path>
    <path fill="#7769ff" d="M27.058 27.29h-16.64v2.56h16.64v-2.56z"></path>
    <path fill="none" stroke="#7763ff" stroke-width="1.28" stroke-miterlimit="4" stroke-linecap="butt" stroke-linejoin="miter" style="stroke: var(--color5, #7763ff)" d="M26.418 27.93h-15.36v1.28h15.36v-1.28z"></path>
    <path fill="none" stroke="#7763ff" stroke-width="1.28" stroke-miterlimit="4" stroke-linecap="butt" stroke-linejoin="miter" style="stroke: var(--color5, #7763ff)" d="M24.947 9.258v0z"></path>
  </symbol>
  <symbol id="icon-hourglass" viewBox="0 0 42 32">
    <title>hourglass</title>
    <path fill="#edebff" d="M28.16 12.48c0 6.893-5.588 12.48-12.48 12.48s-12.48-5.587-12.48-12.48c0-6.893 5.588-12.48 12.48-12.48s12.48 5.588 12.48 12.48z"></path>
    <path fill="none" stroke="#7769ff" stroke-width="1.28" stroke-miterlimit="4" stroke-linecap="butt" stroke-linejoin="miter" style="stroke: var(--color3, #7769ff)" d="M30.4 30.080h-2.88v-6.011c0-2.649-1.546-5.017-3.911-6.107l-1.261-0.581 1.261-0.581c2.364-1.090 3.911-3.458 3.911-6.107v-5.574h2.88c0.177 0 0.32-0.143 0.32-0.32s-0.143-0.32-0.32-0.32h-18.56c-0.177 0-0.32 0.143-0.32 0.32s0.143 0.32 0.32 0.32h2.24v5.574c0 2.649 1.546 5.017 3.911 6.107l1.261 0.581-1.261 0.581c-2.364 1.090-3.911 3.458-3.911 6.107v6.011h-2.24c-0.177 0-0.32 0.143-0.32 0.32s0.143 0.32 0.32 0.32h18.56c0.177 0 0.32-0.143 0.32-0.32s-0.143-0.32-0.32-0.32z"></path>
    <path fill="none" stroke="#776aff" stroke-width="1.28" stroke-miterlimit="4" stroke-linecap="round" stroke-linejoin="round" style="stroke: var(--color1, #776aff)" d="M25.315 7.136c0 1.787 0 2.829 0 3.127 0 2.15-0.756 3.594-2.079 4.227"></path>
    <path fill="none" stroke="#776aff" stroke-width="1.28" stroke-miterlimit="4" stroke-linecap="round" stroke-linejoin="round" style="stroke: var(--color1, #776aff)" d="M16.558 27.514h8.312"></path>
  </symbol>
  <symbol id="icon-tx" viewBox="0 0 42 32">
    <title>tx</title>
    <path fill="#edebff" d="M30.080 13.44c0 7.069-5.731 12.8-12.8 12.8s-12.8-5.731-12.8-12.8c0-7.069 5.731-12.8 12.8-12.8s12.8 5.731 12.8 12.8z"></path>
    <path fill="none" stroke="#7769ff" stroke-width="1.28" stroke-miterlimit="4" stroke-linecap="butt" stroke-linejoin="miter" style="stroke: var(--color3, #7769ff)" d="M13.499 12.112h3.592c0.622 0 1.153-0.446 1.261-1.059l0.968-5.515c0.108-0.612 0.639-1.059 1.261-1.059h0.64c0.707 0 1.28 0.573 1.28 1.28 0 0.074-0.006 0.148-0.019 0.221l-0.813 4.629c-0.122 0.696 0.343 1.36 1.039 1.482 0.073 0.013 0.147 0.019 0.221 0.019h3.693c0.622 0 1.153-0.446 1.261-1.059l0.968-5.515c0.108-0.612 0.639-1.059 1.261-1.059h0.64c0.707 0 1.28 0.573 1.28 1.28 0 0.074-0.006 0.148-0.019 0.221l-0.813 4.629c-0.122 0.696 0.343 1.36 1.039 1.482 0.073 0.013 0.147 0.019 0.221 0.019h2.933c0.661 0 1.197 0.536 1.197 1.197 0 0.079-0.008 0.158-0.024 0.236l-0.082 0.406c-0.12 0.598-0.645 1.027-1.255 1.027h-3.806c-0.609 0-1.134 0.429-1.255 1.027l-0.637 3.155c-0.14 0.693 0.308 1.368 1.001 1.508 0.083 0.017 0.168 0.025 0.253 0.025h2.699c0.66 0 1.194 0.535 1.194 1.194 0 0.077-0.007 0.154-0.022 0.23l-0.077 0.39c-0.118 0.601-0.644 1.034-1.256 1.034h-3.603c-0.623 0-1.155 0.448-1.261 1.062l-0.954 5.509c-0.106 0.614-0.639 1.062-1.261 1.062h-0.641c-0.707 0-1.28-0.573-1.28-1.28 0-0.073 0.006-0.146 0.019-0.218l0.803-4.635c0.121-0.697-0.346-1.359-1.043-1.48-0.072-0.012-0.145-0.019-0.218-0.019h-3.694c-0.623 0-1.155 0.448-1.261 1.062l-0.954 5.509c-0.106 0.614-0.639 1.062-1.261 1.062h-0.641c-0.707 0-1.28-0.573-1.28-1.28 0-0.073 0.006-0.146 0.019-0.218l0.803-4.635c0.121-0.697-0.346-1.359-1.043-1.48-0.072-0.012-0.145-0.019-0.218-0.019h-2.927c-0.656 0-1.188-0.532-1.188-1.188 0-0.079 0.008-0.158 0.024-0.236l0.081-0.398c0.121-0.597 0.646-1.026 1.255-1.026h3.776c0.606 0 1.129-0.425 1.253-1.019l0.658-3.155c0.144-0.692-0.3-1.37-0.992-1.514-0.086-0.018-0.173-0.027-0.261-0.027h-2.697c-0.661 0-1.197-0.536-1.197-1.197 0-0.079 0.008-0.158 0.024-0.236l0.082-0.406c0.12-0.598 0.645-1.027 1.255-1.027zM20.846 14.979l-1.154 5.715h6.292l1.154-5.715h-6.292z"></path>
  </symbol>
  <symbol id="color-icon-metamask" viewBox="0 0 37 32">
    <title>color metamask</title>
    <path fill="#a89dff" style="fill: var(--color1, #a89dff)" d="M20.855 31.749h-5.669l-4.934-2.437-7.956 2.664-2.254-7.846 2.491-7.784-1.621-1.819c0.558-0.306 0.838-0.459 0.838-0.459s-0.32-0.34-0.961-1.019c0.64-0.381 0.961-0.603 0.961-0.666s-0.444-0.304-1.332-0.723c0.585-0.335 0.877-0.568 0.877-0.7s-0.418-2.005-1.253-5.619l1.98-5.306 10.824 4.51h7.953z"></path>
    <path fill="#827af0" style="fill: var(--color2, #827af0)" d="M12.102 2.856l2.993 7.016 0.487 7.625-7.834-0.070 3.539-4.757-7.532-8.859-1.738-3.732 5.765-2.299z"></path>
    <path fill="#5b52e6" style="fill: var(--color3, #5b52e6)" d="M0.041 5.34l1.981-5.305 13.057 9.812-4.976 4.449-7.571 2.053c-0.676-0.757-1.217-1.365-1.622-1.825 0.155-0.082 0.433-0.233 0.836-0.453-0.575-0.617-0.895-0.957-0.959-1.022 0.348-0.224 0.931-0.543 0.959-0.657 0.018-0.076-0.424-0.319-1.326-0.73 0.585-0.338 0.877-0.563 0.877-0.675-0.015-0.234-0.433-2.117-1.254-5.647z"></path>
    <path fill="#9088ff" style="fill: var(--color4, #9088ff)" d="M10.831 19.194v4.361l-3.083-6.125z"></path>
    <path fill="#9088ff" style="fill: var(--color4, #9088ff)" d="M14.608 19.684l0.369 1.708 1.145 4.106-0.522-8.045z"></path>
    <path fill="#6c63ec" style="fill: var(--color5, #6c63ec)" d="M11.788 14.9l-4.042 2.527 3.101 2.828 4.118 1.078 0.61-3.906z"></path>
    <path fill="#827af0" style="fill: var(--color2, #827af0)" d="M9.791 29.863l0.461-0.549 5.086-3.485-4.499-2.314-3.263 1.551z"></path>
    <path fill="#fff" style="fill: var(--color6, #fff)" d="M10.803 20.26l4.196 1.158-1.196-2.316z"></path>
    <path fill="#8f88f4" style="fill: var(--color7, #8f88f4)" d="M-1.177 24.457l1.24-0.327 10.785-0.641-0.601 5.824-0.639 2.898-8.715 0.62-1.635-4.671z"></path>
    <path fill="#6c63ec" style="fill: var(--color5, #6c63ec)" d="M6.187 23.169l4.105 6.295 2.161-5.461-2.829-1.748z"></path>
    <path fill="#a89dff" style="fill: var(--color1, #a89dff)" d="M16.145 31.749h5.669l4.934-2.437 7.956 2.664 2.254-7.846-2.491-7.784 1.621-1.819c-0.558-0.306-0.838-0.459-0.838-0.459s0.32-0.34 0.961-1.019c-0.64-0.381-0.961-0.603-0.961-0.666s0.444-0.304 1.332-0.723c-0.585-0.335-0.877-0.568-0.877-0.7s0.418-2.005 1.253-5.619l-1.98-5.306-10.824 4.51h-7.953z"></path>
    <path fill="#827af0" style="fill: var(--color2, #827af0)" d="M24.898 2.856l-2.993 7.016-0.487 7.625 7.834-0.070-3.539-4.757 7.532-8.859 1.738-3.732-5.765-2.299z"></path>
    <path fill="#5b52e6" style="fill: var(--color3, #5b52e6)" d="M36.959 5.34l-1.981-5.305-13.057 9.812 4.976 4.449 7.571 2.053c0.676-0.757 1.217-1.365 1.622-1.825-0.155-0.082-0.433-0.233-0.836-0.453 0.575-0.617 0.895-0.957 0.959-1.022-0.348-0.224-0.931-0.543-0.959-0.657-0.018-0.076 0.424-0.319 1.326-0.73-0.585-0.338-0.877-0.563-0.877-0.675 0.015-0.234 0.433-2.117 1.254-5.647z"></path>
    <path fill="#9088ff" style="fill: var(--color4, #9088ff)" d="M26.169 19.194v4.361l3.083-6.125z"></path>
    <path fill="#9088ff" style="fill: var(--color4, #9088ff)" d="M22.392 19.684l-0.369 1.708-1.145 4.106 0.522-8.045z"></path>
    <path fill="#6c63ec" style="fill: var(--color5, #6c63ec)" d="M25.212 14.9l4.042 2.527-3.101 2.828-4.118 1.078-0.61-3.906z"></path>
    <path fill="#827af0" style="fill: var(--color2, #827af0)" d="M27.209 29.863l-0.461-0.549-5.086-3.485 4.499-2.314 3.263 1.551z"></path>
    <path fill="#fff" style="fill: var(--color6, #fff)" d="M26.197 20.26l-4.196 1.158 1.196-2.316z"></path>
    <path fill="#8f88f4" style="fill: var(--color7, #8f88f4)" d="M38.177 24.457l-1.24-0.327-10.785-0.641 0.601 5.824 0.639 2.898 8.715 0.62 1.635-4.671z"></path>
    <path fill="#6c63ec" style="fill: var(--color5, #6c63ec)" d="M30.813 23.169l-4.105 6.295-2.161-5.461 2.829-1.748z"></path>
    <path fill="#d8daf2" style="fill: var(--color8, #d8daf2)" d="M15.961 25.337h4.783l5.823 4.059-3.391 1.119-3.737 0.722-4.312 0.103-5.004-1.944z"></path>
    <path fill="#c0c2d5" style="fill: var(--color9, #c0c2d5)" d="M10.325 29.388l5.116 1.293v-1.717l1.153-1.779c2.071 0.227 3.405 0.442 4.003 0.647s0.946 0.564 1.043 1.078l-0.033 1.707 5.154-1.229-5.012 2.532h-6.555l-4.871-2.532z"></path>
    <path fill="#181818" style="fill: var(--color10, #181818)" d="M15.675 25.769c-0.145 0.437-0.313 2.992-0.304 3.168s0.233-0.335 0.448-0.335c0.215 0 5.219 0 5.405 0s0.394 0.46 0.403 0.335c0.009-0.125-0.138-2.876-0.198-3.168s-0.312-0.637-0.924-0.637c-0.612 0-3.574 0-4.061 0s-0.625 0.201-0.77 0.637z"></path>
  </symbol>
  <symbol id="color-icon-ethereum" viewBox="0 0 20 32">
    <title>color ethereum</title>
    <path fill="#8d83f69e" d="M9.815 23.93l9.871-5.696-9.871 13.671-9.635-13.671z"></path>
    <path fill="#5850e582" d="M9.815 23.93l9.87-5.696-9.87 13.671z"></path>
    <path fill="#776aff5c" d="M9.816 0.136l9.872 16.193-9.872 5.716-9.702-5.716z"></path>
    <path fill="#5850e599" d="M0.114 16.329l9.732-4.541 9.845 4.541-9.876 5.712z"></path>
    <path fill="#5850e580" d="M9.819 0.14l9.869 16.189-9.869 5.715z"></path>
  </symbol>
</svg>
