<svg xmlns="http://www.w3.org/2000/svg" xmlns:xlink="http://www.w3.org/1999/xlink" viewBox="0 0 320 320">
  <symbol id="icon-cross" viewBox="0 0 32 32">
    <title>cross</title>
    <path d="M31.708 25.708c-0-0-0-0-0-0l-9.708-9.708 9.708-9.708c0-0 0-0 0-0 0.105-0.105 0.18-0.227 0.229-0.357 0.133-0.356 0.057-0.771-0.229-1.057l-4.586-4.586c-0.286-0.286-0.702-0.361-1.057-0.229-0.13 0.048-0.252 0.124-0.357 0.228 0 0-0 0-0 0l-9.708 9.708-9.708-9.708c-0-0-0-0-0-0-0.105-0.104-0.227-0.18-0.357-0.228-0.356-0.133-0.771-0.057-1.057 0.229l-4.586 4.586c-0.286 0.286-0.361 0.702-0.229 1.057 0.049 0.13 0.124 0.252 0.229 0.357 0 0 0 0 0 0l9.708 9.708-9.708 9.708c-0 0-0 0-0 0-0.104 0.105-0.18 0.227-0.229 0.357-0.133 0.355-0.057 0.771 0.229 1.057l4.586 4.586c0.286 0.286 0.702 0.361 1.057 0.229 0.13-0.049 0.252-0.124 0.357-0.229 0-0 0-0 0-0l9.708-9.708 9.708 9.708c0 0 0 0 0 0 0.105 0.105 0.227 0.18 0.357 0.229 0.356 0.133 0.771 0.057 1.057-0.229l4.586-4.586c0.286-0.286 0.362-0.702 0.229-1.057-0.049-0.13-0.124-0.252-0.229-0.357z"></path>
  </symbol>
  <symbol id="icon-logo-image" viewBox="0 0 18 18">
    <title>icon-logo-image</title>
    <path d="M8.738 4.322v-1.676h0.521v1.676h0.41v0.481h0.458v3.336h0.473v1.37h0.887v-1.894h1.303v-1.203h0.601v-0.556l0.587-0.616 0.701 0.737v2.668h0.515v1.362h0.845v-1.699h0.558v-0.617h1.391l-1.392 6.985h-0.018c0.011-0.037 0.017-0.075 0.018-0.114 0-0.976-3.415-1.767-7.627-1.767-4.196 0-7.6 0.785-7.626 1.756l-1.332-6.86h1.456v0.961h0.959v1.338h0.83v-4.194h0.544v-0.556h0.844v0.586h0.501v1.804h0.973v1.869h0.816v-1.883h0.902v-2.766h0.486v-0.526h0.415zM10.512 15.214c0 0.262-9.188 0.186-9.091-0.497 0.214-1.516 9.091-2.699 9.091 0.497z"></path>
  </symbol>
  <symbol id="icon-logo-text" viewBox="0 0 119 32">
    <title>icon-logo-text</title>
    <path d="M13.509 21.936c-0.407-0.469 0.034-1.601 1.067-3.035 0.406 0.97 1.029 1.834 1.82 2.527-0.932 0.466-1.713 0.724-2.246 0.724-0.236 0.021-0.469-0.062-0.637-0.227zM26.878 9.595c0.209-0.005 0.411 0.073 0.562 0.219 0.803 0.924-1.654 4.38-5.489 7.716-0.281 0.244-0.562 0.48-0.842 0.71 0.244-0.227 0.486-0.46 0.727-0.699 2.055-2.036 3.65-4.074 4.493-5.616-0.507-0.626-1.119-1.16-1.808-1.578 1.011-0.508 1.839-0.764 2.375-0.719 0.001-0.010 0.001-0.021 0-0.031zM23.929 10.027c-2.248-1.073-4.9-0.85-6.937 0.584s-3.142 3.854-2.891 6.332c0.045 0.431 0.13 0.857 0.253 1.272 0.112-0.101 0.222-0.205 0.34-0.306l-0.337 0.376c-2.221 2.572-3.35 4.7-2.701 5.445s2.755-0.020 5.467-1.727c1.831-1.178 3.572-2.492 5.206-3.931l0.227-0.202c-1.267 1.407-2.62 2.734-4.052 3.973-0.225 0.194-0.444 0.379-0.665 0.562 2.642 1.341 5.846 0.843 7.956-1.236s2.655-5.276 1.352-7.937c1.949-2.353 2.903-4.265 2.297-4.962-0.203-0.201-0.484-0.304-0.769-0.281-1.005 0-2.721 0.75-4.773 2.044z"></path>
    <path d="M7.666 20.282v3.215h-7.666v-14.997h3.65v11.793z"></path>
    <path d="M33.516 23.497v-14.997h5.616c2.69 0 4.81 1.786 4.81 4.726 0 2.246-1.261 3.822-3.044 4.431l3.779 5.84h-3.998l-3.507-5.546v5.546zM38.786 14.717c1.050 0 1.513-0.609 1.513-1.491 0.023-0.408-0.129-0.807-0.418-1.095s-0.687-0.441-1.096-0.418h-1.615v3.005z"></path>
    <path d="M54.96 23.497h-5.144v-14.997h5.144c4.832 0 7.267 3.76 7.267 7.52s-2.415 7.478-7.267 7.478zM54.415 20.304c2.527 0 3.97-2.039 3.97-4.265s-1.471-4.327-3.97-4.327h-0.946v8.592z"></path>
    <path d="M75.036 20.282v3.215h-7.666v-14.997h3.65v11.793z"></path>
    <path d="M99.446 11.546c-0.901 0-1.637 0.441-1.637 1.28 0 0.609 0.421 1.050 1.744 1.238 2.96 0.441 4.411 2.395 4.411 4.684 0 2.457-1.893 4.875-5.461 4.875-2.69 0-4.327-0.842-5.756-1.966l1.828-2.648c1.032 0.882 2.338 1.379 3.695 1.404 1.199 0 1.828-0.713 1.828-1.511 0-1.008-0.671-1.64-1.994-1.87-3.066-0.545-4.285-2.081-4.285-4.013 0-2.71 2.162-4.641 5.481-4.641 1.433-0.042 2.848 0.33 4.074 1.073l-1.28 2.96c-0.779-0.541-1.7-0.841-2.648-0.865z"></path>
    <path d="M114.611 11.546c-0.904 0-1.637 0.441-1.637 1.28 0 0.609 0.418 1.050 1.741 1.238 2.962 0.441 4.411 2.395 4.411 4.684 0 2.457-1.89 4.875-5.459 4.875-2.69 0-4.33-0.842-5.756-1.966l1.828-2.648c1.031 0.883 2.338 1.379 3.695 1.404 1.199 0 1.828-0.713 1.828-1.511 0-1.008-0.671-1.64-1.996-1.87-3.066-0.545-4.285-2.081-4.285-4.013 0-2.71 2.165-4.641 5.484-4.641 1.433-0.042 2.848 0.33 4.074 1.073l-1.28 2.96c-0.779-0.541-1.7-0.841-2.648-0.865z"></path>
    <path d="M80.29 8.5v3.221h3.656v-0.008h4.411v-3.212z"></path>
    <path d="M83.946 17.595h4.159v-3.215h-2.404v0.028h-5.411v9.089h8.067v-3.215h-4.411z"></path>
  </symbol>
  <symbol id="icon-reddit" viewBox="0 0 28 28">
    <title>reddit</title>
    <path d="M17.109 18.234c0.141 0.141 0.141 0.359 0 0.484-0.891 0.891-2.609 0.969-3.109 0.969s-2.219-0.078-3.109-0.969c-0.141-0.125-0.141-0.344 0-0.484 0.125-0.125 0.344-0.125 0.469 0 0.562 0.578 1.781 0.766 2.641 0.766s2.063-0.187 2.641-0.766c0.125-0.125 0.344-0.125 0.469 0zM12.313 15.406c0 0.766-0.625 1.391-1.391 1.391-0.781 0-1.406-0.625-1.406-1.391 0-0.781 0.625-1.406 1.406-1.406 0.766 0 1.391 0.625 1.391 1.406zM18.484 15.406c0 0.766-0.625 1.391-1.406 1.391-0.766 0-1.391-0.625-1.391-1.391 0-0.781 0.625-1.406 1.391-1.406 0.781 0 1.406 0.625 1.406 1.406zM22.406 13.531c0-1.031-0.844-1.859-1.875-1.859-0.531 0-1 0.219-1.344 0.562-1.266-0.875-2.969-1.437-4.859-1.5l0.984-4.422 3.125 0.703c0 0.766 0.625 1.391 1.391 1.391 0.781 0 1.406-0.641 1.406-1.406s-0.625-1.406-1.406-1.406c-0.547 0-1.016 0.328-1.25 0.781l-3.453-0.766c-0.172-0.047-0.344 0.078-0.391 0.25l-1.078 4.875c-1.875 0.078-3.563 0.641-4.828 1.516-0.344-0.359-0.828-0.578-1.359-0.578-1.031 0-1.875 0.828-1.875 1.859 0 0.75 0.438 1.375 1.062 1.687-0.063 0.281-0.094 0.578-0.094 0.875 0 2.969 3.344 5.375 7.453 5.375 4.125 0 7.469-2.406 7.469-5.375 0-0.297-0.031-0.609-0.109-0.891 0.609-0.313 1.031-0.938 1.031-1.672zM28 14c0 7.734-6.266 14-14 14s-14-6.266-14-14 6.266-14 14-14 14 6.266 14 14z"></path>
  </symbol>
  <symbol id="icon-medium" viewBox="0 0 18 18">
    <title>medium</title>
    <path d="M13.315 13.888l-0.311 0.507 3.989 1.993c0.169 0.086 0.331 0.124 0.471 0.124 0.313 0 0.526-0.199 0.526-0.554v-9.665l-4.674 7.596zM17.928 4.125c-0.005-0.003 0-0.011-0.003-0.014l-5.433-2.716c-0.066-0.030-0.138-0.046-0.211-0.050-0.018 0-0.034-0.011-0.053-0.011-0.213-0.001-0.411 0.107-0.526 0.286l-0.27 0.439-0.563 0.917-2.128 3.468 3.254 5.294 0.664 1.070 5.304-8.603c0.023-0.034 0.011-0.068-0.023-0.090l-0.012 0.010zM10.867 12.058l-3.456-5.616-0.282-0.468v5.481l4.865 2.436-1.127-1.832zM0.83 1.56l-0.166-0.081c-0.084-0.044-0.176-0.068-0.27-0.070-0.232 0-0.394 0.18-0.394 0.481v11.443c0 0.306 0.225 0.669 0.498 0.806l4.668 2.342c0.12 0.068 0.234 0.090 0.338 0.090 0.289 0 0.493-0.225 0.493-0.597v-11.791c0.001-0.023-0.013-0.044-0.034-0.053l-5.133-2.571z"></path>
  </symbol>
  <symbol id="icon-facebook" viewBox="0 0 18 18">
    <title>facebook</title>
    <path d="M12.773 1.443l-1.957-0.003c-2.199 0-3.62 1.461-3.62 3.721v1.716h-1.968c-0.17 0-0.308 0.138-0.308 0.308v2.486c0 0.17 0.138 0.308 0.308 0.308h1.968v6.272c0 0.17 0.138 0.308 0.308 0.308h2.568c0.17 0 0.308-0.138 0.308-0.308v-6.272h2.301c0.17 0 0.308-0.138 0.308-0.308l0.001-2.486c0-0.082-0.033-0.16-0.090-0.218s-0.136-0.090-0.218-0.090h-2.302v-1.454c0-0.699 0.166-1.054 1.075-1.054l1.318-0c0.17 0 0.308-0.138 0.308-0.308v-2.308c0-0.17-0.138-0.308-0.307-0.308z"></path>
  </symbol>
  <symbol id="icon-telegram" viewBox="0 0 18 18">
    <title>telegram</title>
    <path d="M0.366 7.762l16.627-6.096c0.254-0.093 0.539-0.040 0.742 0.138s0.293 0.453 0.234 0.717l-2.884 12.924c-0.062 0.278-0.259 0.507-0.525 0.609s-0.566 0.064-0.798-0.101l-4.032-2.865-2.703 2.68c-0.127 0.127-0.322 0.157-0.481 0.072s-0.245-0.262-0.211-0.439l0.779-4.174 7.685-6.767c0.072-0.063 0.084-0.171 0.027-0.248s-0.163-0.098-0.245-0.048l-9.907 6.055-4.291-1.411c-0.223-0.075-0.376-0.282-0.379-0.518s0.142-0.448 0.362-0.53v-0.001z"></path>
  </symbol>
  <symbol id="icon-twitter" viewBox="0 0 18 18">
    <title>twitter</title>
    <path d="M17.367 3.581c-0.381 0.169-0.777 0.303-1.183 0.399 0.448-0.425 0.784-0.958 0.974-1.551 0.054-0.17-0.13-0.316-0.283-0.225-0.565 0.335-1.174 0.587-1.809 0.748-0.037 0.009-0.075 0.014-0.113 0.014-0.116 0-0.228-0.043-0.317-0.121-0.676-0.596-1.545-0.924-2.448-0.924-0.391 0-0.785 0.061-1.172 0.181-1.2 0.372-2.125 1.362-2.416 2.583-0.109 0.458-0.138 0.917-0.088 1.363 0.006 0.051-0.018 0.087-0.033 0.104-0.026 0.029-0.063 0.046-0.102 0.046-0.004 0-0.009-0-0.013-0.001-2.626-0.244-4.994-1.51-6.667-3.564-0.085-0.105-0.249-0.092-0.317 0.025-0.328 0.563-0.501 1.206-0.501 1.861 0 1.003 0.403 1.949 1.103 2.638-0.294-0.070-0.579-0.18-0.844-0.327-0.128-0.071-0.286 0.020-0.287 0.167-0.018 1.491 0.854 2.817 2.161 3.414-0.026 0.001-0.053 0.001-0.079 0.001-0.207 0-0.417-0.020-0.623-0.059-0.144-0.028-0.265 0.109-0.221 0.249 0.424 1.325 1.564 2.301 2.929 2.523-1.132 0.76-2.451 1.162-3.824 1.162l-0.428-0c-0.132 0-0.243 0.086-0.277 0.214-0.033 0.126 0.028 0.259 0.14 0.324 1.547 0.9 3.311 1.376 5.102 1.376 1.568 0 3.035-0.311 4.36-0.925 1.215-0.563 2.288-1.368 3.19-2.392 0.841-0.954 1.498-2.055 1.953-3.273 0.434-1.161 0.664-2.4 0.664-3.582v-0.056c-0-0.19 0.086-0.369 0.236-0.49 0.568-0.462 1.063-1.005 1.471-1.615 0.108-0.161-0.062-0.363-0.239-0.284z"></path>
  </symbol>
  <symbol id="icon-linkedin" viewBox="0 0 32 32">
    <title>linkedin</title>
    <path d="M29 0h-26c-1.65 0-3 1.35-3 3v26c0 1.65 1.35 3 3 3h26c1.65 0 3-1.35 3-3v-26c0-1.65-1.35-3-3-3zM12 26h-4v-14h4v14zM10 10c-1.106 0-2-0.894-2-2s0.894-2 2-2c1.106 0 2 0.894 2 2s-0.894 2-2 2zM26 26h-4v-8c0-1.106-0.894-2-2-2s-2 0.894-2 2v8h-4v-14h4v2.481c0.825-1.131 2.087-2.481 3.5-2.481 2.488 0 4.5 2.238 4.5 5v9z"></path>
  </symbol>
  <symbol id="icon-github" viewBox="0 0 32 32">
    <title>github</title>
    <path d="M16 0.395c-8.836 0-16 7.163-16 16 0 7.069 4.585 13.067 10.942 15.182 0.8 0.148 1.094-0.347 1.094-0.77 0-0.381-0.015-1.642-0.022-2.979-4.452 0.968-5.391-1.888-5.391-1.888-0.728-1.849-1.776-2.341-1.776-2.341-1.452-0.993 0.11-0.973 0.11-0.973 1.606 0.113 2.452 1.649 2.452 1.649 1.427 2.446 3.743 1.739 4.656 1.33 0.143-1.034 0.558-1.74 1.016-2.14-3.554-0.404-7.29-1.777-7.29-7.907 0-1.747 0.625-3.174 1.649-4.295-0.166-0.403-0.714-2.030 0.155-4.234 0 0 1.344-0.43 4.401 1.64 1.276-0.355 2.645-0.532 4.005-0.539 1.359 0.006 2.729 0.184 4.008 0.539 3.054-2.070 4.395-1.64 4.395-1.64 0.871 2.204 0.323 3.831 0.157 4.234 1.026 1.12 1.647 2.548 1.647 4.295 0 6.145-3.743 7.498-7.306 7.895 0.574 0.497 1.085 1.47 1.085 2.963 0 2.141-0.019 3.864-0.019 4.391 0 0.426 0.288 0.925 1.099 0.768 6.354-2.118 10.933-8.113 10.933-15.18 0-8.837-7.164-16-16-16z"></path>
  </symbol>
  <symbol id="icon-google+" viewBox="0 0 18 18">
    <title>google+</title>
    <path d="M6.36 10.158c-0.207 0-0.374-0.169-0.374-0.378v-1.384c0-0.209 0.167-0.378 0.374-0.378h5.039c0 0-0.003 1.256-0.007 1.293-0.163 2.965-2.595 5.318-5.571 5.318-3.095 0-5.602-2.545-5.581-5.676 0.021-3.107 2.615-5.655 5.692-5.594 1.443 0.028 2.751 0.61 3.726 1.543 0.156 0.149 0.155 0.401-0.001 0.549l-1.001 0.951c-0.143 0.136-0.365 0.135-0.511 0.002-0.615-0.563-1.43-0.907-2.324-0.907-1.955 0-3.536 1.644-3.46 3.635 0.071 1.857 1.593 3.344 3.434 3.358 1.517 0.011 2.812-0.968 3.291-2.334h-2.725zM16.088 8.157h1.344c0.182 0 0.329 0.147 0.329 0.329v1.131c0 0.182-0.147 0.329-0.329 0.329h-1.344v1.344c0 0.182-0.147 0.329-0.329 0.329h-1.131c-0.182 0-0.329-0.147-0.329-0.329v-1.344h-1.344c-0.182 0-0.329-0.147-0.329-0.329v-1.131c0-0.182 0.147-0.329 0.329-0.329h1.344v-1.344c0-0.182 0.147-0.329 0.329-0.329h1.131c0.182 0 0.329 0.147 0.329 0.329v1.344z"></path>
  </symbol>
  <symbol id="icon-wechat" viewBox="0 0 18 18">
    <title>wechat</title>
    <path d="M12.519 6.169c0.091 0 0.181 0.001 0.271 0.006-0.474-2.58-3.139-4.555-6.356-4.555-3.552 0-6.43 2.408-6.43 5.378 0 1.742 0.989 3.29 2.524 4.272 0.020 0.013 0.059 0.037 0.059 0.037l-0.621 1.946 2.325-1.184c0 0 0.073 0.021 0.109 0.032 0.639 0.178 1.323 0.274 2.035 0.274 0.145 0 0.289-0.005 0.432-0.013-0.132-0.409-0.204-0.839-0.204-1.283 0-2.712 2.623-4.91 5.858-4.91zM8.671 4.272c0.498 0 0.903 0.391 0.903 0.874s-0.404 0.875-0.903 0.875c-0.499 0-0.903-0.392-0.903-0.875s0.403-0.874 0.903-0.874zM4.196 6.020c-0.499 0-0.903-0.392-0.903-0.875s0.404-0.874 0.903-0.874 0.904 0.391 0.904 0.874c0 0.483-0.405 0.875-0.904 0.875z"></path>
    <path d="M7.134 11.111c0 2.51 2.433 4.544 5.433 4.544 0.601 0 1.179-0.082 1.718-0.233 0.031-0.009 0.093-0.027 0.093-0.027l1.963 1.001-0.525-1.645c0 0 0.033-0.021 0.050-0.032 1.296-0.83 2.132-2.138 2.132-3.61 0-2.509-2.432-4.543-5.431-4.543s-5.433 2.035-5.433 4.543zM13.695 9.546c0-0.407 0.341-0.738 0.762-0.738 0.422 0 0.763 0.33 0.763 0.738 0 0.409-0.341 0.74-0.763 0.74s-0.762-0.331-0.762-0.74zM9.914 9.546c0-0.407 0.342-0.738 0.763-0.738s0.763 0.33 0.763 0.738c0 0.409-0.342 0.74-0.763 0.74s-0.763-0.331-0.763-0.74z"></path>
  </symbol>
  <symbol id="icon-etherscan" viewBox="0 0 18 18">
    <title>etherscan</title>
    <path d="M3.476 16.106c5.901-0.565 11.018-3.485 14.502-7.748 0.015 0.212 0.023 0.426 0.023 0.642 0 4.971-4.029 9-9 9-2.082 0-3.999-0.707-5.524-1.894z"></path>
    <path d="M14.324 9.803v-5.268c0-0.247-0.2-0.447-0.447-0.447h-1.889c-0.247 0-0.447 0.2-0.447 0.447v6.916c-0.339 0.174-0.683 0.342-1.031 0.502v-5.461c0-0.247-0.2-0.447-0.447-0.447h-1.889c-0.247 0-0.447 0.2-0.447 0.447v6.561c-0.341 0.113-0.684 0.22-1.031 0.32v-4.922c0-0.247-0.2-0.447-0.447-0.447h-1.889c-0.247 0-0.447 0.2-0.447 0.447v5.566c-0.718 0.127-1.447 0.225-2.184 0.293-1.089-1.488-1.732-3.324-1.732-5.31 0-4.971 4.029-9 9-9 4.293 0 7.884 3.006 8.783 7.028-1.073 1.016-2.23 1.945-3.459 2.775z"></path>
  </symbol>
  <symbol id="icon-youtube" viewBox="0 0 18 18">
    <title>youtube</title>
    <path d="M17.29 3.608c-0.649-0.771-1.847-1.087-4.138-1.087h-8.312c-2.343 0-3.562 0.336-4.21 1.157-0.63 0.801-0.63 1.983-0.63 3.616v3.115c0 3.167 0.748 4.774 4.84 4.774h8.312c1.986 0 3.086-0.278 3.799-0.96 0.729-0.698 1.041-1.839 1.041-3.814v-3.115c0-1.724-0.048-2.911-0.702-3.686v-0.001zM11.551 9.284l-3.775 1.972c-0.18 0.095-0.396 0.088-0.57-0.017s-0.28-0.294-0.279-0.497v-3.933c-0-0.203 0.106-0.391 0.279-0.497s0.389-0.113 0.569-0.019l3.775 1.961c0.192 0.1 0.312 0.298 0.312 0.514s-0.12 0.415-0.311 0.515v0.001z"></path>
  </symbol>
  <symbol id="icon-share" viewBox="0 0 32 32">
    <title>share</title>
    <path d="M27 22c-1.411 0-2.685 0.586-3.594 1.526l-13.469-6.734c0.041-0.258 0.063-0.522 0.063-0.791s-0.022-0.534-0.063-0.791l13.469-6.734c0.909 0.94 2.183 1.526 3.594 1.526 2.761 0 5-2.239 5-5s-2.239-5-5-5-5 2.239-5 5c0 0.269 0.022 0.534 0.063 0.791l-13.469 6.734c-0.909-0.94-2.183-1.526-3.594-1.526-2.761 0-5 2.239-5 5s2.239 5 5 5c1.411 0 2.685-0.586 3.594-1.526l13.469 6.734c-0.041 0.258-0.063 0.522-0.063 0.791 0 2.761 2.239 5 5 5s5-2.239 5-5c0-2.761-2.239-5-5-5z"></path>
  </symbol>
  <symbol id="icon-hot" viewBox="0 0 20 20">
    <title>hot</title>
    <path d="M10 0s8 7.58 8 12c0 4.418-3.582 8-8 8s-8-3.582-8-8v0c0-1.5 0.91-3.35 2.12-5.15 0.376 1.258 1.522 2.16 2.88 2.16 1.657 0 3-1.343 3-3 0-0.004 0-0.007-0-0.011v0.001-6zM8 0c-1.657 0-3 1.343-3 3s1.343 3 3 3v0-6z"></path>
  </symbol>
  <symbol id="icon-warning" viewBox="0 0 18 18">
    <title>warning</title>
    <path d="M0.75 15.75h16.5l-8.25-14.25zM9.75 13.5h-1.5v-1.5h1.5zM9.75 10.5h-1.5v-3h1.5z"></path>
  </symbol>
  <symbol id="icon-paste" viewBox="0 0 18 18">
    <title>paste</title>
    <path stroke-width="1.5" stroke-miterlimit="4" stroke-linecap="round" stroke-linejoin="round" d="M8.25 16.5c-0.828 0-1.5-0.672-1.5-1.5v-6.75c0-0.828 0.672-1.5 1.5-1.5h6.75c0.828 0 1.5 0.672 1.5 1.5v6.75c0 0.828-0.672 1.5-1.5 1.5z"></path>
    <path stroke-width="1.5" stroke-miterlimit="4" stroke-linecap="round" stroke-linejoin="round" d="M3.75 11.25h-0.75c-0.828 0-1.5-0.672-1.5-1.5v-6.75c0-0.828 0.672-1.5 1.5-1.5h6.75c0.828 0 1.5 0.672 1.5 1.5v0.75"></path>
  </symbol>
  <symbol id="icon-help" viewBox="0 0 20 20">
    <title>help</title>
    <path d="M14.090 2.233c-1.14-0.822-2.572-1.233-4.296-1.233-1.311 0-2.418 0.289-3.317 0.868-1.427 0.906-2.185 2.445-2.277 4.615h3.307c0-0.633 0.185-1.24 0.553-1.828 0.369-0.586 0.995-0.879 1.878-0.879 0.898 0 1.517 0.238 1.854 0.713 0.339 0.477 0.508 1.004 0.508 1.582 0 0.504-0.252 0.965-0.557 1.383-0.167 0.244-0.387 0.469-0.661 0.674 0 0-1.793 1.15-2.58 2.074-0.456 0.535-0.497 1.338-0.538 2.488-0.002 0.082 0.029 0.252 0.315 0.252s2.316 0 2.571 0c0.256 0 0.309-0.189 0.312-0.274 0.018-0.418 0.064-0.633 0.141-0.875 0.144-0.457 0.538-0.855 0.979-1.199l0.91-0.627c0.822-0.641 1.477-1.166 1.767-1.578 0.494-0.676 0.842-1.51 0.842-2.5-0.001-1.615-0.571-2.832-1.711-3.656zM9.741 14.924c-1.139-0.035-2.079 0.754-2.115 1.99-0.035 1.234 0.858 2.051 1.998 2.084 1.189 0.035 2.104-0.727 2.141-1.963 0.034-1.236-0.834-2.076-2.024-2.111z"></path>
  </symbol>
  <symbol id="icon-download" viewBox="0 0 32 32">
    <title>download</title>
    <path d="M16.001 19.314l-8.485-8.485 2.828-2.829 5.657 5.657 5.657-5.657 2.828 2.828-8.485 8.486zM8 28h16v-4h-16v4z"></path>
  </symbol>
  <symbol id="icon-arrow-up" viewBox="0 0 24 24">
    <title>arrow-up</title>
    <path d="M13 5.586l-4.707 4.707c-0.391 0.391-0.391 1.023 0 1.414s1.023 0.391 1.414 0l2.293-2.293v7.586c0 0.552 0.447 1 1 1s1-0.448 1-1v-7.586l2.293 2.293c0.195 0.195 0.451 0.293 0.707 0.293s0.512-0.098 0.707-0.293c0.391-0.391 0.391-1.023 0-1.414l-4.707-4.707z"></path>
  </symbol>
  <symbol id="icon-store" viewBox="0 0 18 18">
    <title>store</title>
    <path d="M14.009 11h-0.020c-0.547 0-0.99 0.443-0.99 0.99v2.51c0 0.276-0.224 0.5-0.5 0.5h-6.999c-0.276 0-0.5-0.224-0.5-0.5v-2.51c0-0.547-0.443-0.99-0.99-0.99h-0.020c-0.546 0-0.99 0.443-0.99 0.99v4.020c0 0.547 0.443 0.99 0.99 0.99h10.018c0.547 0 0.99-0.443 0.99-0.99v-4.020c0-0.547-0.443-0.99-0.99-0.99z"></path>
    <path d="M16.063 3.502l-1.566-1.566c-0.622-0.622-1.435-0.927-2.249-0.927-0.083 0-0.166 0.003-0.249 0.010v-0.018h-5.999v0.018c-0.083-0.006-0.166-0.010-0.249-0.010-0.814 0-1.627 0.306-2.249 0.927l-1.566 1.566c-1.247 1.247-1.247 3.27 0 4.517l0.046 0.045c0.624 0.624 1.44 0.936 2.258 0.936s1.635-0.312 2.258-0.936l0.166-0.165c0.544 0.671 1.375 1.101 2.306 1.101h0.060c0.932 0 1.762-0.43 2.306-1.101l0.166 0.165c0.624 0.624 1.441 0.936 2.258 0.936s1.634-0.312 2.258-0.936l0.045-0.045c1.248-1.248 1.248-3.27 0-4.517zM14.649 6.605l-0.046 0.046c-0.226 0.226-0.525 0.35-0.844 0.35s-0.619-0.124-0.845-0.35l-0.165-0.166-1.413-1.414c-0.083-0.083-0.22-0.076-0.294 0.015l-1.26 1.553c-0.186 0.229-0.46 0.361-0.753 0.361h-0.060c-0.293 0-0.567-0.131-0.753-0.361l-1.236-1.523c-0.086-0.107-0.247-0.115-0.344-0.018l-1.552 1.553c-0.226 0.226-0.525 0.35-0.844 0.35s-0.619-0.124-0.844-0.35l-0.046-0.046c-0.466-0.466-0.466-1.222 0-1.688l1.566-1.566c0.297-0.297 0.65-0.341 0.834-0.341 0.032 0 0.217-0.011 0.249-0.008h5.999c0.032-0.002 0.217 0.008 0.249 0.008 0.185 0 0.538 0.044 0.835 0.341l1.566 1.566c0.466 0.466 0.466 1.222 0 1.689z"></path>
  </symbol>
</svg>
