<svg xmlns="http://www.w3.org/2000/svg" xmlns:xlink="http://www.w3.org/1999/xlink" viewBox="0 0 320 320">
  <symbol id="icon-cross" viewBox="0 0 32 32">
    <title>cross</title>
    <path d="M31.708 25.708c-0-0-0-0-0-0l-9.708-9.708 9.708-9.708c0-0 0-0 0-0 0.105-0.105 0.18-0.227 0.229-0.357 0.133-0.356 0.057-0.771-0.229-1.057l-4.586-4.586c-0.286-0.286-0.702-0.361-1.057-0.229-0.13 0.048-0.252 0.124-0.357 0.228 0 0-0 0-0 0l-9.708 9.708-9.708-9.708c-0-0-0-0-0-0-0.105-0.104-0.227-0.18-0.357-0.228-0.356-0.133-0.771-0.057-1.057 0.229l-4.586 4.586c-0.286 0.286-0.361 0.702-0.229 1.057 0.049 0.13 0.124 0.252 0.229 0.357 0 0 0 0 0 0l9.708 9.708-9.708 9.708c-0 0-0 0-0 0-0.104 0.105-0.18 0.227-0.229 0.357-0.133 0.355-0.057 0.771 0.229 1.057l4.586 4.586c0.286 0.286 0.702 0.361 1.057 0.229 0.13-0.049 0.252-0.124 0.357-0.229 0-0 0-0 0-0l9.708-9.708 9.708 9.708c0 0 0 0 0 0 0.105 0.105 0.227 0.18 0.357 0.229 0.356 0.133 0.771 0.057 1.057-0.229l4.586-4.586c0.286-0.286 0.362-0.702 0.229-1.057-0.049-0.13-0.124-0.252-0.229-0.357z"></path>
  </symbol>
  <symbol id="icon-logo-image" viewBox="0 0 45 32">
    <title>icon-logo-image</title>
    <path d="M26.441 31.649c0 0.659-23.137 0.467-22.894-1.252 0.538-3.817 22.894-6.796 22.894 1.252z"></path>
    <path d="M41.767 12.703v1.553h-1.406v4.278h-2.129v-3.431h-1.297v-6.718l-1.766-1.855-1.478 1.552v1.401h-1.513v3.029h-3.281v4.77h-2.233v-3.449h-1.192v-8.4h-1.153v-1.212h-3.391v1.325h-1.224v6.966h-2.271v4.743h-2.054v-4.706h-2.451v-4.542h-1.262v-1.476h-2.126v1.401h-1.37v10.562h-2.091v-3.37h-2.415v-2.42h-3.666l3.354 17.274c0.065-2.445 8.637-4.423 19.203-4.423 10.607 0 19.207 1.992 19.207 4.45-0.002 0.097-0.017 0.194-0.045 0.287h0.045l3.505-17.589z"></path>
    <path d="M21.867 0h1.312v4.22h-1.312v-4.22z"></path>
  </symbol>
  <symbol id="icon-logo-text" viewBox="0 0 119 32">
    <title>icon-logo-text</title>
    <path d="M13.509 21.936c-0.407-0.469 0.034-1.601 1.067-3.035 0.406 0.97 1.029 1.834 1.82 2.527-0.932 0.466-1.713 0.724-2.246 0.724-0.236 0.021-0.469-0.062-0.637-0.227zM26.878 9.595c0.209-0.005 0.411 0.073 0.562 0.219 0.803 0.924-1.654 4.38-5.489 7.716-0.281 0.244-0.562 0.48-0.842 0.71 0.244-0.227 0.486-0.46 0.727-0.699 2.055-2.036 3.65-4.074 4.493-5.616-0.507-0.626-1.119-1.16-1.808-1.578 1.011-0.508 1.839-0.764 2.375-0.719 0.001-0.010 0.001-0.021 0-0.031zM23.929 10.027c-2.248-1.073-4.9-0.85-6.937 0.584s-3.142 3.854-2.891 6.332c0.045 0.431 0.13 0.857 0.253 1.272 0.112-0.101 0.222-0.205 0.34-0.306l-0.337 0.376c-2.221 2.572-3.35 4.7-2.701 5.445s2.755-0.020 5.467-1.727c1.831-1.178 3.572-2.492 5.206-3.931l0.227-0.202c-1.267 1.407-2.62 2.734-4.052 3.973-0.225 0.194-0.444 0.379-0.665 0.562 2.642 1.341 5.846 0.843 7.956-1.236s2.655-5.276 1.352-7.937c1.949-2.353 2.903-4.265 2.297-4.962-0.203-0.201-0.484-0.304-0.769-0.281-1.005 0-2.721 0.75-4.773 2.044z"></path>
    <path d="M7.666 20.282v3.215h-7.666v-14.997h3.65v11.793z"></path>
    <path d="M33.516 23.497v-14.997h5.616c2.69 0 4.81 1.786 4.81 4.726 0 2.246-1.261 3.822-3.044 4.431l3.779 5.84h-3.998l-3.507-5.546v5.546zM38.786 14.717c1.050 0 1.513-0.609 1.513-1.491 0.023-0.408-0.129-0.807-0.418-1.095s-0.687-0.441-1.096-0.418h-1.615v3.005z"></path>
    <path d="M54.96 23.497h-5.144v-14.997h5.144c4.832 0 7.267 3.76 7.267 7.52s-2.415 7.478-7.267 7.478zM54.415 20.304c2.527 0 3.97-2.039 3.97-4.265s-1.471-4.327-3.97-4.327h-0.946v8.592z"></path>
    <path d="M75.036 20.282v3.215h-7.666v-14.997h3.65v11.793z"></path>
    <path d="M99.446 11.546c-0.901 0-1.637 0.441-1.637 1.28 0 0.609 0.421 1.050 1.744 1.238 2.96 0.441 4.411 2.395 4.411 4.684 0 2.457-1.893 4.875-5.461 4.875-2.69 0-4.327-0.842-5.756-1.966l1.828-2.648c1.032 0.882 2.338 1.379 3.695 1.404 1.199 0 1.828-0.713 1.828-1.511 0-1.008-0.671-1.64-1.994-1.87-3.066-0.545-4.285-2.081-4.285-4.013 0-2.71 2.162-4.641 5.481-4.641 1.433-0.042 2.848 0.33 4.074 1.073l-1.28 2.96c-0.779-0.541-1.7-0.841-2.648-0.865z"></path>
    <path d="M114.611 11.546c-0.904 0-1.637 0.441-1.637 1.28 0 0.609 0.418 1.050 1.741 1.238 2.962 0.441 4.411 2.395 4.411 4.684 0 2.457-1.89 4.875-5.459 4.875-2.69 0-4.33-0.842-5.756-1.966l1.828-2.648c1.031 0.883 2.338 1.379 3.695 1.404 1.199 0 1.828-0.713 1.828-1.511 0-1.008-0.671-1.64-1.996-1.87-3.066-0.545-4.285-2.081-4.285-4.013 0-2.71 2.165-4.641 5.484-4.641 1.433-0.042 2.848 0.33 4.074 1.073l-1.28 2.96c-0.779-0.541-1.7-0.841-2.648-0.865z"></path>
    <path d="M80.29 8.5v3.221h3.656v-0.008h4.411v-3.212z"></path>
    <path d="M83.946 17.595h4.159v-3.215h-2.404v0.028h-5.411v9.089h8.067v-3.215h-4.411z"></path>
  </symbol>
  <symbol id="icon-reddit" viewBox="0 0 28 28">
    <title>reddit</title>
    <path d="M17.109 18.234c0.141 0.141 0.141 0.359 0 0.484-0.891 0.891-2.609 0.969-3.109 0.969s-2.219-0.078-3.109-0.969c-0.141-0.125-0.141-0.344 0-0.484 0.125-0.125 0.344-0.125 0.469 0 0.562 0.578 1.781 0.766 2.641 0.766s2.063-0.187 2.641-0.766c0.125-0.125 0.344-0.125 0.469 0zM12.313 15.406c0 0.766-0.625 1.391-1.391 1.391-0.781 0-1.406-0.625-1.406-1.391 0-0.781 0.625-1.406 1.406-1.406 0.766 0 1.391 0.625 1.391 1.406zM18.484 15.406c0 0.766-0.625 1.391-1.406 1.391-0.766 0-1.391-0.625-1.391-1.391 0-0.781 0.625-1.406 1.391-1.406 0.781 0 1.406 0.625 1.406 1.406zM22.406 13.531c0-1.031-0.844-1.859-1.875-1.859-0.531 0-1 0.219-1.344 0.562-1.266-0.875-2.969-1.437-4.859-1.5l0.984-4.422 3.125 0.703c0 0.766 0.625 1.391 1.391 1.391 0.781 0 1.406-0.641 1.406-1.406s-0.625-1.406-1.406-1.406c-0.547 0-1.016 0.328-1.25 0.781l-3.453-0.766c-0.172-0.047-0.344 0.078-0.391 0.25l-1.078 4.875c-1.875 0.078-3.563 0.641-4.828 1.516-0.344-0.359-0.828-0.578-1.359-0.578-1.031 0-1.875 0.828-1.875 1.859 0 0.75 0.438 1.375 1.062 1.687-0.063 0.281-0.094 0.578-0.094 0.875 0 2.969 3.344 5.375 7.453 5.375 4.125 0 7.469-2.406 7.469-5.375 0-0.297-0.031-0.609-0.109-0.891 0.609-0.313 1.031-0.938 1.031-1.672zM28 14c0 7.734-6.266 14-14 14s-14-6.266-14-14 6.266-14 14-14 14 6.266 14 14z"></path>
  </symbol>
  <symbol id="icon-medium" viewBox="0 0 28 28">
    <title>medium</title>
    <path d="M9.328 6.578v18.328c0 0.484-0.234 0.938-0.766 0.938-0.187 0-0.359-0.047-0.516-0.125l-7.266-3.641c-0.438-0.219-0.781-0.781-0.781-1.25v-17.813c0-0.391 0.187-0.75 0.609-0.75 0.25 0 0.469 0.125 0.688 0.234l7.984 4c0.016 0.016 0.047 0.063 0.047 0.078zM10.328 8.156l8.344 13.531-8.344-4.156v-9.375zM28 8.437v16.469c0 0.516-0.297 0.875-0.812 0.875-0.266 0-0.516-0.078-0.734-0.203l-6.891-3.437zM27.953 6.563c0 0.063-8.078 13.172-8.703 14.172l-6.094-9.906 5.063-8.234c0.172-0.281 0.484-0.438 0.812-0.438 0.141 0 0.281 0.031 0.406 0.094l8.453 4.219c0.031 0.016 0.063 0.047 0.063 0.094z"></path>
  </symbol>
  <symbol id="icon-facebook" viewBox="0 0 32 32">
    <title>facebook</title>
    <path d="M29 0h-26c-1.65 0-3 1.35-3 3v26c0 1.65 1.35 3 3 3h13v-14h-4v-4h4v-2c0-3.306 2.694-6 6-6h4v4h-4c-1.1 0-2 0.9-2 2v2h6l-1 4h-5v14h9c1.65 0 3-1.35 3-3v-26c0-1.65-1.35-3-3-3z"></path>
  </symbol>
  <symbol id="icon-telegram" viewBox="0 0 32 32">
    <title>telegram</title>
    <path d="M16 0c-8.838 0-16 7.162-16 16s7.162 16 16 16 16-7.163 16-16-7.163-16-16-16zM23.863 10.969l-2.625 12.369c-0.181 0.881-0.712 1.087-1.45 0.681l-4-2.956-1.919 1.869c-0.225 0.219-0.4 0.4-0.8 0.4-0.519 0-0.431-0.194-0.606-0.688l-1.363-4.475-3.956-1.231c-0.856-0.262-0.862-0.85 0.194-1.269l15.412-5.95c0.7-0.319 1.381 0.169 1.113 1.25z"></path>
  </symbol>
  <symbol id="icon-twitter" viewBox="0 0 32 32">
    <title>twitter</title>
    <path d="M32 7.075c-1.175 0.525-2.444 0.875-3.769 1.031 1.356-0.813 2.394-2.1 2.887-3.631-1.269 0.75-2.675 1.3-4.169 1.594-1.2-1.275-2.906-2.069-4.794-2.069-3.625 0-6.563 2.938-6.563 6.563 0 0.512 0.056 1.012 0.169 1.494-5.456-0.275-10.294-2.888-13.531-6.862-0.563 0.969-0.887 2.1-0.887 3.3 0 2.275 1.156 4.287 2.919 5.463-1.075-0.031-2.087-0.331-2.975-0.819 0 0.025 0 0.056 0 0.081 0 3.181 2.263 5.838 5.269 6.437-0.55 0.15-1.131 0.231-1.731 0.231-0.425 0-0.831-0.044-1.237-0.119 0.838 2.606 3.263 4.506 6.131 4.563-2.25 1.762-5.075 2.813-8.156 2.813-0.531 0-1.050-0.031-1.569-0.094 2.913 1.869 6.362 2.95 10.069 2.95 12.075 0 18.681-10.006 18.681-18.681 0-0.287-0.006-0.569-0.019-0.85 1.281-0.919 2.394-2.075 3.275-3.394z"></path>
  </symbol>
  <symbol id="icon-linkedin" viewBox="0 0 32 32">
    <title>linkedin</title>
    <path d="M29 0h-26c-1.65 0-3 1.35-3 3v26c0 1.65 1.35 3 3 3h26c1.65 0 3-1.35 3-3v-26c0-1.65-1.35-3-3-3zM12 26h-4v-14h4v14zM10 10c-1.106 0-2-0.894-2-2s0.894-2 2-2c1.106 0 2 0.894 2 2s-0.894 2-2 2zM26 26h-4v-8c0-1.106-0.894-2-2-2s-2 0.894-2 2v8h-4v-14h4v2.481c0.825-1.131 2.087-2.481 3.5-2.481 2.488 0 4.5 2.238 4.5 5v9z"></path>
  </symbol>
  <symbol id="icon-github" viewBox="0 0 32 32">
    <title>github</title>
    <path d="M16 0.395c-8.836 0-16 7.163-16 16 0 7.069 4.585 13.067 10.942 15.182 0.8 0.148 1.094-0.347 1.094-0.77 0-0.381-0.015-1.642-0.022-2.979-4.452 0.968-5.391-1.888-5.391-1.888-0.728-1.849-1.776-2.341-1.776-2.341-1.452-0.993 0.11-0.973 0.11-0.973 1.606 0.113 2.452 1.649 2.452 1.649 1.427 2.446 3.743 1.739 4.656 1.33 0.143-1.034 0.558-1.74 1.016-2.14-3.554-0.404-7.29-1.777-7.29-7.907 0-1.747 0.625-3.174 1.649-4.295-0.166-0.403-0.714-2.030 0.155-4.234 0 0 1.344-0.43 4.401 1.64 1.276-0.355 2.645-0.532 4.005-0.539 1.359 0.006 2.729 0.184 4.008 0.539 3.054-2.070 4.395-1.64 4.395-1.64 0.871 2.204 0.323 3.831 0.157 4.234 1.026 1.12 1.647 2.548 1.647 4.295 0 6.145-3.743 7.498-7.306 7.895 0.574 0.497 1.085 1.47 1.085 2.963 0 2.141-0.019 3.864-0.019 4.391 0 0.426 0.288 0.925 1.099 0.768 6.354-2.118 10.933-8.113 10.933-15.18 0-8.837-7.164-16-16-16z"></path>
  </symbol>
  <symbol id="icon-bitcoin" viewBox="0 0 21 28">
    <title>bitcoin</title>
    <path d="M18.234 10c0.203 2.078-0.672 3.328-2.047 4.031 2.281 0.547 3.719 1.906 3.437 4.953-0.359 3.797-3.172 4.813-7.203 5.031v3.984h-2.406v-3.922c-0.609 0-1.25 0-1.906-0.016v3.938h-2.406v-3.984c-0.562 0-1.125-0.016-1.703-0.016h-3.125l0.484-2.859c1.766 0.031 1.734 0 1.734 0 0.672 0 0.859-0.484 0.906-0.797v-6.281h0.25c-0.094-0.016-0.187-0.016-0.25-0.016v-4.484c-0.094-0.5-0.406-1.062-1.391-1.062 0 0 0.031-0.031-1.734 0v-2.562l3.313 0.016c0.484 0 1 0 1.516-0.016v-3.938h2.406v3.859c0.641-0.016 1.281-0.031 1.906-0.031v-3.828h2.406v3.938c3.094 0.266 5.547 1.219 5.812 4.062zM14.875 18.516c0-3.094-5.094-2.641-6.719-2.641v5.281c1.625 0 6.719 0.344 6.719-2.641zM13.766 11.078c0-2.828-4.25-2.406-5.609-2.406v4.797c1.359 0 5.609 0.313 5.609-2.391z"></path>
  </symbol>
  <symbol id="icon-coin-dollar" viewBox="0 0 32 32">
    <title>coin-dollar</title>
    <path d="M15 2c-8.284 0-15 6.716-15 15s6.716 15 15 15c8.284 0 15-6.716 15-15s-6.716-15-15-15zM15 29c-6.627 0-12-5.373-12-12s5.373-12 12-12c6.627 0 12 5.373 12 12s-5.373 12-12 12zM16 16v-4h4v-2h-4v-2h-2v2h-4v8h4v4h-4v2h4v2h2v-2h4l-0-8h-4zM14 16h-2v-4h2v4zM18 22h-2v-4h2v4z"></path>
  </symbol>
  <symbol id="icon-ethereum" viewBox="0 0 32 32">
    <title>ethereum</title>
    <path d="M15.925 23.96l-9.819-5.8 9.817 13.84 9.827-13.84-9.825 5.8zM16.075 0l-9.821 16.297 9.82 5.805 9.82-5.8-9.819-16.303z"></path>
  </symbol>
  <symbol id="icon-magnifier" viewBox="0 0 32 32">
    <title>magnifier</title>
    <path d="M29.156 29.961l-0.709 0.709c-0.785 0.784-2.055 0.784-2.838 0l-5.676-5.674c-0.656-0.658-0.729-1.644-0.281-2.412l-3.104-3.102c-1.669 1.238-3.728 1.979-5.965 1.979-5.54 0-10.031-4.491-10.031-10.031s4.491-10.032 10.031-10.032c5.541 0 10.031 4.491 10.031 10.032 0 2.579-0.98 4.923-2.58 6.7l3.035 3.035c0.768-0.447 1.754-0.375 2.41 0.283l5.676 5.674c0.784 0.785 0.784 2.056 0.001 2.839zM18.088 11.389c0-4.155-3.369-7.523-7.524-7.523s-7.524 3.367-7.524 7.523 3.368 7.523 7.523 7.523 7.525-3.368 7.525-7.523z"></path>
  </symbol>
  <!-- <symbol id="icon-search-minus" viewBox="0 0 26 28">
    <title>search-minus</title>
    <path d="M16 12.5v1c0 0.266-0.234 0.5-0.5 0.5h-9c-0.266 0-0.5-0.234-0.5-0.5v-1c0-0.266 0.234-0.5 0.5-0.5h9c0.266 0 0.5 0.234 0.5 0.5zM18 13c0-3.859-3.141-7-7-7s-7 3.141-7 7 3.141 7 7 7 7-3.141 7-7zM26 26c0 1.109-0.891 2-2 2-0.531 0-1.047-0.219-1.406-0.594l-5.359-5.344c-1.828 1.266-4.016 1.937-6.234 1.937-6.078 0-11-4.922-11-11s4.922-11 11-11 11 4.922 11 11c0 2.219-0.672 4.406-1.937 6.234l5.359 5.359c0.359 0.359 0.578 0.875 0.578 1.406z"></path>
  </symbol>
  <symbol id="icon-search-plus" viewBox="0 0 26 28">
    <title>search-plus</title>
    <path d="M16 12.5v1c0 0.266-0.234 0.5-0.5 0.5h-3.5v3.5c0 0.266-0.234 0.5-0.5 0.5h-1c-0.266 0-0.5-0.234-0.5-0.5v-3.5h-3.5c-0.266 0-0.5-0.234-0.5-0.5v-1c0-0.266 0.234-0.5 0.5-0.5h3.5v-3.5c0-0.266 0.234-0.5 0.5-0.5h1c0.266 0 0.5 0.234 0.5 0.5v3.5h3.5c0.266 0 0.5 0.234 0.5 0.5zM18 13c0-3.859-3.141-7-7-7s-7 3.141-7 7 3.141 7 7 7 7-3.141 7-7zM26 26c0 1.109-0.891 2-2 2-0.531 0-1.047-0.219-1.406-0.594l-5.359-5.344c-1.828 1.266-4.016 1.937-6.234 1.937-6.078 0-11-4.922-11-11s4.922-11 11-11 11 4.922 11 11c0 2.219-0.672 4.406-1.937 6.234l5.359 5.359c0.359 0.359 0.578 0.875 0.578 1.406z"></path>
  </symbol>
  <symbol id="icon-map" viewBox="0 0 24 24">
    <title>map</title>
    <path d="M23.5 1.1c-0.3-0.2-0.7-0.2-1 0l-6.5 3.8-7.6-3.8c0 0 0 0 0 0s0 0-0.1 0c-0.1-0.1-0.2-0.1-0.3-0.1 0 0 0 0 0 0s0 0 0 0c-0.1 0-0.2 0-0.4 0.1 0 0 0 0-0.1 0 0 0-0.1 0-0.1 0l-7 4c-0.2 0.2-0.4 0.5-0.4 0.9v16c0 0.4 0.2 0.7 0.5 0.9s0.7 0.2 1 0l6.5-3.8 7.5 3.8c0 0 0 0 0 0 0.2 0.1 0.3 0.1 0.5 0.1 0.1 0 0.2 0 0.3-0.1 0 0 0.1 0 0.1 0s0 0 0.1 0l7-4c0.3-0.2 0.5-0.5 0.5-0.9v-16c0-0.4-0.2-0.7-0.5-0.9zM9 3.6l6 3v13.8l-6-3v-13.8zM2 6.6l5-2.9v13.7l-5 2.9v-13.7zM22 17.4l-5 2.9v-13.7l5-2.9v13.7z"></path>
  </symbol> -->
  <symbol id="icon-location_disabled" viewBox="0 0 24 24">
    <title>location_disabled</title>
    <path d="M16.266 17.531l-9.797-9.797c-0.891 1.172-1.453 2.672-1.453 4.266 0 3.891 3.094 6.984 6.984 6.984 1.594 0 3.094-0.563 4.266-1.453zM3 4.266l1.266-1.266 16.734 16.734-1.266 1.266-2.063-2.063c-1.313 1.078-2.906 1.828-4.688 2.016v2.063h-1.969v-2.063c-4.172-0.469-7.5-3.797-7.969-7.969h-2.063v-1.969h2.063c0.188-1.781 0.938-3.375 2.016-4.688zM20.953 11.016h2.063v1.969h-2.063c-0.141 1.125-0.469 2.25-0.984 3.188l-1.5-1.5c0.328-0.797 0.516-1.734 0.516-2.672 0-3.891-3.094-6.984-6.984-6.984-0.938 0-1.875 0.188-2.672 0.516l-1.5-1.5c0.984-0.516 2.063-0.844 3.188-0.984v-2.063h1.969v2.063c4.172 0.469 7.5 3.797 7.969 7.969z"></path>
  </symbol>
  <symbol id="icon-my_location" viewBox="0 0 24 24">
    <title>my_location</title>
    <path d="M12 18.984c3.891 0 6.984-3.094 6.984-6.984s-3.094-6.984-6.984-6.984-6.984 3.094-6.984 6.984 3.094 6.984 6.984 6.984zM20.953 11.016h2.063v1.969h-2.063c-0.469 4.172-3.797 7.5-7.969 7.969v2.063h-1.969v-2.063c-4.172-0.469-7.5-3.797-7.969-7.969h-2.063v-1.969h2.063c0.469-4.172 3.797-7.5 7.969-7.969v-2.063h1.969v2.063c4.172 0.469 7.5 3.797 7.969 7.969zM12 8.016c2.203 0 3.984 1.781 3.984 3.984s-1.781 3.984-3.984 3.984-3.984-1.781-3.984-3.984 1.781-3.984 3.984-3.984z"></path>
  </symbol>
  <symbol id="icon-sale-unit" viewBox="0 0 24 32">
    <title>sale-unit</title>
    <path d="M0 4v-4h24v4z"></path>
    <path d="M4 16v-4h16v4z"></path>
    <path d="M0 32v-4h24v4z"></path>
  </symbol>
  <symbol id="icon-auction" viewBox="0 0 32 32">
    <title>auction</title>
    <path d="M3.981 15.418c-0.756-0.050-1.511 0.322-1.915 1.023-0.567 0.982-0.231 2.238 0.752 2.805l8.713 5.030c0.982 0.567 2.238 0.231 2.805-0.752l0.071-0.123c0.528-0.914 0.215-2.084-0.7-2.612l2.147-3.731 12.049 6.957c1 0.577 2.278 0.235 2.855-0.765s0.235-2.278-0.765-2.855l-12.055-6.96 1.603-2.786-5.278-3.047 1.067-1.848 5.284 3.051-0.172 0.298c0.913 0.522 2.078 0.208 2.604-0.704l0.068-0.118c0.551-0.955 0.224-2.175-0.73-2.726-0.015-0.009-0.030-0.017-0.045-0.025l-9.016-4.897c-0.912-0.495-2.052-0.174-2.57 0.725-0.515 0.892-0.209 2.032 0.682 2.546l0.174 0.101-5.786 10.055 4.199 2.625-1.131 1.809-4.912-3.071 0.003-0.004zM13.826 26.224h-11.636c-1.071 0-1.939 0.868-1.939 1.939s0.868 1.939 1.939 1.939h11.636c1.071 0 1.939-0.868 1.939-1.939s-0.868-1.939-1.939-1.939z"></path>
  </symbol>
  <symbol id="icon-tx" viewBox="0 0 42 32">
    <title>tx</title>
    <path fill="#edebff" style="fill: var(--color4, #edebff)" d="M30.080 13.44c0 7.069-5.731 12.8-12.8 12.8s-12.8-5.731-12.8-12.8c0-7.069 5.731-12.8 12.8-12.8s12.8 5.731 12.8 12.8z"></path>
    <path fill="none" stroke="#7769ff" stroke-width="1.28" stroke-miterlimit="4" stroke-linecap="butt" stroke-linejoin="miter" style="stroke: var(--color3, #7769ff)" d="M13.499 12.112h3.592c0.622 0 1.153-0.446 1.261-1.059l0.968-5.515c0.108-0.612 0.639-1.059 1.261-1.059h0.64c0.707 0 1.28 0.573 1.28 1.28 0 0.074-0.006 0.148-0.019 0.221l-0.813 4.629c-0.122 0.696 0.343 1.36 1.039 1.482 0.073 0.013 0.147 0.019 0.221 0.019h3.693c0.622 0 1.153-0.446 1.261-1.059l0.968-5.515c0.108-0.612 0.639-1.059 1.261-1.059h0.64c0.707 0 1.28 0.573 1.28 1.28 0 0.074-0.006 0.148-0.019 0.221l-0.813 4.629c-0.122 0.696 0.343 1.36 1.039 1.482 0.073 0.013 0.147 0.019 0.221 0.019h2.933c0.661 0 1.197 0.536 1.197 1.197 0 0.079-0.008 0.158-0.024 0.236l-0.082 0.406c-0.12 0.598-0.645 1.027-1.255 1.027h-3.806c-0.609 0-1.134 0.429-1.255 1.027l-0.637 3.155c-0.14 0.693 0.308 1.368 1.001 1.508 0.083 0.017 0.168 0.025 0.253 0.025h2.699c0.66 0 1.194 0.535 1.194 1.194 0 0.077-0.007 0.154-0.022 0.23l-0.077 0.39c-0.118 0.601-0.644 1.034-1.256 1.034h-3.603c-0.623 0-1.155 0.448-1.261 1.062l-0.954 5.509c-0.106 0.614-0.639 1.062-1.261 1.062h-0.641c-0.707 0-1.28-0.573-1.28-1.28 0-0.073 0.006-0.146 0.019-0.218l0.803-4.635c0.121-0.697-0.346-1.359-1.043-1.48-0.072-0.012-0.145-0.019-0.218-0.019h-3.694c-0.623 0-1.155 0.448-1.261 1.062l-0.954 5.509c-0.106 0.614-0.639 1.062-1.261 1.062h-0.641c-0.707 0-1.28-0.573-1.28-1.28 0-0.073 0.006-0.146 0.019-0.218l0.803-4.635c0.121-0.697-0.346-1.359-1.043-1.48-0.072-0.012-0.145-0.019-0.218-0.019h-2.927c-0.656 0-1.188-0.532-1.188-1.188 0-0.079 0.008-0.158 0.024-0.236l0.081-0.398c0.121-0.597 0.646-1.026 1.255-1.026h3.776c0.606 0 1.129-0.425 1.253-1.019l0.658-3.155c0.144-0.692-0.3-1.37-0.992-1.514-0.086-0.018-0.173-0.027-0.261-0.027h-2.697c-0.661 0-1.197-0.536-1.197-1.197 0-0.079 0.008-0.158 0.024-0.236l0.082-0.406c0.12-0.598 0.645-1.027 1.255-1.027zM20.846 14.979l-1.154 5.715h6.292l1.154-5.715h-6.292z"></path>
  </symbol>
  <symbol id="icon-search-plus" viewBox="0 0 32 32">
    <title>search-plus</title>
    <path stroke="none" d="M22.353 4.157v-2.275c0-0.65 0.527-1.176 1.176-1.176s1.176 0.527 1.176 1.176v2.275h2.303c0.65 0 1.176 0.527 1.176 1.176s-0.527 1.176-1.176 1.176h-2.303v2.303c0 0.65-0.527 1.176-1.176 1.176s-1.176-0.527-1.176-1.176v-2.303h-2.274c-0.65 0-1.176-0.527-1.176-1.176s0.527-1.176 1.176-1.176h2.274z"></path>
    <path stroke="none" d="M20.346 20.083c0.331-0.383 0.908-0.437 1.304-0.116l5.005 4.053c0.404 0.327 0.466 0.92 0.139 1.324l-1.195 1.476c-0.327 0.404-0.92 0.466-1.324 0.139l-5.005-4.053c-0.286-0.232-0.401-0.596-0.327-0.933l-2.965-2.316 1.449-1.854 2.919 2.28z"></path>
    <path fill="none" stroke-width="1.8824" stroke-miterlimit="4" stroke-linecap="butt" stroke-linejoin="miter" d="M17.589 19.123l-0.29 0.371 2.689 2.101-0.126 0.578c-0 0.001-0 0.001 0 0.001l5.005 4.053 1.195-1.476-5.005-4.053c0 0-0 0 0-0l-0.586 0.679-2.883-2.253z"></path>
    <path stroke="none" d="M19.611 13.247c0.559 4.555-2.68 8.701-7.235 9.26s-8.701-2.68-9.26-7.235c-0.559-4.555 2.68-8.701 7.235-9.26s8.701 2.68 9.26 7.235zM17.275 13.534c-0.401-3.265-3.373-5.587-6.638-5.186s-5.587 3.373-5.186 6.638c0.401 3.265 3.373 5.587 6.638 5.186s5.587-3.373 5.186-6.638z"></path>
  </symbol>
  <symbol id="icon-search-minus" viewBox="0 0 32 32">
    <title>search-minus</title>
    <path stroke="none" d="M20.078 6.51c-0.65 0-1.176-0.527-1.176-1.176s0.527-1.176 1.176-1.176h6.93c0.65 0 1.176 0.527 1.176 1.176s-0.527 1.176-1.176 1.176h-6.93z"></path>
    <path stroke="none" d="M19.611 13.247c0.559 4.555-2.68 8.701-7.235 9.26s-8.701-2.68-9.26-7.235c-0.559-4.555 2.68-8.701 7.235-9.26s8.701 2.68 9.26 7.235zM17.275 13.534c-0.401-3.265-3.373-5.587-6.638-5.186s-5.587 3.373-5.186 6.638c0.401 3.265 3.373 5.587 6.638 5.186s5.587-3.373 5.186-6.638z"></path>
    <path stroke="none" d="M20.346 20.083c0.331-0.383 0.908-0.437 1.304-0.116l5.005 4.053c0.404 0.327 0.466 0.92 0.139 1.324l-1.195 1.476c-0.327 0.404-0.92 0.466-1.324 0.139l-5.005-4.053c-0.286-0.232-0.401-0.596-0.327-0.933l-2.965-2.316 1.449-1.854 2.919 2.28z"></path>
    <path fill="none" stroke-width="1.8824" stroke-miterlimit="4" stroke-linecap="butt" stroke-linejoin="miter" d="M17.589 19.123l-0.29 0.371 2.689 2.101-0.126 0.578c-0 0.001-0 0.001 0 0.001l5.005 4.053 1.195-1.476-5.005-4.053c0 0-0 0 0-0l-0.586 0.679-2.883-2.253z"></path>
  </symbol>
  <symbol id="icon-map" viewBox="0 0 32 32">
    <title>map</title>
    <path fill="#776aff" style="fill: var(--color1, #776aff)" d="M4.235 10.188v16.749l2.901-1.469c1.088-0.551 2.361-0.606 3.492-0.152l5.375 2.159 5.421-2.163c1.133-0.452 2.407-0.394 3.494 0.161l2.847 1.452v-16.786l-4.599-3.098-5.173 2.703c-1.268 0.663-2.785 0.64-4.033-0.060l-4.711-2.642-5.014 3.146zM2.764 8.334l5.471-3.433c0.583-0.366 1.32-0.384 1.921-0.047l4.955 2.778c0.555 0.311 1.229 0.321 1.792 0.027l5.421-2.832c0.612-0.32 1.35-0.279 1.923 0.107l5.039 3.394c0.519 0.35 0.831 0.935 0.831 1.561v19.341c0 0.52-0.421 0.941-0.941 0.941-0.149 0-0.295-0.035-0.428-0.103l-4.9-2.499c-0.483-0.246-1.049-0.272-1.553-0.071l-5.596 2.233c-0.449 0.179-0.95 0.179-1.399-0.002l-5.55-2.229c-0.503-0.202-1.069-0.177-1.552 0.067l-4.95 2.507c-0.464 0.235-1.030 0.049-1.265-0.414-0.067-0.132-0.102-0.277-0.102-0.425v-19.306c0-0.648 0.333-1.25 0.882-1.595z"></path>
    <path fill="#fff" style="fill: var(--color2, #fff)" d="M19.983 19.634c0.629 0 7.099-7.673 7.099-11.594s-3.178-7.099-7.099-7.099c-3.921 0-7.099 3.179-7.099 7.099s6.471 11.594 7.099 11.594z"></path>
    <path fill="#776aff" style="fill: var(--color1, #776aff)" d="M8.143 4.969l1.882 0.012-0.143 22.085-1.882-0.012 0.143-22.085zM21.882 20.605c0-0.65 0.527-1.176 1.176-1.176s1.176 0.527 1.176 1.176v5.454c0 0.65-0.527 1.176-1.176 1.176s-1.176-0.527-1.176-1.176v-5.453z"></path>
    <path fill="#776aff" style="fill: var(--color1, #776aff)" d="M19.983 17.675c-0.497 0-5.611-6.065-5.611-9.164s2.512-5.611 5.611-5.611c3.099 0 5.611 2.512 5.611 5.611s-5.114 9.164-5.611 9.164zM20.025 9.642c0.928 0 1.68-0.752 1.68-1.68s-0.752-1.68-1.68-1.68c-0.928 0-1.68 0.752-1.68 1.68s0.752 1.68 1.68 1.68z"></path>
  </symbol>
  <symbol id="icon-marketplace" viewBox="0 0 32 32">
    <title>marketplace</title>
    <path fill="#7769ff" style="fill: var(--color3, #7769ff)" d="M29.388 12.031h-28.108l2.995-7.572c0.499-1.124 1.612-1.849 2.841-1.849h16.436c1.229 0 2.342 0.725 2.841 1.849l2.995 7.572zM21.639 4.556l-4.283 4.281c-0.25 0.25-0.25 0.655-0 0.905s0.655 0.25 0.905 0l4.283-4.281c0.25-0.25 0.25-0.655 0-0.905s-0.655-0.25-0.905-0zM22.637 6.393l-2.22 2.219c-0.25 0.25-0.25 0.655-0 0.905s0.655 0.25 0.905 0l2.22-2.219c0.25-0.25 0.25-0.655 0-0.905s-0.655-0.25-0.905-0z"></path>
    <path fill="#7769ff" style="fill: var(--color3, #7769ff)" d="M8.626 27.488v-7.119c0-0.353 0.287-0.64 0.64-0.64h4.842c0.353 0 0.64 0.287 0.64 0.64v7.119h10.696v-13.204c0-0.442 0.358-0.8 0.8-0.8s0.8 0.358 0.8 0.8v14.004c0 0.442-0.358 0.8-0.8 0.8h-21.767c-0.442 0-0.8-0.358-0.8-0.8v-14.004c0-0.442 0.358-0.8 0.8-0.8s0.8 0.358 0.8 0.8v13.204h3.35z"></path>
    <path fill="#fff" style="fill: var(--color2, #fff)" d="M4.365 17.529c-2.634 0-4.365-2.054-4.365-5.966 0-0.407 0.299-0.737 0.668-0.737h29.384c0.369 0 0.668 0.33 0.668 0.737 0 3.611-1.86 5.966-4.365 5.966-1.532 0-2.878-0.765-3.665-2.003-0.787 1.238-2.133 2.003-3.665 2.003s-2.878-0.765-3.665-2.003c-0.787 1.238-2.133 2.003-3.665 2.003s-2.878-0.765-3.665-2.003c-0.787 1.238-2.133 2.003-3.665 2.003zM1.359 12.3c0.172 2.6 1.287 3.754 3.006 3.754 1.532 0 2.754-1.033 3.009-2.526 0.137-0.801 1.176-0.801 1.313 0 0.255 1.493 1.476 2.526 3.009 2.526s2.753-1.033 3.009-2.526c0.137-0.801 1.176-0.801 1.312 0 0.255 1.493 1.476 2.526 3.009 2.526s2.754-1.033 3.009-2.526c0.137-0.801 1.176-0.801 1.313 0 0.255 1.493 1.476 2.526 3.009 2.526 1.568 0 2.791-1.37 2.998-3.754h-27.994z"></path>
    <path fill="#7769ff" style="fill: var(--color3, #7769ff)" d="M22.255 11.908h-20.655c0 3.418 1.685 4.538 3.463 4.538 1.711 0 3.133-1.091 3.432-2.713 0.299 1.623 1.721 2.713 3.432 2.713s3.133-1.091 3.432-2.713c0.299 1.623 1.721 2.713 3.432 2.713s3.133-1.091 3.432-2.714c0.299 1.623 1.721 2.714 3.432 2.714 1.778 0 3.463-1.503 3.463-4.538h-6.865z"></path>
    <path fill="#7769ff" style="fill: var(--color3, #7769ff)" d="M17.197 18.504h5.51v5.51h-5.51v-5.51z"></path>
  </symbol>
  <symbol id="icon-price" viewBox="0 0 42 32">
    <title>price</title>
    <path fill="#edebff" style="fill: var(--color4, #edebff)" d="M26.24 12.48c0 6.539-5.301 11.84-11.84 11.84s-11.84-5.301-11.84-11.84c0-6.539 5.301-11.84 11.84-11.84s11.84 5.301 11.84 11.84z"></path>
    <path fill="none" stroke="#7763ff" stroke-width="1.28" stroke-miterlimit="4" stroke-linecap="butt" stroke-linejoin="miter" style="stroke: var(--color5, #7763ff)" d="M37.214 23.845l-11.207-6.47-2.138 3.715 1.368 0.79-1.259 2.038-9.161-5.289 1.259-2.038 1.514 0.874 5.231-9.088-1.511-0.873 1.087-2.008 9.283 5.076-1.208 2.221-1.372-0.792-2.065 3.587 11.209 6.472c0.459 0.265 0.616 0.852 0.351 1.311l-0.070 0.122c-0.265 0.459-0.852 0.616-1.311 0.351z"></path>
    <path fill="#7769ff" style="fill: var(--color3, #7769ff)" d="M27.058 27.29h-16.64v2.56h16.64v-2.56z"></path>
    <path fill="none" stroke="#7763ff" stroke-width="1.28" stroke-miterlimit="4" stroke-linecap="butt" stroke-linejoin="miter" style="stroke: var(--color5, #7763ff)" d="M26.418 27.93h-15.36v1.28h15.36v-1.28z"></path>
    <path fill="none" stroke="#7763ff" stroke-width="1.28" stroke-miterlimit="4" stroke-linecap="butt" stroke-linejoin="miter" style="stroke: var(--color5, #7763ff)" d="M24.947 9.258v0z"></path>
  </symbol>
  <symbol id="icon-hourglass" viewBox="0 0 42 32">
    <title>hourglass</title>
    <path fill="#edebff" style="fill: var(--color4, #edebff)" d="M28.16 12.48c0 6.893-5.588 12.48-12.48 12.48s-12.48-5.587-12.48-12.48c0-6.893 5.588-12.48 12.48-12.48s12.48 5.588 12.48 12.48z"></path>
    <path fill="none" stroke="#7769ff" stroke-width="1.28" stroke-miterlimit="4" stroke-linecap="butt" stroke-linejoin="miter" style="stroke: var(--color3, #7769ff)" d="M30.4 30.080h-2.88v-6.011c0-2.649-1.546-5.017-3.911-6.107l-1.261-0.581 1.261-0.581c2.364-1.090 3.911-3.458 3.911-6.107v-5.574h2.88c0.177 0 0.32-0.143 0.32-0.32s-0.143-0.32-0.32-0.32h-18.56c-0.177 0-0.32 0.143-0.32 0.32s0.143 0.32 0.32 0.32h2.24v5.574c0 2.649 1.546 5.017 3.911 6.107l1.261 0.581-1.261 0.581c-2.364 1.090-3.911 3.458-3.911 6.107v6.011h-2.24c-0.177 0-0.32 0.143-0.32 0.32s0.143 0.32 0.32 0.32h18.56c0.177 0 0.32-0.143 0.32-0.32s-0.143-0.32-0.32-0.32z"></path>
    <path fill="none" stroke="#776aff" stroke-width="1.28" stroke-miterlimit="4" stroke-linecap="round" stroke-linejoin="round" style="stroke: var(--color1, #776aff)" d="M25.315 7.136c0 1.787 0 2.829 0 3.127 0 2.15-0.756 3.594-2.079 4.227"></path>
    <path fill="none" stroke="#776aff" stroke-width="1.28" stroke-miterlimit="4" stroke-linecap="round" stroke-linejoin="round" style="stroke: var(--color1, #776aff)" d="M16.558 27.514h8.312"></path>
  </symbol>
  <symbol id="icon-share" viewBox="0 0 32 32">
    <title>share</title>
    <path d="M27 22c-1.411 0-2.685 0.586-3.594 1.526l-13.469-6.734c0.041-0.258 0.063-0.522 0.063-0.791s-0.022-0.534-0.063-0.791l13.469-6.734c0.909 0.94 2.183 1.526 3.594 1.526 2.761 0 5-2.239 5-5s-2.239-5-5-5-5 2.239-5 5c0 0.269 0.022 0.534 0.063 0.791l-13.469 6.734c-0.909-0.94-2.183-1.526-3.594-1.526-2.761 0-5 2.239-5 5s2.239 5 5 5c1.411 0 2.685-0.586 3.594-1.526l13.469 6.734c-0.041 0.258-0.063 0.522-0.063 0.791 0 2.761 2.239 5 5 5s5-2.239 5-5c0-2.761-2.239-5-5-5z"></path>
  </symbol>
  <symbol id="icon-hot" viewBox="0 0 20 20">
    <title>hot</title>
    <path d="M10 0s8 7.58 8 12c0 4.418-3.582 8-8 8s-8-3.582-8-8v0c0-1.5 0.91-3.35 2.12-5.15 0.376 1.258 1.522 2.16 2.88 2.16 1.657 0 3-1.343 3-3 0-0.004 0-0.007-0-0.011v0.001-6zM8 0c-1.657 0-3 1.343-3 3s1.343 3 3 3v0-6z"></path>
  </symbol>
</svg>
