<svg xmlns="http://www.w3.org/2000/svg" xmlns:xlink="http://www.w3.org/1999/xlink" viewBox="0 0 320 320">
  <symbol id="icon-cross" viewBox="0 0 32 32">
    <title>cross</title>
    <path d="M31.708 25.708c-0-0-0-0-0-0l-9.708-9.708 9.708-9.708c0-0 0-0 0-0 0.105-0.105 0.18-0.227 0.229-0.357 0.133-0.356 0.057-0.771-0.229-1.057l-4.586-4.586c-0.286-0.286-0.702-0.361-1.057-0.229-0.13 0.048-0.252 0.124-0.357 0.228 0 0-0 0-0 0l-9.708 9.708-9.708-9.708c-0-0-0-0-0-0-0.105-0.104-0.227-0.18-0.357-0.228-0.356-0.133-0.771-0.057-1.057 0.229l-4.586 4.586c-0.286 0.286-0.361 0.702-0.229 1.057 0.049 0.13 0.124 0.252 0.229 0.357 0 0 0 0 0 0l9.708 9.708-9.708 9.708c-0 0-0 0-0 0-0.104 0.105-0.18 0.227-0.229 0.357-0.133 0.355-0.057 0.771 0.229 1.057l4.586 4.586c0.286 0.286 0.702 0.361 1.057 0.229 0.13-0.049 0.252-0.124 0.357-0.229 0-0 0-0 0-0l9.708-9.708 9.708 9.708c0 0 0 0 0 0 0.105 0.105 0.227 0.18 0.357 0.229 0.356 0.133 0.771 0.057 1.057-0.229l4.586-4.586c0.286-0.286 0.362-0.702 0.229-1.057-0.049-0.13-0.124-0.252-0.229-0.357z"></path>
  </symbol>
  <symbol id="icon-logo-image" viewBox="0 0 45 32">
    <title>icon-logo-image</title>
    <path d="M26.441 31.649c0 0.659-23.137 0.467-22.894-1.252 0.538-3.817 22.894-6.796 22.894 1.252z"></path>
    <path d="M41.767 12.703v1.553h-1.406v4.278h-2.129v-3.431h-1.297v-6.718l-1.766-1.855-1.478 1.552v1.401h-1.513v3.029h-3.281v4.77h-2.233v-3.449h-1.192v-8.4h-1.153v-1.212h-3.391v1.325h-1.224v6.966h-2.271v4.743h-2.054v-4.706h-2.451v-4.542h-1.262v-1.476h-2.126v1.401h-1.37v10.562h-2.091v-3.37h-2.415v-2.42h-3.666l3.354 17.274c0.065-2.445 8.637-4.423 19.203-4.423 10.607 0 19.207 1.992 19.207 4.45-0.002 0.097-0.017 0.194-0.045 0.287h0.045l3.505-17.589z"></path>
    <path d="M21.867 0h1.312v4.22h-1.312v-4.22z"></path>
  </symbol>
  <symbol id="icon-logo-text" viewBox="0 0 119 32">
    <title>icon-logo-text</title>
    <path d="M13.509 21.936c-0.407-0.469 0.034-1.601 1.067-3.035 0.406 0.97 1.029 1.834 1.82 2.527-0.932 0.466-1.713 0.724-2.246 0.724-0.236 0.021-0.469-0.062-0.637-0.227zM26.878 9.595c0.209-0.005 0.411 0.073 0.562 0.219 0.803 0.924-1.654 4.38-5.489 7.716-0.281 0.244-0.562 0.48-0.842 0.71 0.244-0.227 0.486-0.46 0.727-0.699 2.055-2.036 3.65-4.074 4.493-5.616-0.507-0.626-1.119-1.16-1.808-1.578 1.011-0.508 1.839-0.764 2.375-0.719 0.001-0.010 0.001-0.021 0-0.031zM23.929 10.027c-2.248-1.073-4.9-0.85-6.937 0.584s-3.142 3.854-2.891 6.332c0.045 0.431 0.13 0.857 0.253 1.272 0.112-0.101 0.222-0.205 0.34-0.306l-0.337 0.376c-2.221 2.572-3.35 4.7-2.701 5.445s2.755-0.020 5.467-1.727c1.831-1.178 3.572-2.492 5.206-3.931l0.227-0.202c-1.267 1.407-2.62 2.734-4.052 3.973-0.225 0.194-0.444 0.379-0.665 0.562 2.642 1.341 5.846 0.843 7.956-1.236s2.655-5.276 1.352-7.937c1.949-2.353 2.903-4.265 2.297-4.962-0.203-0.201-0.484-0.304-0.769-0.281-1.005 0-2.721 0.75-4.773 2.044z"></path>
    <path d="M7.666 20.282v3.215h-7.666v-14.997h3.65v11.793z"></path>
    <path d="M33.516 23.497v-14.997h5.616c2.69 0 4.81 1.786 4.81 4.726 0 2.246-1.261 3.822-3.044 4.431l3.779 5.84h-3.998l-3.507-5.546v5.546zM38.786 14.717c1.050 0 1.513-0.609 1.513-1.491 0.023-0.408-0.129-0.807-0.418-1.095s-0.687-0.441-1.096-0.418h-1.615v3.005z"></path>
    <path d="M54.96 23.497h-5.144v-14.997h5.144c4.832 0 7.267 3.76 7.267 7.52s-2.415 7.478-7.267 7.478zM54.415 20.304c2.527 0 3.97-2.039 3.97-4.265s-1.471-4.327-3.97-4.327h-0.946v8.592z"></path>
    <path d="M75.036 20.282v3.215h-7.666v-14.997h3.65v11.793z"></path>
    <path d="M99.446 11.546c-0.901 0-1.637 0.441-1.637 1.28 0 0.609 0.421 1.050 1.744 1.238 2.96 0.441 4.411 2.395 4.411 4.684 0 2.457-1.893 4.875-5.461 4.875-2.69 0-4.327-0.842-5.756-1.966l1.828-2.648c1.032 0.882 2.338 1.379 3.695 1.404 1.199 0 1.828-0.713 1.828-1.511 0-1.008-0.671-1.64-1.994-1.87-3.066-0.545-4.285-2.081-4.285-4.013 0-2.71 2.162-4.641 5.481-4.641 1.433-0.042 2.848 0.33 4.074 1.073l-1.28 2.96c-0.779-0.541-1.7-0.841-2.648-0.865z"></path>
    <path d="M114.611 11.546c-0.904 0-1.637 0.441-1.637 1.28 0 0.609 0.418 1.050 1.741 1.238 2.962 0.441 4.411 2.395 4.411 4.684 0 2.457-1.89 4.875-5.459 4.875-2.69 0-4.33-0.842-5.756-1.966l1.828-2.648c1.031 0.883 2.338 1.379 3.695 1.404 1.199 0 1.828-0.713 1.828-1.511 0-1.008-0.671-1.64-1.996-1.87-3.066-0.545-4.285-2.081-4.285-4.013 0-2.71 2.165-4.641 5.484-4.641 1.433-0.042 2.848 0.33 4.074 1.073l-1.28 2.96c-0.779-0.541-1.7-0.841-2.648-0.865z"></path>
    <path d="M80.29 8.5v3.221h3.656v-0.008h4.411v-3.212z"></path>
    <path d="M83.946 17.595h4.159v-3.215h-2.404v0.028h-5.411v9.089h8.067v-3.215h-4.411z"></path>
  </symbol>
  <symbol id="icon-reddit" viewBox="0 0 28 28">
    <title>reddit</title>
    <path d="M17.109 18.234c0.141 0.141 0.141 0.359 0 0.484-0.891 0.891-2.609 0.969-3.109 0.969s-2.219-0.078-3.109-0.969c-0.141-0.125-0.141-0.344 0-0.484 0.125-0.125 0.344-0.125 0.469 0 0.562 0.578 1.781 0.766 2.641 0.766s2.063-0.187 2.641-0.766c0.125-0.125 0.344-0.125 0.469 0zM12.313 15.406c0 0.766-0.625 1.391-1.391 1.391-0.781 0-1.406-0.625-1.406-1.391 0-0.781 0.625-1.406 1.406-1.406 0.766 0 1.391 0.625 1.391 1.406zM18.484 15.406c0 0.766-0.625 1.391-1.406 1.391-0.766 0-1.391-0.625-1.391-1.391 0-0.781 0.625-1.406 1.391-1.406 0.781 0 1.406 0.625 1.406 1.406zM22.406 13.531c0-1.031-0.844-1.859-1.875-1.859-0.531 0-1 0.219-1.344 0.562-1.266-0.875-2.969-1.437-4.859-1.5l0.984-4.422 3.125 0.703c0 0.766 0.625 1.391 1.391 1.391 0.781 0 1.406-0.641 1.406-1.406s-0.625-1.406-1.406-1.406c-0.547 0-1.016 0.328-1.25 0.781l-3.453-0.766c-0.172-0.047-0.344 0.078-0.391 0.25l-1.078 4.875c-1.875 0.078-3.563 0.641-4.828 1.516-0.344-0.359-0.828-0.578-1.359-0.578-1.031 0-1.875 0.828-1.875 1.859 0 0.75 0.438 1.375 1.062 1.687-0.063 0.281-0.094 0.578-0.094 0.875 0 2.969 3.344 5.375 7.453 5.375 4.125 0 7.469-2.406 7.469-5.375 0-0.297-0.031-0.609-0.109-0.891 0.609-0.313 1.031-0.938 1.031-1.672zM28 14c0 7.734-6.266 14-14 14s-14-6.266-14-14 6.266-14 14-14 14 6.266 14 14z"></path>
  </symbol>
  <symbol id="icon-medium" viewBox="0 0 28 28">
    <title>medium</title>
    <path d="M9.328 6.578v18.328c0 0.484-0.234 0.938-0.766 0.938-0.187 0-0.359-0.047-0.516-0.125l-7.266-3.641c-0.438-0.219-0.781-0.781-0.781-1.25v-17.813c0-0.391 0.187-0.75 0.609-0.75 0.25 0 0.469 0.125 0.688 0.234l7.984 4c0.016 0.016 0.047 0.063 0.047 0.078zM10.328 8.156l8.344 13.531-8.344-4.156v-9.375zM28 8.437v16.469c0 0.516-0.297 0.875-0.812 0.875-0.266 0-0.516-0.078-0.734-0.203l-6.891-3.437zM27.953 6.563c0 0.063-8.078 13.172-8.703 14.172l-6.094-9.906 5.063-8.234c0.172-0.281 0.484-0.438 0.812-0.438 0.141 0 0.281 0.031 0.406 0.094l8.453 4.219c0.031 0.016 0.063 0.047 0.063 0.094z"></path>
  </symbol>
  <symbol id="icon-facebook" viewBox="0 0 32 32">
    <title>facebook</title>
    <path d="M29 0h-26c-1.65 0-3 1.35-3 3v26c0 1.65 1.35 3 3 3h13v-14h-4v-4h4v-2c0-3.306 2.694-6 6-6h4v4h-4c-1.1 0-2 0.9-2 2v2h6l-1 4h-5v14h9c1.65 0 3-1.35 3-3v-26c0-1.65-1.35-3-3-3z"></path>
  </symbol>
  <symbol id="icon-telegram" viewBox="0 0 32 32">
    <title>telegram</title>
    <path d="M16 0c-8.838 0-16 7.162-16 16s7.162 16 16 16 16-7.163 16-16-7.163-16-16-16zM23.863 10.969l-2.625 12.369c-0.181 0.881-0.712 1.087-1.45 0.681l-4-2.956-1.919 1.869c-0.225 0.219-0.4 0.4-0.8 0.4-0.519 0-0.431-0.194-0.606-0.688l-1.363-4.475-3.956-1.231c-0.856-0.262-0.862-0.85 0.194-1.269l15.412-5.95c0.7-0.319 1.381 0.169 1.113 1.25z"></path>
  </symbol>
  <symbol id="icon-twitter" viewBox="0 0 32 32">
    <title>twitter</title>
    <path d="M32 7.075c-1.175 0.525-2.444 0.875-3.769 1.031 1.356-0.813 2.394-2.1 2.887-3.631-1.269 0.75-2.675 1.3-4.169 1.594-1.2-1.275-2.906-2.069-4.794-2.069-3.625 0-6.563 2.938-6.563 6.563 0 0.512 0.056 1.012 0.169 1.494-5.456-0.275-10.294-2.888-13.531-6.862-0.563 0.969-0.887 2.1-0.887 3.3 0 2.275 1.156 4.287 2.919 5.463-1.075-0.031-2.087-0.331-2.975-0.819 0 0.025 0 0.056 0 0.081 0 3.181 2.263 5.838 5.269 6.437-0.55 0.15-1.131 0.231-1.731 0.231-0.425 0-0.831-0.044-1.237-0.119 0.838 2.606 3.263 4.506 6.131 4.563-2.25 1.762-5.075 2.813-8.156 2.813-0.531 0-1.050-0.031-1.569-0.094 2.913 1.869 6.362 2.95 10.069 2.95 12.075 0 18.681-10.006 18.681-18.681 0-0.287-0.006-0.569-0.019-0.85 1.281-0.919 2.394-2.075 3.275-3.394z"></path>
  </symbol>
  <symbol id="icon-linkedin" viewBox="0 0 32 32">
    <title>linkedin</title>
    <path d="M29 0h-26c-1.65 0-3 1.35-3 3v26c0 1.65 1.35 3 3 3h26c1.65 0 3-1.35 3-3v-26c0-1.65-1.35-3-3-3zM12 26h-4v-14h4v14zM10 10c-1.106 0-2-0.894-2-2s0.894-2 2-2c1.106 0 2 0.894 2 2s-0.894 2-2 2zM26 26h-4v-8c0-1.106-0.894-2-2-2s-2 0.894-2 2v8h-4v-14h4v2.481c0.825-1.131 2.087-2.481 3.5-2.481 2.488 0 4.5 2.238 4.5 5v9z"></path>
  </symbol>
  <symbol id="icon-github" viewBox="0 0 32 32">
    <title>github</title>
    <path d="M16 0.395c-8.836 0-16 7.163-16 16 0 7.069 4.585 13.067 10.942 15.182 0.8 0.148 1.094-0.347 1.094-0.77 0-0.381-0.015-1.642-0.022-2.979-4.452 0.968-5.391-1.888-5.391-1.888-0.728-1.849-1.776-2.341-1.776-2.341-1.452-0.993 0.11-0.973 0.11-0.973 1.606 0.113 2.452 1.649 2.452 1.649 1.427 2.446 3.743 1.739 4.656 1.33 0.143-1.034 0.558-1.74 1.016-2.14-3.554-0.404-7.29-1.777-7.29-7.907 0-1.747 0.625-3.174 1.649-4.295-0.166-0.403-0.714-2.030 0.155-4.234 0 0 1.344-0.43 4.401 1.64 1.276-0.355 2.645-0.532 4.005-0.539 1.359 0.006 2.729 0.184 4.008 0.539 3.054-2.070 4.395-1.64 4.395-1.64 0.871 2.204 0.323 3.831 0.157 4.234 1.026 1.12 1.647 2.548 1.647 4.295 0 6.145-3.743 7.498-7.306 7.895 0.574 0.497 1.085 1.47 1.085 2.963 0 2.141-0.019 3.864-0.019 4.391 0 0.426 0.288 0.925 1.099 0.768 6.354-2.118 10.933-8.113 10.933-15.18 0-8.837-7.164-16-16-16z"></path>
  </symbol>
</svg>
