<svg xmlns="http://www.w3.org/2000/svg" xmlns:xlink="http://www.w3.org/1999/xlink" viewBox="0 0 320 320">
  <symbol id="icon-cross" viewBox="0 0 32 32">
    <title>cross</title>
    <path d="M31.708 25.708c-0-0-0-0-0-0l-9.708-9.708 9.708-9.708c0-0 0-0 0-0 0.105-0.105 0.18-0.227 0.229-0.357 0.133-0.356 0.057-0.771-0.229-1.057l-4.586-4.586c-0.286-0.286-0.702-0.361-1.057-0.229-0.13 0.048-0.252 0.124-0.357 0.228 0 0-0 0-0 0l-9.708 9.708-9.708-9.708c-0-0-0-0-0-0-0.105-0.104-0.227-0.18-0.357-0.228-0.356-0.133-0.771-0.057-1.057 0.229l-4.586 4.586c-0.286 0.286-0.361 0.702-0.229 1.057 0.049 0.13 0.124 0.252 0.229 0.357 0 0 0 0 0 0l9.708 9.708-9.708 9.708c-0 0-0 0-0 0-0.104 0.105-0.18 0.227-0.229 0.357-0.133 0.355-0.057 0.771 0.229 1.057l4.586 4.586c0.286 0.286 0.702 0.361 1.057 0.229 0.13-0.049 0.252-0.124 0.357-0.229 0-0 0-0 0-0l9.708-9.708 9.708 9.708c0 0 0 0 0 0 0.105 0.105 0.227 0.18 0.357 0.229 0.356 0.133 0.771 0.057 1.057-0.229l4.586-4.586c0.286-0.286 0.362-0.702 0.229-1.057-0.049-0.13-0.124-0.252-0.229-0.357z"></path>
  </symbol>
  <symbol id="icon-logo-image" viewBox="0 0 45 32">
    <title>icon-logo-image</title>
    <path d="M26.441 31.649c0 0.659-23.137 0.467-22.894-1.252 0.538-3.817 22.894-6.796 22.894 1.252z"></path>
    <path d="M41.767 12.703v1.553h-1.406v4.278h-2.129v-3.431h-1.297v-6.718l-1.766-1.855-1.478 1.552v1.401h-1.513v3.029h-3.281v4.77h-2.233v-3.449h-1.192v-8.4h-1.153v-1.212h-3.391v1.325h-1.224v6.966h-2.271v4.743h-2.054v-4.706h-2.451v-4.542h-1.262v-1.476h-2.126v1.401h-1.37v10.562h-2.091v-3.37h-2.415v-2.42h-3.666l3.354 17.274c0.065-2.445 8.637-4.423 19.203-4.423 10.607 0 19.207 1.992 19.207 4.45-0.002 0.097-0.017 0.194-0.045 0.287h0.045l3.505-17.589z"></path>
    <path d="M21.867 0h1.312v4.22h-1.312v-4.22z"></path>
  </symbol>
  <symbol id="icon-logo-text" viewBox="0 0 119 32">
    <title>icon-logo-text</title>
    <path d="M13.509 21.936c-0.407-0.469 0.034-1.601 1.067-3.035 0.406 0.97 1.029 1.834 1.82 2.527-0.932 0.466-1.713 0.724-2.246 0.724-0.236 0.021-0.469-0.062-0.637-0.227zM26.878 9.595c0.209-0.005 0.411 0.073 0.562 0.219 0.803 0.924-1.654 4.38-5.489 7.716-0.281 0.244-0.562 0.48-0.842 0.71 0.244-0.227 0.486-0.46 0.727-0.699 2.055-2.036 3.65-4.074 4.493-5.616-0.507-0.626-1.119-1.16-1.808-1.578 1.011-0.508 1.839-0.764 2.375-0.719 0.001-0.010 0.001-0.021 0-0.031zM23.929 10.027c-2.248-1.073-4.9-0.85-6.937 0.584s-3.142 3.854-2.891 6.332c0.045 0.431 0.13 0.857 0.253 1.272 0.112-0.101 0.222-0.205 0.34-0.306l-0.337 0.376c-2.221 2.572-3.35 4.7-2.701 5.445s2.755-0.020 5.467-1.727c1.831-1.178 3.572-2.492 5.206-3.931l0.227-0.202c-1.267 1.407-2.62 2.734-4.052 3.973-0.225 0.194-0.444 0.379-0.665 0.562 2.642 1.341 5.846 0.843 7.956-1.236s2.655-5.276 1.352-7.937c1.949-2.353 2.903-4.265 2.297-4.962-0.203-0.201-0.484-0.304-0.769-0.281-1.005 0-2.721 0.75-4.773 2.044z"></path>
    <path d="M7.666 20.282v3.215h-7.666v-14.997h3.65v11.793z"></path>
    <path d="M33.516 23.497v-14.997h5.616c2.69 0 4.81 1.786 4.81 4.726 0 2.246-1.261 3.822-3.044 4.431l3.779 5.84h-3.998l-3.507-5.546v5.546zM38.786 14.717c1.050 0 1.513-0.609 1.513-1.491 0.023-0.408-0.129-0.807-0.418-1.095s-0.687-0.441-1.096-0.418h-1.615v3.005z"></path>
    <path d="M54.96 23.497h-5.144v-14.997h5.144c4.832 0 7.267 3.76 7.267 7.52s-2.415 7.478-7.267 7.478zM54.415 20.304c2.527 0 3.97-2.039 3.97-4.265s-1.471-4.327-3.97-4.327h-0.946v8.592z"></path>
    <path d="M75.036 20.282v3.215h-7.666v-14.997h3.65v11.793z"></path>
    <path d="M99.446 11.546c-0.901 0-1.637 0.441-1.637 1.28 0 0.609 0.421 1.050 1.744 1.238 2.96 0.441 4.411 2.395 4.411 4.684 0 2.457-1.893 4.875-5.461 4.875-2.69 0-4.327-0.842-5.756-1.966l1.828-2.648c1.032 0.882 2.338 1.379 3.695 1.404 1.199 0 1.828-0.713 1.828-1.511 0-1.008-0.671-1.64-1.994-1.87-3.066-0.545-4.285-2.081-4.285-4.013 0-2.71 2.162-4.641 5.481-4.641 1.433-0.042 2.848 0.33 4.074 1.073l-1.28 2.96c-0.779-0.541-1.7-0.841-2.648-0.865z"></path>
    <path d="M114.611 11.546c-0.904 0-1.637 0.441-1.637 1.28 0 0.609 0.418 1.050 1.741 1.238 2.962 0.441 4.411 2.395 4.411 4.684 0 2.457-1.89 4.875-5.459 4.875-2.69 0-4.33-0.842-5.756-1.966l1.828-2.648c1.031 0.883 2.338 1.379 3.695 1.404 1.199 0 1.828-0.713 1.828-1.511 0-1.008-0.671-1.64-1.996-1.87-3.066-0.545-4.285-2.081-4.285-4.013 0-2.71 2.165-4.641 5.484-4.641 1.433-0.042 2.848 0.33 4.074 1.073l-1.28 2.96c-0.779-0.541-1.7-0.841-2.648-0.865z"></path>
    <path d="M80.29 8.5v3.221h3.656v-0.008h4.411v-3.212z"></path>
    <path d="M83.946 17.595h4.159v-3.215h-2.404v0.028h-5.411v9.089h8.067v-3.215h-4.411z"></path>
  </symbol>
  <symbol id="icon-reddit" viewBox="0 0 28 28">
    <title>reddit</title>
    <path d="M17.109 18.234c0.141 0.141 0.141 0.359 0 0.484-0.891 0.891-2.609 0.969-3.109 0.969s-2.219-0.078-3.109-0.969c-0.141-0.125-0.141-0.344 0-0.484 0.125-0.125 0.344-0.125 0.469 0 0.562 0.578 1.781 0.766 2.641 0.766s2.063-0.187 2.641-0.766c0.125-0.125 0.344-0.125 0.469 0zM12.313 15.406c0 0.766-0.625 1.391-1.391 1.391-0.781 0-1.406-0.625-1.406-1.391 0-0.781 0.625-1.406 1.406-1.406 0.766 0 1.391 0.625 1.391 1.406zM18.484 15.406c0 0.766-0.625 1.391-1.406 1.391-0.766 0-1.391-0.625-1.391-1.391 0-0.781 0.625-1.406 1.391-1.406 0.781 0 1.406 0.625 1.406 1.406zM22.406 13.531c0-1.031-0.844-1.859-1.875-1.859-0.531 0-1 0.219-1.344 0.562-1.266-0.875-2.969-1.437-4.859-1.5l0.984-4.422 3.125 0.703c0 0.766 0.625 1.391 1.391 1.391 0.781 0 1.406-0.641 1.406-1.406s-0.625-1.406-1.406-1.406c-0.547 0-1.016 0.328-1.25 0.781l-3.453-0.766c-0.172-0.047-0.344 0.078-0.391 0.25l-1.078 4.875c-1.875 0.078-3.563 0.641-4.828 1.516-0.344-0.359-0.828-0.578-1.359-0.578-1.031 0-1.875 0.828-1.875 1.859 0 0.75 0.438 1.375 1.062 1.687-0.063 0.281-0.094 0.578-0.094 0.875 0 2.969 3.344 5.375 7.453 5.375 4.125 0 7.469-2.406 7.469-5.375 0-0.297-0.031-0.609-0.109-0.891 0.609-0.313 1.031-0.938 1.031-1.672zM28 14c0 7.734-6.266 14-14 14s-14-6.266-14-14 6.266-14 14-14 14 6.266 14 14z"></path>
  </symbol>
  <symbol id="icon-medium" viewBox="0 0 28 28">
    <title>medium</title>
    <path d="M9.328 6.578v18.328c0 0.484-0.234 0.938-0.766 0.938-0.187 0-0.359-0.047-0.516-0.125l-7.266-3.641c-0.438-0.219-0.781-0.781-0.781-1.25v-17.813c0-0.391 0.187-0.75 0.609-0.75 0.25 0 0.469 0.125 0.688 0.234l7.984 4c0.016 0.016 0.047 0.063 0.047 0.078zM10.328 8.156l8.344 13.531-8.344-4.156v-9.375zM28 8.437v16.469c0 0.516-0.297 0.875-0.812 0.875-0.266 0-0.516-0.078-0.734-0.203l-6.891-3.437zM27.953 6.563c0 0.063-8.078 13.172-8.703 14.172l-6.094-9.906 5.063-8.234c0.172-0.281 0.484-0.438 0.812-0.438 0.141 0 0.281 0.031 0.406 0.094l8.453 4.219c0.031 0.016 0.063 0.047 0.063 0.094z"></path>
  </symbol>
  <symbol id="icon-facebook" viewBox="0 0 32 32">
    <title>facebook</title>
    <path d="M29 0h-26c-1.65 0-3 1.35-3 3v26c0 1.65 1.35 3 3 3h13v-14h-4v-4h4v-2c0-3.306 2.694-6 6-6h4v4h-4c-1.1 0-2 0.9-2 2v2h6l-1 4h-5v14h9c1.65 0 3-1.35 3-3v-26c0-1.65-1.35-3-3-3z"></path>
  </symbol>
  <symbol id="icon-telegram" viewBox="0 0 32 32">
    <title>telegram</title>
    <path d="M16 0c-8.838 0-16 7.162-16 16s7.162 16 16 16 16-7.163 16-16-7.163-16-16-16zM23.863 10.969l-2.625 12.369c-0.181 0.881-0.712 1.087-1.45 0.681l-4-2.956-1.919 1.869c-0.225 0.219-0.4 0.4-0.8 0.4-0.519 0-0.431-0.194-0.606-0.688l-1.363-4.475-3.956-1.231c-0.856-0.262-0.862-0.85 0.194-1.269l15.412-5.95c0.7-0.319 1.381 0.169 1.113 1.25z"></path>
  </symbol>
  <symbol id="icon-twitter" viewBox="0 0 32 32">
    <title>twitter</title>
    <path d="M32 7.075c-1.175 0.525-2.444 0.875-3.769 1.031 1.356-0.813 2.394-2.1 2.887-3.631-1.269 0.75-2.675 1.3-4.169 1.594-1.2-1.275-2.906-2.069-4.794-2.069-3.625 0-6.563 2.938-6.563 6.563 0 0.512 0.056 1.012 0.169 1.494-5.456-0.275-10.294-2.888-13.531-6.862-0.563 0.969-0.887 2.1-0.887 3.3 0 2.275 1.156 4.287 2.919 5.463-1.075-0.031-2.087-0.331-2.975-0.819 0 0.025 0 0.056 0 0.081 0 3.181 2.263 5.838 5.269 6.437-0.55 0.15-1.131 0.231-1.731 0.231-0.425 0-0.831-0.044-1.237-0.119 0.838 2.606 3.263 4.506 6.131 4.563-2.25 1.762-5.075 2.813-8.156 2.813-0.531 0-1.050-0.031-1.569-0.094 2.913 1.869 6.362 2.95 10.069 2.95 12.075 0 18.681-10.006 18.681-18.681 0-0.287-0.006-0.569-0.019-0.85 1.281-0.919 2.394-2.075 3.275-3.394z"></path>
  </symbol>
  <symbol id="icon-linkedin" viewBox="0 0 32 32">
    <title>linkedin</title>
    <path d="M29 0h-26c-1.65 0-3 1.35-3 3v26c0 1.65 1.35 3 3 3h26c1.65 0 3-1.35 3-3v-26c0-1.65-1.35-3-3-3zM12 26h-4v-14h4v14zM10 10c-1.106 0-2-0.894-2-2s0.894-2 2-2c1.106 0 2 0.894 2 2s-0.894 2-2 2zM26 26h-4v-8c0-1.106-0.894-2-2-2s-2 0.894-2 2v8h-4v-14h4v2.481c0.825-1.131 2.087-2.481 3.5-2.481 2.488 0 4.5 2.238 4.5 5v9z"></path>
  </symbol>
  <symbol id="icon-github" viewBox="0 0 32 32">
    <title>github</title>
    <path d="M16 0.395c-8.836 0-16 7.163-16 16 0 7.069 4.585 13.067 10.942 15.182 0.8 0.148 1.094-0.347 1.094-0.77 0-0.381-0.015-1.642-0.022-2.979-4.452 0.968-5.391-1.888-5.391-1.888-0.728-1.849-1.776-2.341-1.776-2.341-1.452-0.993 0.11-0.973 0.11-0.973 1.606 0.113 2.452 1.649 2.452 1.649 1.427 2.446 3.743 1.739 4.656 1.33 0.143-1.034 0.558-1.74 1.016-2.14-3.554-0.404-7.29-1.777-7.29-7.907 0-1.747 0.625-3.174 1.649-4.295-0.166-0.403-0.714-2.030 0.155-4.234 0 0 1.344-0.43 4.401 1.64 1.276-0.355 2.645-0.532 4.005-0.539 1.359 0.006 2.729 0.184 4.008 0.539 3.054-2.070 4.395-1.64 4.395-1.64 0.871 2.204 0.323 3.831 0.157 4.234 1.026 1.12 1.647 2.548 1.647 4.295 0 6.145-3.743 7.498-7.306 7.895 0.574 0.497 1.085 1.47 1.085 2.963 0 2.141-0.019 3.864-0.019 4.391 0 0.426 0.288 0.925 1.099 0.768 6.354-2.118 10.933-8.113 10.933-15.18 0-8.837-7.164-16-16-16z"></path>
  </symbol>
  <symbol id="icon-bitcoin" viewBox="0 0 21 28">
    <title>bitcoin</title>
    <path d="M18.234 10c0.203 2.078-0.672 3.328-2.047 4.031 2.281 0.547 3.719 1.906 3.437 4.953-0.359 3.797-3.172 4.813-7.203 5.031v3.984h-2.406v-3.922c-0.609 0-1.25 0-1.906-0.016v3.938h-2.406v-3.984c-0.562 0-1.125-0.016-1.703-0.016h-3.125l0.484-2.859c1.766 0.031 1.734 0 1.734 0 0.672 0 0.859-0.484 0.906-0.797v-6.281h0.25c-0.094-0.016-0.187-0.016-0.25-0.016v-4.484c-0.094-0.5-0.406-1.062-1.391-1.062 0 0 0.031-0.031-1.734 0v-2.562l3.313 0.016c0.484 0 1 0 1.516-0.016v-3.938h2.406v3.859c0.641-0.016 1.281-0.031 1.906-0.031v-3.828h2.406v3.938c3.094 0.266 5.547 1.219 5.812 4.062zM14.875 18.516c0-3.094-5.094-2.641-6.719-2.641v5.281c1.625 0 6.719 0.344 6.719-2.641zM13.766 11.078c0-2.828-4.25-2.406-5.609-2.406v4.797c1.359 0 5.609 0.313 5.609-2.391z"></path>
  </symbol>
  <symbol id="icon-coin-dollar" viewBox="0 0 32 32">
    <title>coin-dollar</title>
    <path d="M15 2c-8.284 0-15 6.716-15 15s6.716 15 15 15c8.284 0 15-6.716 15-15s-6.716-15-15-15zM15 29c-6.627 0-12-5.373-12-12s5.373-12 12-12c6.627 0 12 5.373 12 12s-5.373 12-12 12zM16 16v-4h4v-2h-4v-2h-2v2h-4v8h4v4h-4v2h4v2h2v-2h4l-0-8h-4zM14 16h-2v-4h2v4zM18 22h-2v-4h2v4z"></path>
  </symbol>
  <symbol id="icon-ethereum" viewBox="0 0 32 32">
    <title>ethereum</title>
    <path d="M15.925 23.96l-9.819-5.8 9.817 13.84 9.827-13.84-9.825 5.8zM16.075 0l-9.821 16.297 9.82 5.805 9.82-5.8-9.819-16.303z"></path>
  </symbol>
  <symbol id="icon-magnifier" viewBox="0 0 32 32">
    <title>magnifier</title>
    <path d="M29.156 29.961l-0.709 0.709c-0.785 0.784-2.055 0.784-2.838 0l-5.676-5.674c-0.656-0.658-0.729-1.644-0.281-2.412l-3.104-3.102c-1.669 1.238-3.728 1.979-5.965 1.979-5.54 0-10.031-4.491-10.031-10.031s4.491-10.032 10.031-10.032c5.541 0 10.031 4.491 10.031 10.032 0 2.579-0.98 4.923-2.58 6.7l3.035 3.035c0.768-0.447 1.754-0.375 2.41 0.283l5.676 5.674c0.784 0.785 0.784 2.056 0.001 2.839zM18.088 11.389c0-4.155-3.369-7.523-7.524-7.523s-7.524 3.367-7.524 7.523 3.368 7.523 7.523 7.523 7.525-3.368 7.525-7.523z"></path>
  </symbol>
  <!-- <symbol id="icon-search-minus" viewBox="0 0 26 28">
    <title>search-minus</title>
    <path d="M16 12.5v1c0 0.266-0.234 0.5-0.5 0.5h-9c-0.266 0-0.5-0.234-0.5-0.5v-1c0-0.266 0.234-0.5 0.5-0.5h9c0.266 0 0.5 0.234 0.5 0.5zM18 13c0-3.859-3.141-7-7-7s-7 3.141-7 7 3.141 7 7 7 7-3.141 7-7zM26 26c0 1.109-0.891 2-2 2-0.531 0-1.047-0.219-1.406-0.594l-5.359-5.344c-1.828 1.266-4.016 1.937-6.234 1.937-6.078 0-11-4.922-11-11s4.922-11 11-11 11 4.922 11 11c0 2.219-0.672 4.406-1.937 6.234l5.359 5.359c0.359 0.359 0.578 0.875 0.578 1.406z"></path>
  </symbol>
  <symbol id="icon-search-plus" viewBox="0 0 26 28">
    <title>search-plus</title>
    <path d="M16 12.5v1c0 0.266-0.234 0.5-0.5 0.5h-3.5v3.5c0 0.266-0.234 0.5-0.5 0.5h-1c-0.266 0-0.5-0.234-0.5-0.5v-3.5h-3.5c-0.266 0-0.5-0.234-0.5-0.5v-1c0-0.266 0.234-0.5 0.5-0.5h3.5v-3.5c0-0.266 0.234-0.5 0.5-0.5h1c0.266 0 0.5 0.234 0.5 0.5v3.5h3.5c0.266 0 0.5 0.234 0.5 0.5zM18 13c0-3.859-3.141-7-7-7s-7 3.141-7 7 3.141 7 7 7 7-3.141 7-7zM26 26c0 1.109-0.891 2-2 2-0.531 0-1.047-0.219-1.406-0.594l-5.359-5.344c-1.828 1.266-4.016 1.937-6.234 1.937-6.078 0-11-4.922-11-11s4.922-11 11-11 11 4.922 11 11c0 2.219-0.672 4.406-1.937 6.234l5.359 5.359c0.359 0.359 0.578 0.875 0.578 1.406z"></path>
  </symbol>
  <symbol id="icon-map" viewBox="0 0 24 24">
    <title>map</title>
    <path d="M23.5 1.1c-0.3-0.2-0.7-0.2-1 0l-6.5 3.8-7.6-3.8c0 0 0 0 0 0s0 0-0.1 0c-0.1-0.1-0.2-0.1-0.3-0.1 0 0 0 0 0 0s0 0 0 0c-0.1 0-0.2 0-0.4 0.1 0 0 0 0-0.1 0 0 0-0.1 0-0.1 0l-7 4c-0.2 0.2-0.4 0.5-0.4 0.9v16c0 0.4 0.2 0.7 0.5 0.9s0.7 0.2 1 0l6.5-3.8 7.5 3.8c0 0 0 0 0 0 0.2 0.1 0.3 0.1 0.5 0.1 0.1 0 0.2 0 0.3-0.1 0 0 0.1 0 0.1 0s0 0 0.1 0l7-4c0.3-0.2 0.5-0.5 0.5-0.9v-16c0-0.4-0.2-0.7-0.5-0.9zM9 3.6l6 3v13.8l-6-3v-13.8zM2 6.6l5-2.9v13.7l-5 2.9v-13.7zM22 17.4l-5 2.9v-13.7l5-2.9v13.7z"></path>
  </symbol> -->
  <symbol id="icon-location_disabled" viewBox="0 0 24 24">
    <title>location_disabled</title>
    <path d="M16.266 17.531l-9.797-9.797c-0.891 1.172-1.453 2.672-1.453 4.266 0 3.891 3.094 6.984 6.984 6.984 1.594 0 3.094-0.563 4.266-1.453zM3 4.266l1.266-1.266 16.734 16.734-1.266 1.266-2.063-2.063c-1.313 1.078-2.906 1.828-4.688 2.016v2.063h-1.969v-2.063c-4.172-0.469-7.5-3.797-7.969-7.969h-2.063v-1.969h2.063c0.188-1.781 0.938-3.375 2.016-4.688zM20.953 11.016h2.063v1.969h-2.063c-0.141 1.125-0.469 2.25-0.984 3.188l-1.5-1.5c0.328-0.797 0.516-1.734 0.516-2.672 0-3.891-3.094-6.984-6.984-6.984-0.938 0-1.875 0.188-2.672 0.516l-1.5-1.5c0.984-0.516 2.063-0.844 3.188-0.984v-2.063h1.969v2.063c4.172 0.469 7.5 3.797 7.969 7.969z"></path>
  </symbol>
  <symbol id="icon-my_location" viewBox="0 0 24 24">
    <title>my_location</title>
    <path d="M12 18.984c3.891 0 6.984-3.094 6.984-6.984s-3.094-6.984-6.984-6.984-6.984 3.094-6.984 6.984 3.094 6.984 6.984 6.984zM20.953 11.016h2.063v1.969h-2.063c-0.469 4.172-3.797 7.5-7.969 7.969v2.063h-1.969v-2.063c-4.172-0.469-7.5-3.797-7.969-7.969h-2.063v-1.969h2.063c0.469-4.172 3.797-7.5 7.969-7.969v-2.063h1.969v2.063c4.172 0.469 7.5 3.797 7.969 7.969zM12 8.016c2.203 0 3.984 1.781 3.984 3.984s-1.781 3.984-3.984 3.984-3.984-1.781-3.984-3.984 1.781-3.984 3.984-3.984z"></path>
  </symbol>
  <symbol id="icon-sale-unit" viewBox="0 0 24 32">
    <title>sale-unit</title>
    <path d="M0 4v-4h24v4z"></path>
    <path d="M4 16v-4h16v4z"></path>
    <path d="M0 32v-4h24v4z"></path>
  </symbol>
  <symbol id="icon-auction" viewBox="0 0 32 32">
    <title>auction</title>
    <path d="M3.981 15.418c-0.756-0.050-1.511 0.322-1.915 1.023-0.567 0.982-0.231 2.238 0.752 2.805l8.713 5.030c0.982 0.567 2.238 0.231 2.805-0.752l0.071-0.123c0.528-0.914 0.215-2.084-0.7-2.612l2.147-3.731 12.049 6.957c1 0.577 2.278 0.235 2.855-0.765s0.235-2.278-0.765-2.855l-12.055-6.96 1.603-2.786-5.278-3.047 1.067-1.848 5.284 3.051-0.172 0.298c0.913 0.522 2.078 0.208 2.604-0.704l0.068-0.118c0.551-0.955 0.224-2.175-0.73-2.726-0.015-0.009-0.030-0.017-0.045-0.025l-9.016-4.897c-0.912-0.495-2.052-0.174-2.57 0.725-0.515 0.892-0.209 2.032 0.682 2.546l0.174 0.101-5.786 10.055 4.199 2.625-1.131 1.809-4.912-3.071 0.003-0.004zM13.826 26.224h-11.636c-1.071 0-1.939 0.868-1.939 1.939s0.868 1.939 1.939 1.939h11.636c1.071 0 1.939-0.868 1.939-1.939s-0.868-1.939-1.939-1.939z"></path>
  </symbol>
  <symbol id="icon-search-plus" viewBox="0 0 32 32">
    <title>search-plus</title>
    <path stroke="none" d="M22.353 4.157v-2.275c0-0.65 0.527-1.176 1.176-1.176s1.176 0.527 1.176 1.176v2.275h2.303c0.65 0 1.176 0.527 1.176 1.176s-0.527 1.176-1.176 1.176h-2.303v2.303c0 0.65-0.527 1.176-1.176 1.176s-1.176-0.527-1.176-1.176v-2.303h-2.274c-0.65 0-1.176-0.527-1.176-1.176s0.527-1.176 1.176-1.176h2.274z"></path>
    <path stroke="none" d="M20.346 20.083c0.331-0.383 0.908-0.437 1.304-0.116l5.005 4.053c0.404 0.327 0.466 0.92 0.139 1.324l-1.195 1.476c-0.327 0.404-0.92 0.466-1.324 0.139l-5.005-4.053c-0.286-0.232-0.401-0.596-0.327-0.933l-2.965-2.316 1.449-1.854 2.919 2.28z"></path>
    <path fill="none" stroke-width="1.8824" stroke-miterlimit="4" stroke-linecap="butt" stroke-linejoin="miter" d="M17.589 19.123l-0.29 0.371 2.689 2.101-0.126 0.578c-0 0.001-0 0.001 0 0.001l5.005 4.053 1.195-1.476-5.005-4.053c0 0-0 0 0-0l-0.586 0.679-2.883-2.253z"></path>
    <path stroke="none" d="M19.611 13.247c0.559 4.555-2.68 8.701-7.235 9.26s-8.701-2.68-9.26-7.235c-0.559-4.555 2.68-8.701 7.235-9.26s8.701 2.68 9.26 7.235zM17.275 13.534c-0.401-3.265-3.373-5.587-6.638-5.186s-5.587 3.373-5.186 6.638c0.401 3.265 3.373 5.587 6.638 5.186s5.587-3.373 5.186-6.638z"></path>
  </symbol>
  <symbol id="icon-search-minus" viewBox="0 0 32 32">
    <title>search-minus</title>
    <path stroke="none" d="M20.078 6.51c-0.65 0-1.176-0.527-1.176-1.176s0.527-1.176 1.176-1.176h6.93c0.65 0 1.176 0.527 1.176 1.176s-0.527 1.176-1.176 1.176h-6.93z"></path>
    <path stroke="none" d="M19.611 13.247c0.559 4.555-2.68 8.701-7.235 9.26s-8.701-2.68-9.26-7.235c-0.559-4.555 2.68-8.701 7.235-9.26s8.701 2.68 9.26 7.235zM17.275 13.534c-0.401-3.265-3.373-5.587-6.638-5.186s-5.587 3.373-5.186 6.638c0.401 3.265 3.373 5.587 6.638 5.186s5.587-3.373 5.186-6.638z"></path>
    <path stroke="none" d="M20.346 20.083c0.331-0.383 0.908-0.437 1.304-0.116l5.005 4.053c0.404 0.327 0.466 0.92 0.139 1.324l-1.195 1.476c-0.327 0.404-0.92 0.466-1.324 0.139l-5.005-4.053c-0.286-0.232-0.401-0.596-0.327-0.933l-2.965-2.316 1.449-1.854 2.919 2.28z"></path>
    <path fill="none" stroke-width="1.8824" stroke-miterlimit="4" stroke-linecap="butt" stroke-linejoin="miter" d="M17.589 19.123l-0.29 0.371 2.689 2.101-0.126 0.578c-0 0.001-0 0.001 0 0.001l5.005 4.053 1.195-1.476-5.005-4.053c0 0-0 0 0-0l-0.586 0.679-2.883-2.253z"></path>
  </symbol>
  <symbol id="icon-share" viewBox="0 0 32 32">
    <title>share</title>
    <path d="M27 22c-1.411 0-2.685 0.586-3.594 1.526l-13.469-6.734c0.041-0.258 0.063-0.522 0.063-0.791s-0.022-0.534-0.063-0.791l13.469-6.734c0.909 0.94 2.183 1.526 3.594 1.526 2.761 0 5-2.239 5-5s-2.239-5-5-5-5 2.239-5 5c0 0.269 0.022 0.534 0.063 0.791l-13.469 6.734c-0.909-0.94-2.183-1.526-3.594-1.526-2.761 0-5 2.239-5 5s2.239 5 5 5c1.411 0 2.685-0.586 3.594-1.526l13.469 6.734c-0.041 0.258-0.063 0.522-0.063 0.791 0 2.761 2.239 5 5 5s5-2.239 5-5c0-2.761-2.239-5-5-5z"></path>
  </symbol>
  <symbol id="icon-hot" viewBox="0 0 20 20">
    <title>hot</title>
    <path d="M10 0s8 7.58 8 12c0 4.418-3.582 8-8 8s-8-3.582-8-8v0c0-1.5 0.91-3.35 2.12-5.15 0.376 1.258 1.522 2.16 2.88 2.16 1.657 0 3-1.343 3-3 0-0.004 0-0.007-0-0.011v0.001-6zM8 0c-1.657 0-3 1.343-3 3s1.343 3 3 3v0-6z"></path>
  </symbol>
  <symbol id="icon-warning" viewBox="0 0 32 32">
    <title>warning</title>
    <path d="M16 2.899l13.409 26.726h-26.819l13.409-26.726zM16 0c-0.69 0-1.379 0.465-1.903 1.395l-13.659 27.222c-1.046 1.86-0.156 3.383 1.978 3.383h27.166c2.134 0 3.025-1.522 1.978-3.383h0l-13.659-27.222c-0.523-0.93-1.213-1.395-1.903-1.395v0z"></path>
    <path d="M18 26c0 1.105-0.895 2-2 2s-2-0.895-2-2c0-1.105 0.895-2 2-2s2 0.895 2 2z"></path>
    <path d="M16 22c-1.105 0-2-0.895-2-2v-6c0-1.105 0.895-2 2-2s2 0.895 2 2v6c0 1.105-0.895 2-2 2z"></path>
  </symbol>
  <symbol id="icon-paste" viewBox="0 0 32 32">
    <title>paste</title>
    <path d="M22 4h-4v-2c0-1.1-0.9-2-2-2h-4c-1.1 0-2 0.9-2 2v2h-4v4h16v-4zM16 4h-4v-1.996c0.001-0.001 0.002-0.002 0.004-0.004h3.993c0.001 0.001 0.003 0.002 0.004 0.004v1.996zM26 10v-5c0-0.55-0.45-1-1-1h-2v2h1v4h-6l-6 6v8h-8v-18h1v-2h-2c-0.55 0-1 0.45-1 1v20c0 0.55 0.45 1 1 1h9v6h20v-22h-6zM18 12.828v3.172h-3.172l3.172-3.172zM30 30h-16v-12h6v-6h10v18z"></path>
  </symbol>
  <symbol id="icon-help" viewBox="0 0 20 20">
    <title>help</title>
    <path d="M14.090 2.233c-1.14-0.822-2.572-1.233-4.296-1.233-1.311 0-2.418 0.289-3.317 0.868-1.427 0.906-2.185 2.445-2.277 4.615h3.307c0-0.633 0.185-1.24 0.553-1.828 0.369-0.586 0.995-0.879 1.878-0.879 0.898 0 1.517 0.238 1.854 0.713 0.339 0.477 0.508 1.004 0.508 1.582 0 0.504-0.252 0.965-0.557 1.383-0.167 0.244-0.387 0.469-0.661 0.674 0 0-1.793 1.15-2.58 2.074-0.456 0.535-0.497 1.338-0.538 2.488-0.002 0.082 0.029 0.252 0.315 0.252s2.316 0 2.571 0c0.256 0 0.309-0.189 0.312-0.274 0.018-0.418 0.064-0.633 0.141-0.875 0.144-0.457 0.538-0.855 0.979-1.199l0.91-0.627c0.822-0.641 1.477-1.166 1.767-1.578 0.494-0.676 0.842-1.51 0.842-2.5-0.001-1.615-0.571-2.832-1.711-3.656zM9.741 14.924c-1.139-0.035-2.079 0.754-2.115 1.99-0.035 1.234 0.858 2.051 1.998 2.084 1.189 0.035 2.104-0.727 2.141-1.963 0.034-1.236-0.834-2.076-2.024-2.111z"></path>
  </symbol>
  <symbol id="icon-download" viewBox="0 0 32 32">
    <title>download</title>
    <path d="M16.001 19.314l-8.485-8.485 2.828-2.829 5.657 5.657 5.657-5.657 2.828 2.828-8.485 8.486zM8 28h16v-4h-16v4z"></path>
  </symbol>
  <symbol id="icon-dropbox" viewBox="0 0 32 32">
    <title>dropbox</title>
    <path d="M23 1l-7 6 9 6 7-6z"></path>
    <path d="M16 7l-7-6-9 6 7 6z"></path>
    <path d="M25 13l7 6-9 5-7-6z"></path>
    <path d="M16 18l-9-5-7 6 9 5z"></path>
    <path d="M22.755 26.424l-6.755-5.79-6.755 5.79-4.245-2.358v2.934l11 5 11-5v-2.934z"></path>
  </symbol>
  <symbol id="icon-arrow-up" viewBox="0 0 24 24">
    <title>arrow-up</title>
    <path d="M13 5.586l-4.707 4.707c-0.391 0.391-0.391 1.023 0 1.414s1.023 0.391 1.414 0l2.293-2.293v7.586c0 0.552 0.447 1 1 1s1-0.448 1-1v-7.586l2.293 2.293c0.195 0.195 0.451 0.293 0.707 0.293s0.512-0.098 0.707-0.293c0.391-0.391 0.391-1.023 0-1.414l-4.707-4.707z"></path>
  </symbol>
</svg>
