<svg xmlns="http://www.w3.org/2000/svg" xmlns:xlink="http://www.w3.org/1999/xlink" width="465" height="100" viewBox="0 0 465 100">
  <defs>
    <path id="alphawallet-a" d="M172.094016,57.2727903 L154.320131,57.2727903 L150.816136,66.1186485 L144.011278,66.1186485 L160.007774,27.8958044 L166.507937,27.8958044 L182.555216,66.1186485 L175.648792,66.1186485 L172.094016,57.2727903 Z M169.910367,51.7031759 L163.207073,34.9943326 L156.554562,51.7031759 L169.910367,51.7031759 Z M186.465471,25.6024337 L192.813287,25.6024337 L192.813287,66.1186485 L186.465471,66.1186485 L186.465471,25.6024337 Z M216.17325,36.6324545 C218.813954,36.6324545 221.175318,37.2512943 223.257412,38.4889926 C225.339506,39.7266909 226.972995,41.4740034 228.157926,43.7309827 C229.342858,45.9879619 229.935315,48.5907295 229.935315,51.5393637 C229.935315,54.4879978 229.342858,57.099866 228.157926,59.3750467 C226.972995,61.6502274 225.339506,63.4066405 223.257412,64.6443388 C221.175318,65.8820371 218.813954,66.5008769 216.17325,66.5008769 C212.516889,66.5008769 209.622314,65.1903925 207.489437,62.5693844 L207.489437,76.7118367 L201.141621,76.7118367 L201.141621,36.9600788 L207.184742,36.9600788 L207.184742,40.7823633 C208.234253,39.3990534 209.529195,38.3615866 211.069606,37.6699317 C212.610017,36.9782767 214.311214,36.6324545 216.17325,36.6324545 Z M215.462294,60.6582422 C217.798302,60.6582422 219.719555,59.8209883 221.226111,58.1464553 C222.732667,56.4719223 223.485934,54.2695805 223.485934,51.5393637 C223.485934,48.8091469 222.732667,46.606805 221.226111,44.932272 C219.719555,43.2577391 217.798302,42.4204851 215.462294,42.4204851 C213.938811,42.4204851 212.567696,42.7936092 211.34891,43.5398684 C210.130123,44.2861277 209.165264,45.3508963 208.454306,46.7342061 C207.743347,48.117516 207.387872,49.7192191 207.387872,51.5393637 C207.387872,53.3595082 207.743347,54.9612114 208.454306,56.3445212 C209.165264,57.7278311 210.130123,58.7925996 211.34891,59.5388589 C212.567696,60.2851182 213.938811,60.6582422 215.462294,60.6582422 Z M251.365542,36.6324545 C254.784916,36.6324545 257.527145,37.7063236 259.592311,39.8540942 C261.657478,42.0018647 262.690045,45.1870699 262.690045,49.4098052 L262.690045,66.1186485 L256.342229,66.1186485 L256.342229,50.2834702 C256.342229,47.7352679 255.783627,45.8150442 254.666406,44.5227416 C253.549185,43.230439 251.958015,42.5842973 249.892848,42.5842973 C247.55684,42.5842973 245.71176,43.339646 244.357553,44.850366 C243.003345,46.3610859 242.326252,48.536126 242.326252,51.3755515 L242.326252,66.1186485 L235.978436,66.1186485 L235.978436,25.6024337 L242.326252,25.6024337 L242.326252,40.3455308 C243.375762,39.1442354 244.670704,38.2250762 246.211115,37.5880256 C247.751526,36.950975 249.469651,36.6324545 251.365542,36.6324545 Z M281.124103,36.6324545 C285.119015,36.6324545 288.1744,37.6608207 290.290349,39.717584 C292.406299,41.7743474 293.464257,44.8776472 293.464257,49.0275768 L293.464257,66.1186485 L287.471919,66.1186485 L287.471919,62.5693844 C286.69325,63.8434856 285.584509,64.8172483 284.145663,65.4907018 C282.706818,66.1641552 280.971766,66.5008769 278.940454,66.5008769 C276.909143,66.5008769 275.131772,66.1277529 273.608289,65.3814936 C272.084805,64.6352344 270.908355,63.5977676 270.078903,62.269062 C269.249451,60.9403565 268.834731,59.4387598 268.834731,57.7642269 C268.834731,55.1432187 269.740344,53.0409833 271.551596,51.4574576 C273.362849,49.8739318 276.215106,49.0821808 280.108452,49.0821808 L287.116441,49.0821808 L287.116441,48.6453483 C287.116441,46.6067865 286.549375,45.0414856 285.415227,43.9493989 C284.281078,42.8573122 282.596807,42.311277 280.362365,42.311277 C278.838882,42.311277 277.340812,42.5660934 275.868111,43.0757339 C274.395411,43.5853744 273.151251,44.2952201 272.135596,45.2052924 L269.647252,40.2363226 C271.06917,39.0714301 272.778831,38.1795727 274.776287,37.5607235 C276.773743,36.9418744 278.889661,36.6324545 281.124103,36.6324545 Z M280.2608,61.5319072 C281.851994,61.5319072 283.265427,61.140582 284.501141,60.3579198 C285.736855,59.5752577 286.608613,58.4558856 287.116441,56.99977 L287.116441,53.6143181 L280.565495,53.6143181 C276.909135,53.6143181 275.080982,54.9066013 275.080982,57.4912065 C275.080982,58.7289048 275.53802,59.7117681 276.45211,60.4398259 C277.366201,61.1678838 278.635751,61.5319072 280.2608,61.5319072 Z M354.149378,27.8958044 L342.367832,66.1186485 L335.359843,66.1186485 L326.574466,37.8337439 L317.636741,66.1186485 L310.577969,66.1186485 L298.796423,27.8958044 L305.652064,27.8958044 L314.488224,56.9451659 L323.679861,27.8958044 L329.773765,27.8958044 L338.762272,57.1089781 L347.852345,27.8958044 L354.149378,27.8958044 Z M367.25127,36.6324545 C371.246183,36.6324545 374.301567,37.6608207 376.417517,39.717584 C378.533466,41.7743474 379.591425,44.8776472 379.591425,49.0275768 L379.591425,66.1186485 L373.599086,66.1186485 L373.599086,62.5693844 C372.820417,63.8434856 371.711676,64.8172483 370.272831,65.4907018 C368.833985,66.1641552 367.098933,66.5008769 365.067622,66.5008769 C363.03631,66.5008769 361.25894,66.1277529 359.735456,65.3814936 C358.211973,64.6352344 357.035523,63.5977676 356.206071,62.269062 C355.376618,60.9403565 354.961899,59.4387598 354.961899,57.7642269 C354.961899,55.1432187 355.867511,53.0409833 357.678764,51.4574576 C359.490016,49.8739318 362.342273,49.0821808 366.23562,49.0821808 L373.243609,49.0821808 L373.243609,48.6453483 C373.243609,46.6067865 372.676543,45.0414856 371.542394,43.9493989 C370.408245,42.8573122 368.723975,42.311277 366.489532,42.311277 C364.966049,42.311277 363.467979,42.5660934 361.995279,43.0757339 C360.522578,43.5853744 359.278419,44.2952201 358.262763,45.2052924 L355.774419,40.2363226 C357.196337,39.0714301 358.905998,38.1795727 360.903454,37.5607235 C362.90091,36.9418744 365.016828,36.6324545 367.25127,36.6324545 Z M366.387967,61.5319072 C367.979161,61.5319072 369.392594,61.140582 370.628308,60.3579198 C371.864023,59.5752577 372.735781,58.4558856 373.243609,56.99977 L373.243609,53.6143181 L366.692663,53.6143181 C363.036302,53.6143181 361.20815,54.9066013 361.20815,57.4912065 C361.20815,58.7289048 361.665188,59.7117681 362.579278,60.4398259 C363.493368,61.1678838 364.762918,61.5319072 366.387967,61.5319072 Z M387.716629,25.6024337 L394.064445,25.6024337 L394.064445,66.1186485 L387.716629,66.1186485 L387.716629,25.6024337 Z M402.39278,25.6024337 L408.740596,25.6024337 L408.740596,66.1186485 L402.39278,66.1186485 L402.39278,25.6024337 Z M442.561759,51.7031759 C442.561759,52.1764134 442.527905,52.8498568 442.460194,53.7235262 L421.182315,53.7235262 C421.554722,55.8712967 422.528044,57.5731064 424.10231,58.8290061 C425.676577,60.0849058 427.631684,60.7128463 429.967692,60.7128463 C432.946949,60.7128463 435.401413,59.6571783 437.331159,57.5458106 L440.733588,61.7503235 C439.514802,63.3156478 437.974414,64.498724 436.112378,65.2995875 C434.250343,66.1004511 432.151353,66.5008769 429.815345,66.5008769 C426.836088,66.5008769 424.212351,65.8638359 421.944053,64.5897347 C419.675755,63.3156336 417.923776,61.5410193 416.688061,59.2658386 C415.452347,56.9906579 414.834499,54.415192 414.834499,51.5393637 C414.834499,48.6999382 415.43542,46.1426735 416.637279,43.8674928 C417.839138,41.5923122 419.506481,39.8176978 421.639358,38.5435967 C423.772235,37.2694955 426.175917,36.6324545 428.850477,36.6324545 C431.491181,36.6324545 433.852545,37.2603949 435.934639,38.5162946 C438.016733,39.7721944 439.641758,41.5377081 440.809762,43.8128888 C441.977766,46.0880694 442.561759,48.7181388 442.561759,51.7031759 Z M428.850477,42.0928608 C426.819166,42.0928608 425.10104,42.7390024 423.69605,44.031305 C422.29106,45.3236076 421.436229,47.0436184 421.131533,49.191389 L436.518638,49.191389 C436.247797,47.0800213 435.418357,45.3691111 434.030295,44.058607 C432.642232,42.748103 430.915643,42.0928608 428.850477,42.0928608 Z M464.956854,64.5351307 C464.21204,65.1903827 463.306427,65.6818143 462.239989,66.0094404 C461.17355,66.3370664 460.047882,66.5008769 458.862951,66.5008769 C455.883694,66.5008769 453.581576,65.663623 451.956527,63.98909 C450.331478,62.3145571 449.518966,59.8756 449.518966,56.6721456 L449.518966,42.6389014 L445.050103,42.6389014 L445.050103,37.1784951 L449.518966,37.1784951 L449.518966,30.5167994 L455.866782,30.5167994 L455.866782,37.1784951 L463.128683,37.1784951 L463.128683,42.6389014 L455.866782,42.6389014 L455.866782,56.5083334 C455.866782,57.9280461 456.188401,59.0110159 456.83165,59.7572752 C457.474898,60.5035344 458.405902,60.8766584 459.624689,60.8766584 C461.046607,60.8766584 462.23152,60.4762327 463.179466,59.6753691 L464.956854,64.5351307 Z"/>
  </defs>
  <g fill="none" fill-rule="evenodd">
    <use fill="#000" xlink:href="#alphawallet-a"/>
    <use fill="#59585A" xlink:href="#alphawallet-a"/>
    <ellipse cx="87.098" cy="46.595" fill="#FED402" rx="9.263" ry="9.96"/>
    <polygon fill="#7CC242" points="104.85 41.674 104.518 42.229 104.518 42.229"/>
    <polygon fill="#FFF" points="104.85 41.674 104.518 42.229 104.518 42.229"/>
    <path fill="#7CC242" d="M126.95632,4.25256257 L106.694977,38.5388347 L105.5878,40.4436276 L104.849682,41.6738063 C103.009078,34.1349752 97.2340375,28.4531642 90.0873188,27.1497605 L103.115104,4.92717673 C103.313758,4.39305842 103.798067,4.04588932 104.332999,4.05414665 L126.734884,4.05414665 L126.95632,4.25256257 Z"/>
    <path fill="#EF3B39" d="M131.274311,89.0952128 C127.958479,93.7492595 123.297581,97.0857027 118.02509,98.5794941 C110.944813,100.69751 103.352954,99.2371934 97.3946884,94.6111756 C93.0603318,91.0142561 89.8013328,86.1303825 88.020588,80.5633279 C88.020588,80.5633279 88.020588,80.2061793 87.8360585,79.9680802 C87.3193758,78.4998023 86.433634,75.8013457 85.5109864,72.9044732 C84.5883387,70.0076007 84.1085619,68.0234414 83.6287851,65.9202326 C84.8443499,66.1791035 86.0802077,66.3119895 87.3193758,66.3170644 C92.5378319,66.2835784 97.4991007,63.875791 100.974561,59.6899725 C102.229362,62.9836769 103.484163,68.1424909 104.665152,72.1504927 C104.997305,73.2616218 105.329458,74.2537015 105.624706,75.1267316 C106.7224,78.8508142 108.575375,82.2663864 111.049874,85.1268943 L111.603463,85.6427757 C115.129185,88.4078824 119.422288,89.8067222 123.782412,89.6110942 C126.286591,89.586126 128.787626,89.4139083 131.274311,89.0952128 Z"/>
    <path fill="#4CC9F5" d="M71.6343654,57.1105654 C67.2957933,63.7126141 62.3500654,69.8282088 56.8720026,75.3648307 C52.3835683,80.1566486 47.0847843,83.9819426 41.260804,86.6348553 C38.9967042,87.613256 36.5780557,88.1118279 34.1379639,88.1031332 C27.3327021,88.261976 21.5165628,82.8648428 20.6673079,75.6029298 C19.5741964,68.7302393 20.055565,61.6746295 22.0697323,55.0470398 C25.4707545,42.7714091 31.3138876,31.4379131 39.1940732,21.8322137 C42.5451453,17.2390422 47.0359348,13.7585012 52.1480465,11.7923678 C55.7857493,10.2393389 59.8581403,10.3685509 63.4043481,12.1495165 C66.1036452,13.7820574 68.3174117,16.2036943 69.78907,19.1337571 C71.9041975,23.2779881 73.5283899,27.6906924 74.6237438,32.2688914 C78.0362114,28.8336079 82.5340431,26.918941 87.2086581,26.9116614 C88.1602604,26.9105088 89.1104629,26.9901224 90.0504129,27.1497605 L91.1575901,25.2846508 C90.3087543,23.2211252 89.607542,21.3163323 88.7956121,19.4909057 C86.4921141,13.7764141 82.7621609,8.85925567 78.0190873,5.28432539 C72.3443583,1.27126248 65.5387224,-0.47039726 58.7911097,0.363610413 C50.0698984,1.05367844 41.6291469,3.97920729 34.1748698,8.89549526 C22.3281507,16.6535835 12.6600759,27.7212223 6.20019236,40.9198258 C1.78404297,49.2767637 -0.304144578,58.8228592 0.184529535,68.4202732 C0.664853475,80.3301711 7.40884889,90.9072012 17.5672117,95.6826216 C25.6591476,99.6006467 34.6550354,100.830481 43.4013466,99.214425 C50.7081965,98.2431287 57.7535707,95.6774312 64.1055603,91.6746198 C71.7316197,86.701624 78.6962982,80.6411762 84.8097741,73.6584537 C84.9943037,73.4203546 85.1419273,73.0632059 85.4371746,72.9044732 C84.7359623,70.5631652 84.0347501,68.0234414 83.5549733,65.9202326 C78.632024,64.8503886 74.3273296,61.6690974 71.6343654,57.1105654 Z"/>
  </g>
</svg>
