<svg xmlns="http://www.w3.org/2000/svg" width="468" height="100" viewBox="0 0 468 100">
  <path fill="#151518" d="M128.046795,100 C118.197096,100 107.116721,96.5516667 91.1100682,87.9303333 C84.9541853,84.4826667 78.7979451,83.3333333 72.6420622,83.3333333 C65.8703052,83.3333333 59.7144222,84.4826667 53.5581821,87.9303333 C37.5526006,96.5516667 26.4711897,100 16.6214912,100 C11.0811609,100 6.15606155,97.126 3.07793432,91.379 C0.615731188,86.7813333 -2.98427949e-13,81.0343333 -2.98427949e-13,73.563 C-2.98427949e-13,44.253 18.4679703,0 45.5550341,0 C49.2488497,0 52.9426652,1.72379667 57.8671572,3.44826667 C62.7923637,5.17223333 67.7168557,7.47153333 72.6420622,7.47153333 C76.9517518,7.47153333 82.4917607,5.17223333 87.4162527,3.44826667 C91.7259423,1.72379667 96.0352747,0 99.7290903,0 C127.431278,0 145.284124,44.253 145.284124,73.563 C145.284124,81.0343333 144.052733,86.7813333 142.206183,91.379 C139.128241,96.5516667 134.202678,100 128.046795,100 Z M104.716813,19.3668667 C103.362176,19.3668667 102.264034,20.3915667 102.264034,21.6556 L102.264034,26.7612333 L96.7922568,26.7612333 C95.4376197,26.7612333 94.3394776,27.7859333 94.3394776,29.0499667 C94.3394776,30.314 95.4376197,31.3387 96.7922568,31.3387 L102.264034,31.3387 L102.264034,36.4443333 C102.264034,37.7083333 103.362176,38.733 104.716813,38.733 C106.07145,38.733 107.169949,37.7083333 107.169949,36.4443333 L107.169949,31.3387 L112.641369,31.3387 C113.996364,31.3387 115.094506,30.314 115.094506,29.0499667 C115.094506,27.7859333 113.996364,26.7612333 112.641369,26.7612333 L107.169949,26.7612333 L107.169949,21.6556 C107.169949,20.3915667 106.07145,19.3668667 104.716813,19.3668667 Z M56.606473,25.7047667 L56.606473,67.9583333 L74.2671267,67.9583333 C80.0889944,67.9583333 83.5824008,66.5096667 86.1051982,64.1553333 C88.6283529,61.8616667 90.2455582,58.602 90.2455582,55.0406667 C90.2455582,50.3326667 87.463765,46.1073333 83.4530815,44.236 C84.9409676,42.7873333 86.364194,39.9503333 86.364194,37.1736667 C86.364194,33.733 84.6823291,30.7148 82.1591744,28.6625 C79.9596751,26.8516333 77.1132223,25.7047667 72.0029678,25.7047667 L56.606473,25.7047667 Z M65.3398104,32.9482 L71.4853335,32.9482 C74.2024671,32.9482 75.4313573,33.552 76.3369495,34.4573333 C77.1132223,35.242 77.6308566,36.3283333 77.6308566,37.4753333 C77.6308566,38.6223333 77.1132223,39.7086667 76.3369495,40.4933333 C75.4313573,41.399 74.2024671,42.0026667 71.4853335,42.0026667 L65.3398104,42.0026667 L65.3398104,32.9482 Z M65.3398104,60.7146667 L65.3398104,49.246 L74.0727906,49.246 C77.1132223,49.246 78.7954445,49.9703333 79.8950155,51.1173333 C80.9302841,52.1433333 81.5122208,53.4713333 81.5122208,54.9803333 C81.5122208,56.4893333 80.9302841,57.8173333 79.8950155,58.8436667 C78.7954445,59.9903333 77.1132223,60.7146667 74.0727906,60.7146667 L65.3398104,60.7146667 Z M183.261835,20 L200.266247,20 C205.910569,20 209.054242,21.2666667 211.483444,23.2666667 C214.269881,25.5333333 216.127506,28.8666667 216.127506,32.6666667 C216.127506,35.7333333 214.555669,38.8666667 212.912386,40.4666667 C217.342106,42.5333333 220.414332,47.2 220.414332,52.4 C220.414332,56.3333333 218.628154,59.9333333 215.841717,62.4666667 C213.05528,65.0666667 209.197136,66.6666667 202.766896,66.6666667 L183.261835,66.6666667 L183.261835,20 Z M192.907195,28 L192.907195,38 L199.69467,38 C202.695449,38 204.052944,37.3333333 205.053204,36.3333333 C205.910569,35.4666667 206.482146,34.2666667 206.482146,33 C206.482146,31.7333333 205.910569,30.5333333 205.053204,29.6666667 C204.052944,28.6666667 202.695449,28 199.69467,28 L192.907195,28 Z M192.907195,58.6666667 L202.552555,58.6666667 C205.910569,58.6666667 207.768194,57.8666667 208.982795,56.6 C210.125948,55.4666667 210.768972,54 210.768972,52.3333333 C210.768972,50.6666667 210.125948,49.2 208.982795,48.0666667 C207.768194,46.8 205.910569,46 202.552555,46 L192.907195,46 L192.907195,58.6666667 Z M248.993176,67.3333333 C243.348854,67.3333333 237.847427,65.7333333 233.989283,62.5333333 C229.845351,59.0666667 227.559043,54.1333333 227.559043,47 L227.559043,20 L237.204403,20 L237.204403,47.6666667 C237.204403,51.9333333 238.419004,54.5333333 240.49097,56.3333333 C242.634383,58.2666667 245.635162,59.3333333 248.993176,59.3333333 C252.35119,59.3333333 255.351969,58.2666667 257.495382,56.3333333 C259.567348,54.5333333 260.781949,51.9333333 260.781949,47.6666667 L260.781949,20 L270.427309,20 L270.427309,47 C270.427309,54.1333333 268.141001,59.0666667 263.997069,62.5333333 C260.138925,65.7333333 254.637498,67.3333333 248.993176,67.3333333 Z M281.501611,66.6666667 L281.501611,20 L288.289086,20 L316.153459,50.4 L316.153459,20 L325.798818,20 L325.798818,66.6666667 L319.011343,66.6666667 L291.14697,36.2666667 L291.14697,66.6666667 L281.501611,66.6666667 Z M333.318627,20 L369.399417,20 L369.399417,28 L356.181702,28 L356.181702,66.6666667 L346.536342,66.6666667 L346.536342,28 L333.318627,28 L333.318627,20 Z M381.906233,43.3333333 C381.906233,52.1333333 388.90805,59.3333333 398.339068,59.3333333 C407.770087,59.3333333 414.771904,52.1333333 414.771904,43.3333333 C414.771904,34.5333333 407.770087,27.3333333 398.339068,27.3333333 C388.90805,27.3333333 381.906233,34.5333333 381.906233,43.3333333 Z M372.260874,43.3333333 C372.260874,30.0666667 382.906493,19.3333333 398.339068,19.3333333 C413.771644,19.3333333 424.417263,30.0666667 424.417263,43.3333333 C424.417263,56.6 413.771644,67.3333333 398.339068,67.3333333 C382.906493,67.3333333 372.260874,56.6 372.260874,43.3333333 Z M468,20 L450.852694,45.5333333 L450.852694,66.6666667 L441.207334,66.6666667 L441.207334,45.5333333 L424.060028,20 L435.062883,20 L446.065737,36.4 L456.997145,20 L468,20 Z"/>
</svg>
