<?xml version="1.0" encoding="UTF-8"?>
<svg width="1024px" height="512px" viewBox="0 0 1024 512" version="1.1" xmlns="http://www.w3.org/2000/svg" xmlns:xlink="http://www.w3.org/1999/xlink">
    <!-- Generator: Sketch 52.2 (67145) - http://www.bohemiancoding.com/sketch -->
    <title>Logo/英文横版@2x</title>
    <desc>Created with Sketch.</desc>
    <defs>
        <linearGradient x1="77.4403252%" y1="7.70119357%" x2="26.9416982%" y2="94.1393288%" id="linearGradient-1">
            <stop stop-color="#FF6B6B" offset="0%"></stop>
            <stop stop-color="#FF1FC6" offset="100%"></stop>
        </linearGradient>
        <linearGradient x1="28.2327199%" y1="91.2863306%" x2="100%" y2="8.09657745%" id="linearGradient-2">
            <stop stop-color="#6F8CFF" offset="0%"></stop>
            <stop stop-color="#38D1FF" offset="100%"></stop>
        </linearGradient>
    </defs>
    <g id="Logo/英文横版" stroke="none" stroke-width="1" fill="none" fill-rule="evenodd">
        <g id="Group-3" transform="translate(32.000000, 136.000000)">
            <g id="Group-2">
                <path d="M299.94012,240 C233.632879,240 179.88024,186.27417 179.88024,120 C179.88024,53.72583 233.632879,0 299.94012,0 C366.247361,0 420,53.72583 420,120 C420,186.27417 366.247361,240 299.94012,240 Z M299.94012,180 C333.09374,180 359.97006,153.137085 359.97006,120 C359.97006,86.862915 333.09374,60 299.94012,60 C266.786499,60 239.91018,86.862915 239.91018,120 C239.91018,153.137085 266.786499,180 299.94012,180 Z" id="Combined-Shape-Copy-4" fill="url(#linearGradient-1)"></path>
                <path d="M192.444176,24.2537369 C162.400045,77.4236958 192.448629,24.2458552 162.395591,77.4315787 C162.391912,77.4380885 162.388236,77.4445992 162.384562,77.4511108 C151.531129,66.6652467 136.574269,60 120.05988,60 C86.9062598,60 60.0299401,86.862915 60.0299401,120 C60.0299401,153.137085 86.9062598,180 120.05988,180 C136.577046,180 151.536159,173.332512 162.390036,162.543449 C162.39215,162.552621 162.394264,162.561795 162.396379,162.57097 L192.451281,215.740888 C172.324869,230.967435 147.247735,240 120.05988,240 C53.7526393,240 0,186.27417 0,120 C0,53.72583 53.7526393,0 120.05988,0 C147.244536,0 172.318968,9.03043987 192.444176,24.2537369 Z" id="Combined-Shape" fill="url(#linearGradient-2)"></path>
            </g>
            <g id="Group" transform="translate(464.000000, 20.000000)" fill="#2A426D">
                <path d="M94.6483924,86.2325733 C90.0913865,113.749878 70.9870155,126.895088 47.3256387,126.895088 C32.7782737,126.895088 21.7362979,121.987543 12.6222861,112.873531 C-0.52292328,99.7283215 0.00288509396,82.2013758 0.00288509396,63.4475438 C0.00288509396,44.6937118 -0.52292328,27.166766 12.6222861,14.0215566 C21.7362979,4.90754482 32.7782737,0 47.3256387,0 C70.9870155,0 90.0913865,13.1452093 94.6483924,40.6625142 L63.4504289,40.6625142 C61.5224648,33.6517359 57.6665367,27.3420354 47.5009082,27.3420354 C41.8922855,27.3420354 37.6858185,29.6205384 35.4073156,32.6001192 C32.6030043,36.2807778 30.6750402,40.6625142 30.6750402,63.4475438 C30.6750402,86.2325733 32.6030043,90.6143097 35.4073156,94.2949683 C37.6858185,97.2745491 41.8922855,99.5530521 47.5009082,99.5530521 C57.6665367,99.5530521 61.5224648,93.2433516 63.4504289,86.2325733 L94.6483924,86.2325733 Z M201.738031,63.4475438 C201.738031,82.2013758 202.26384,99.7283215 189.11863,112.873531 C180.004618,121.987543 169.488451,126.895088 154.240008,126.895088 C138.991565,126.895088 128.475398,121.987543 119.361386,112.873531 C106.216177,99.7283215 106.741985,82.2013758 106.741985,63.4475438 C106.741985,44.6937118 106.216177,27.166766 119.361386,14.0215566 C128.475398,4.90754482 138.991565,0 154.240008,0 C169.488451,0 180.004618,4.90754482 189.11863,14.0215566 C202.26384,27.166766 201.738031,44.6937118 201.738031,63.4475438 Z M171.065876,63.4475438 C171.065876,40.6625142 169.313181,36.4560472 166.50887,32.7753886 C164.230367,29.7958078 159.848631,27.3420354 154.240008,27.3420354 C148.631385,27.3420354 144.249649,29.7958078 141.971146,32.7753886 C139.166835,36.4560472 137.41414,40.6625142 137.41414,63.4475438 C137.41414,86.2325733 139.166835,90.2637708 141.971146,93.9444294 C144.249649,96.9240102 148.631385,99.5530521 154.240008,99.5530521 C159.848631,99.5530521 164.230367,96.9240102 166.50887,93.9444294 C169.313181,90.2637708 171.065876,86.2325733 171.065876,63.4475438 Z M313.559945,86.2325733 C309.002939,113.749878 289.898568,126.895088 266.237192,126.895088 C251.689827,126.895088 240.647851,121.987543 231.533839,112.873531 C218.38863,99.7283215 218.914438,82.2013758 218.914438,63.4475438 C218.914438,44.6937118 218.38863,27.166766 231.533839,14.0215566 C240.647851,4.90754482 251.689827,0 266.237192,0 C289.898568,0 309.002939,13.1452093 313.559945,40.6625142 L282.361982,40.6625142 C280.434018,33.6517359 276.57809,27.3420354 266.412461,27.3420354 C260.803838,27.3420354 256.597371,29.6205384 254.318868,32.6001192 C251.514557,36.2807778 249.586593,40.6625142 249.586593,63.4475438 C249.586593,86.2325733 251.514557,90.6143097 254.318868,94.2949683 C256.597371,97.2745491 260.803838,99.5530521 266.412461,99.5530521 C276.57809,99.5530521 280.434018,93.2433516 282.361982,86.2325733 L313.559945,86.2325733 Z M420.649584,63.4475438 C420.649584,82.2013758 421.175392,99.7283215 408.030183,112.873531 C398.916171,121.987543 388.400004,126.895088 373.151561,126.895088 C357.903118,126.895088 347.386951,121.987543 338.272939,112.873531 C325.127729,99.7283215 325.653538,82.2013758 325.653538,63.4475438 C325.653538,44.6937118 325.127729,27.166766 338.272939,14.0215566 C347.386951,4.90754482 357.903118,0 373.151561,0 C388.400004,0 398.916171,4.90754482 408.030183,14.0215566 C421.175392,27.166766 420.649584,44.6937118 420.649584,63.4475438 Z M389.977429,63.4475438 C389.977429,40.6625142 388.224734,36.4560472 385.420423,32.7753886 C383.14192,29.7958078 378.760184,27.3420354 373.151561,27.3420354 C367.542938,27.3420354 363.161202,29.7958078 360.882699,32.7753886 C358.078388,36.4560472 356.325693,40.6625142 356.325693,63.4475438 C356.325693,86.2325733 358.078388,90.2637708 360.882699,93.9444294 C363.161202,96.9240102 367.542938,99.5530521 373.151561,99.5530521 C378.760184,99.5530521 383.14192,96.9240102 385.420423,93.9444294 C388.224734,90.2637708 389.977429,86.2325733 389.977429,63.4475438 Z" id="COCO"></path>
                <path d="M80.3836465,143 L65.6211515,199.510196 L58.1605358,199.510196 L46.6521391,159.905438 L35.2231108,199.510196 L27.762495,199.510196 L13,143 L22.0479808,143 L31.8896441,183.398441 L43.2393043,143 L50.1443423,143 L61.4940024,183.398441 L71.3356657,143 L80.3836465,143 Z M148.957817,199.510196 L139.830468,199.510196 L135.941423,188.160536 L113.638944,188.160536 L109.7499,199.510196 L100.622551,199.510196 L121.337665,143 L128.242703,143 L148.957817,199.510196 Z M133.560376,180.858657 L124.988605,155.778289 L116.178729,180.858657 L133.560376,180.858657 Z M212.611156,199.510196 L176.816074,199.510196 L176.816074,143 L185.387845,143 L185.387845,191.811475 L212.611156,191.811475 L212.611156,199.510196 Z M278.010596,199.510196 L242.215514,199.510196 L242.215514,143 L250.787285,143 L250.787285,191.811475 L278.010596,191.811475 L278.010596,199.510196 Z M343.727509,199.510196 L307.614954,199.510196 L307.614954,143 L343.727509,143 L343.727509,150.698721 L316.186725,150.698721 L316.186725,167.207317 L339.679728,167.207317 L339.679728,174.826669 L316.186725,174.826669 L316.186725,191.811475 L343.727509,191.811475 L343.727509,199.510196 Z M410,150.698721 L394.443822,150.698721 L394.443822,199.510196 L385.872051,199.510196 L385.872051,150.698721 L370.315874,150.698721 L370.315874,143 L410,143 L410,150.698721 Z" id="WALLET"></path>
            </g>
        </g>
    </g>
</svg>