<?xml version="1.0" encoding="UTF-8"?>
<svg width="1024px" height="512px" viewBox="0 0 1024 512" version="1.1" xmlns="http://www.w3.org/2000/svg" xmlns:xlink="http://www.w3.org/1999/xlink">
    <!-- Generator: Sketch 52.2 (67145) - http://www.bohemiancoding.com/sketch -->
    <title>Logo/中文横版@2x</title>
    <desc>Created with Sketch.</desc>
    <defs>
        <linearGradient x1="77.4403252%" y1="7.70119357%" x2="26.9416982%" y2="94.1393288%" id="linearGradient-1">
            <stop stop-color="#FF6B6B" offset="0%"></stop>
            <stop stop-color="#FF1FC6" offset="100%"></stop>
        </linearGradient>
        <linearGradient x1="28.2327199%" y1="91.2863306%" x2="100%" y2="8.09657745%" id="linearGradient-2">
            <stop stop-color="#6F8CFF" offset="0%"></stop>
            <stop stop-color="#38D1FF" offset="100%"></stop>
        </linearGradient>
    </defs>
    <g id="Logo/中文横版" stroke="none" stroke-width="1" fill="none" fill-rule="evenodd">
        <g id="Group-2" transform="translate(32.000000, 136.000000)">
            <path d="M299.94012,240 C233.632879,240 179.88024,186.27417 179.88024,120 C179.88024,53.72583 233.632879,0 299.94012,0 C366.247361,0 420,53.72583 420,120 C420,186.27417 366.247361,240 299.94012,240 Z M299.94012,180 C333.09374,180 359.97006,153.137085 359.97006,120 C359.97006,86.862915 333.09374,60 299.94012,60 C266.786499,60 239.91018,86.862915 239.91018,120 C239.91018,153.137085 266.786499,180 299.94012,180 Z" id="Combined-Shape-Copy-4" fill="url(#linearGradient-1)"></path>
            <path d="M192.444176,24.2537369 C162.400045,77.4236958 192.448629,24.2458552 162.395591,77.4315787 C162.391912,77.4380885 162.388236,77.4445992 162.384562,77.4511108 C151.531129,66.6652467 136.574269,60 120.05988,60 C86.9062598,60 60.0299401,86.862915 60.0299401,120 C60.0299401,153.137085 86.9062598,180 120.05988,180 C136.577046,180 151.536159,173.332512 162.390036,162.543449 C162.39215,162.552621 162.394264,162.561795 162.396379,162.57097 L192.451281,215.740888 C172.324869,230.967435 147.247735,240 120.05988,240 C53.7526393,240 0,186.27417 0,120 C0,53.72583 53.7526393,0 120.05988,0 C147.244536,0 172.318968,9.03043987 192.444176,24.2537369 Z" id="Combined-Shape" fill="url(#linearGradient-2)"></path>
        </g>
        <g id="Group" transform="translate(496.000000, 156.000000)" fill="#2A426D">
            <path d="M0,0.464622328 L105,0.464622328 L105.004646,15.7971591 L105.004646,98.0353111 C105.004646,107.637554 100.203597,112.438603 90.6013539,112.438603 L67.3702375,112.438603 L67.3702375,97.5706888 L79.450418,97.5706888 C83.477165,97.5706888 85.4905083,95.7122181 85.4905083,91.9952209 L85.4905083,26.0188503 C85.1807585,19.2043555 81.6186896,15.7971591 74.8041948,15.7971591 L0,15.7971591 L0,0.464622328 Z M69.6933492,43.2098765 L69.6933492,91.0659762 L2.78773397,91.0659762 L2.78773397,42.7452541 C2.78773397,30.974763 8.20827358,25.0896057 19.0495154,25.0896057 L53.4315677,25.0896057 C64.2728095,25.0896057 69.6933492,31.1296356 69.6933492,43.2098765 Z M21.8372494,40.8867648 L21.8372494,75.7334394 L50.6438337,75.7334394 L50.6438337,49.7145891 C50.6438337,43.8293435 47.3915099,40.8867648 40.8867648,40.8867648 L21.8372494,40.8867648 Z M130.271251,0.464622328 L235.275897,0.464622328 L235.275897,98.0353111 C235.275897,107.637554 230.474848,112.438603 220.872605,112.438603 L197.641489,112.438603 L197.641489,97.5706888 L209.721669,97.5706888 C213.748416,97.5706888 215.761759,95.7122181 215.761759,91.9952209 L215.761759,26.0188503 C215.45201,19.2043555 211.889941,15.7971591 205.075446,15.7971591 L130.271251,15.7971591 L130.271251,0.464622328 Z M199.9646,43.2098765 L199.9646,91.0659762 L133.058985,91.0659762 L133.058985,42.7452541 C133.058985,30.974763 138.479525,25.0896057 149.320766,25.0896057 L183.702819,25.0896057 C194.544061,25.0896057 199.9646,31.1296356 199.9646,43.2098765 Z M152.1085,40.8867648 L152.1085,75.7334394 L180.915085,75.7334394 L180.915085,49.7145891 C180.915085,43.8293435 177.662761,40.8867648 171.158016,40.8867648 L152.1085,40.8867648 Z M300.500022,29.735829 L300.500022,46.4622328 L289.813709,46.4622328 L289.813709,60.4009026 L300.964645,60.4009026 L300.964645,77.1273064 L289.813709,77.1273064 L289.813709,93.8537102 C289.813709,96.0219586 290.742944,97.1060665 292.601443,97.1060665 L300.964645,97.1060665 L300.964645,112.438603 L281.450507,112.438603 C274.945762,111.509354 271.538565,107.172922 271.228816,99.4291781 L271.228816,87.3489976 C271.228816,80.5345027 268.441109,77.1273064 262.865614,77.1273064 L258.21939,77.1273064 L258.21939,60.4009026 L271.228816,60.4009026 L271.228816,54.3608123 C271.228816,49.0950663 268.750855,46.4622328 263.794858,46.4622328 L260.07788,46.4622328 L260.07788,29.735829 L300.500022,29.735829 Z M259.148635,0.464622328 L277.733528,0.464622328 L277.733528,10.2216912 L300.500022,10.2216912 L300.500022,25.554228 L268.905704,25.554228 C262.400959,24.9347285 259.148635,20.7531694 259.148635,13.0094252 L259.148635,0.464622328 Z M370.657994,39.9575202 L370.657994,55.290057 L347.426877,55.290057 L352.073101,70.6225938 L370.193371,62.2593919 L370.193371,82.238152 L358.113191,88.2782423 L366.476393,112.438603 L345.103766,112.438603 L339.99292,95.7121995 L310.721713,107.79238 L310.721713,87.8136199 L333.95283,78.056551 L326.983495,55.290057 L304.681623,55.290057 L304.681623,39.9575202 L323.266516,39.9575202 L320.943405,30.6650736 L305.610868,30.6650736 L305.610868,15.3325368 L317.691048,15.3325368 L314.903314,0 L334.417452,0 L337.205186,15.3325368 L348.820744,15.3325368 L345.103766,2.32311164 L363.224036,2.32311164 L367.87026,18.1202708 C368.180009,25.5542652 364.617941,29.7358243 357.183946,30.6650736 L340.922165,30.6650736 L342.780654,39.9575202 L370.657994,39.9575202 Z M389.884508,48.3207221 C389.884508,37.78923 395.150175,32.5235629 405.681667,32.5235629 L454.931634,32.5235629 C464.533877,32.5235629 469.334926,37.78923 469.334926,48.3207221 L469.334926,85.025886 L409.863268,85.025886 L409.863268,94.7829548 L500,94.7829548 L500,102.216912 C500,109.031407 495.353823,112.438603 486.06133,112.438603 L407.075534,112.438603 C395.614793,112.438603 389.884508,107.018064 389.884508,96.1768218 L389.884508,48.3207221 Z M448.891544,66.4409929 L448.891544,58.077791 C448.891544,53.4315445 446.413583,51.108456 441.457587,51.108456 L408.934024,51.108456 L408.934024,66.4409929 L448.891544,66.4409929 Z M389.419886,13.4740475 L389.419886,0 L412.18638,0 L412.18638,6.04009026 L478.162751,6.04009026 C490.862491,5.73034049 497.212266,11.6154978 497.212266,23.6957387 L497.212266,85.025886 L478.162751,85.025886 L478.162751,32.5235629 C478.162751,27.5675667 476.149407,25.0896057 472.12266,25.0896057 L404.287801,25.0896057 C395.305057,25.3993555 390.349135,21.5275414 389.419886,13.4740475 Z" id="可可钱包"></path>
            <path d="M40.8000617,182.4 C38.8800617,193.76 30.8000617,199.92 20.4800617,199.92 C14.5600617,199.92 9.44006173,197.76 5.52006173,193.84 C-0.0799382716,188.24 6.17283949e-05,181.92 6.17283949e-05,170.96 C6.17283949e-05,160 -0.0799382716,153.68 5.52006173,148.08 C9.44006173,144.16 14.5600617,142 20.4800617,142 C30.9600617,142 38.8000617,148.16 40.8000617,159.52 L32.0000617,159.52 C30.6400617,153.76 26.8000617,149.76 20.4800617,149.76 C17.1200617,149.76 14.0800617,151.04 12.0800617,153.2 C9.28006173,156.24 8.64006173,159.52 8.64006173,170.96 C8.64006173,182.4 9.28006173,185.68 12.0800617,188.72 C14.0800617,190.88 17.1200617,192.16 20.4800617,192.16 C26.8000617,192.16 30.7200617,188.16 32.0800617,182.4 L40.8000617,182.4 Z M91.2000617,170.96 C91.2000617,181.92 91.3600617,188.24 85.7600617,193.84 C81.8400617,197.76 76.8000617,199.92 70.7200617,199.92 C64.6400617,199.92 59.6800617,197.76 55.7600617,193.84 C50.1600617,188.24 50.2400617,181.92 50.2400617,170.96 C50.2400617,160 50.1600617,153.68 55.7600617,148.08 C59.6800617,144.16 64.6400617,142 70.7200617,142 C76.8000617,142 81.8400617,144.16 85.7600617,148.08 C91.3600617,153.68 91.2000617,160 91.2000617,170.96 Z M82.5600617,170.96 C82.5600617,159.52 82.0000617,156.32 79.2000617,153.28 C77.2000617,151.12 74.0800617,149.76 70.7200617,149.76 C67.3600617,149.76 64.2400617,151.12 62.2400617,153.28 C59.4400617,156.32 58.8800617,159.52 58.8800617,170.96 C58.8800617,182.4 59.4400617,185.6 62.2400617,188.64 C64.2400617,190.8 67.3600617,192.16 70.7200617,192.16 C74.0800617,192.16 77.2000617,190.8 79.2000617,188.64 C82.0000617,185.6 82.5600617,182.4 82.5600617,170.96 Z M142.720062,182.4 C140.800062,193.76 132.720062,199.92 122.400062,199.92 C116.480062,199.92 111.360062,197.76 107.440062,193.84 C101.840062,188.24 101.920062,181.92 101.920062,170.96 C101.920062,160 101.840062,153.68 107.440062,148.08 C111.360062,144.16 116.480062,142 122.400062,142 C132.880062,142 140.720062,148.16 142.720062,159.52 L133.920062,159.52 C132.560062,153.76 128.720062,149.76 122.400062,149.76 C119.040062,149.76 116.000062,151.04 114.000062,153.2 C111.200062,156.24 110.560062,159.52 110.560062,170.96 C110.560062,182.4 111.200062,185.68 114.000062,188.72 C116.000062,190.88 119.040062,192.16 122.400062,192.16 C128.720062,192.16 132.640062,188.16 134.000062,182.4 L142.720062,182.4 Z M193.120062,170.96 C193.120062,181.92 193.280062,188.24 187.680062,193.84 C183.760062,197.76 178.720062,199.92 172.640062,199.92 C166.560062,199.92 161.600062,197.76 157.680062,193.84 C152.080062,188.24 152.160062,181.92 152.160062,170.96 C152.160062,160 152.080062,153.68 157.680062,148.08 C161.600062,144.16 166.560062,142 172.640062,142 C178.720062,142 183.760062,144.16 187.680062,148.08 C193.280062,153.68 193.120062,160 193.120062,170.96 Z M184.480062,170.96 C184.480062,159.52 183.920062,156.32 181.120062,153.28 C179.120062,151.12 176.000062,149.76 172.640062,149.76 C169.280062,149.76 166.160062,151.12 164.160062,153.28 C161.360062,156.32 160.800062,159.52 160.800062,170.96 C160.800062,182.4 161.360062,185.6 164.160062,188.64 C166.160062,190.8 169.280062,192.16 172.640062,192.16 C176.000062,192.16 179.120062,190.8 181.120062,188.64 C183.920062,185.6 184.480062,182.4 184.480062,170.96 Z M267.280062,142.48 L252.400062,199.44 L244.880062,199.44 L233.280062,159.52 L221.760062,199.44 L214.240062,199.44 L199.360062,142.48 L208.480062,142.48 L218.400062,183.2 L229.840062,142.48 L236.800062,142.48 L248.240062,183.2 L258.160062,142.48 L267.280062,142.48 Z M317.520062,199.44 L308.320062,199.44 L304.400062,188 L281.920062,188 L278.000062,199.44 L268.800062,199.44 L289.680062,142.48 L296.640062,142.48 L317.520062,199.44 Z M302.000062,180.64 L293.360062,155.36 L284.480062,180.64 L302.000062,180.64 Z M361.680062,199.44 L325.600062,199.44 L325.600062,142.48 L334.240062,142.48 L334.240062,191.68 L361.680062,191.68 L361.680062,199.44 Z M407.600062,199.44 L371.520062,199.44 L371.520062,142.48 L380.160062,142.48 L380.160062,191.68 L407.600062,191.68 L407.600062,199.44 Z M453.840062,199.44 L417.440062,199.44 L417.440062,142.48 L453.840062,142.48 L453.840062,150.24 L426.080062,150.24 L426.080062,166.88 L449.760062,166.88 L449.760062,174.56 L426.080062,174.56 L426.080062,191.68 L453.840062,191.68 L453.840062,199.44 Z M500.640062,150.24 L484.960062,150.24 L484.960062,199.44 L476.320062,199.44 L476.320062,150.24 L460.640062,150.24 L460.640062,142.48 L500.640062,142.48 L500.640062,150.24 Z" id="COCOWALLET"></path>
        </g>
    </g>
</svg>