<svg xmlns="http://www.w3.org/2000/svg" width="1983" height="354" viewBox="0 0 1983 354">
  <g fill="none">
    <polyline fill="#E5E5E5" points="1831.17 50.1 1880.4 61 1880.4 39.2 1831.17 50.1"/>
    <polygon fill="#EFEFEF" points="1315.58 91.07 1508.75 91.07 1508.75 354 1315.58 354"/>
    <polygon fill="#E5E5E5" points="1439.53 26.33 1478.85 26.33 1478.85 65.65 1439.53 65.65"/>
    <path fill="#F4F4F4" d="M1412.17,0.74 L1315.58,91.07 L1508.76,91.07 L1412.17,0.74 M1128.67,164.41 L1180.09,112.98 L1315.58,112.98 L1315.58,164.41 L1128.67,164.41"/>
    <polygon fill="#E5E5E5" points="1128.67 164.41 1315.58 164.41 1315.58 354 1128.67 354"/>
    <polyline fill="#F4F4F4" points="1695.67 164.41 1644.25 112.98 1508.76 112.98 1508.76 164.41 1695.67 164.41"/>
    <polygon fill="#E5E5E5" points="1508.76 164.41 1695.67 164.41 1695.67 354 1508.76 354"/>
    <circle cx="1412.17" cy="54.4" r="15.2" fill="#FAFAFB"/>
    <polygon fill="#EAEAEA" points="1315.58 91.07 1508.75 91.07 1508.75 104.26 1315.58 104.26"/>
    <path fill="#F9F9FB" d="M1378.34,259 L1407.34,259 L1407.34,324 L1378.34,324 L1378.34,259 Z M1417,259 L1446,259 L1446,324 L1417,324 L1417,259 Z"/>
    <path fill="#FAFAFB" d="M1353.53,138.41 L1374.91,138.41 L1374.91,169.91 L1353.53,169.91 L1353.53,138.41 Z M1401.48,138.41 L1422.86,138.41 L1422.86,169.91 L1401.48,169.91 L1401.48,138.41 Z M1449.42,138.41 L1470.8,138.41 L1470.8,169.91 L1449.42,169.91 L1449.42,138.41 Z M1353.53,191.91 L1374.91,191.91 L1374.91,223.41 L1353.53,223.41 L1353.53,191.91 Z M1401.48,191.91 L1422.86,191.91 L1422.86,223.41 L1401.48,223.41 L1401.48,191.91 Z M1449.42,191.91 L1470.8,191.91 L1470.8,223.41 L1449.42,223.41 L1449.42,191.91 Z"/>
    <polygon fill="#EFEFEF" points="1695.67 255.67 1778.67 255.67 1778.67 354 1695.67 354"/>
    <polygon fill="#EAEAEA" points="1695.67 239.41 1778.67 239.41 1778.67 255.67 1695.67 255.67"/>
    <polygon fill="#E5E5E5" points="1778.67 213.67 1982.14 213.67 1982.14 354 1778.67 354"/>
    <path fill="#F9F9FB" d="M1831.16,247.41 L1831.16,263.91 L1799.66,263.91 L1799.66,247.41 L1831.16,247.41 Z M1896.15,247.41 L1896.15,263.91 L1864.65,263.91 L1864.65,247.41 L1896.15,247.41 Z M1831.17,296.06 L1831.17,312.56 L1799.67,312.56 L1799.67,296.06 L1831.17,296.06 Z M1961.14,247.41 L1961.14,263.91 L1929.64,263.91 L1929.64,247.41 L1961.14,247.41 Z M1961.15,296.06 L1961.15,312.56 L1929.65,312.56 L1929.65,296.06 L1961.15,296.06 Z"/>
    <polyline fill="#EFEFEF" points="1883.82 103.7 1883.82 30.34 1876.99 30.34 1876.99 103.7 1864.07 103.7 1864.07 126.34 1896.74 126.34 1896.74 103.7 1883.82 103.7"/>
    <path fill="#F4F4F4" d="M1982.14,215.24 L1778.67,215.24 L1778.67,213.64 C1778.73128,209.11368 1779.09878,204.596695 1779.77,200.12 C1787.26831,150.339333 1830.04278,113.525338 1880.385,113.525338 C1930.72722,113.525338 1973.50169,150.339333 1981,200.12 C1981.67122,204.596695 1982.03872,209.11368 1982.1,213.64 C1982.14,214.24 1982.14,214.74 1982.14,215.24 L1982.14,215.24 Z"/>
    <circle cx="1880.4" cy="164.41" r="21.4" fill="#FAFAFB"/>
    <polygon fill="#EFEFEF" points="1695.67 213.67 1729.34 213.67 1729.34 239.41 1695.67 239.41"/>
    <polyline fill="#F4F4F4" points="1917.4 163.41 1881.4 163.41 1881.4 131 1879.4 131 1879.4 163.41 1843.4 163.41 1843.4 165.41 1879.4 165.41 1879.4 205 1881.4 205 1881.4 165.41 1917.4 165.41 1917.4 163.41"/>
    <path fill="#FAFAFC" d="M1904.77,354 L1904.77,309 C1904.77,295.540821 1893.85918,284.63 1880.4,284.63 C1866.94082,284.63 1856.03,295.540821 1856.03,309 L1856.03,354 L1904.77,354 Z"/>
    <circle cx="1880.4" cy="26.33" r="7.47" fill="#E5E5E5"/>
    <polygon fill="#EFEFEF" points="1038.17 229.2 1128.67 229.2 1128.67 354 1038.17 354"/>
    <polygon fill="#EAEAEA" points="1038.17 218 1128.67 218 1128.67 229.2 1038.17 229.2"/>
    <polyline fill="#F4F4F4" points="1083.42 177.91 1038.17 218.57 1128.67 218.57 1083.42 177.91"/>
    <path fill="#EAEAEA" d="M1023.23,323.67 L1038.17,323.67 L1038.17,354 L1023.23,354 L1023.23,323.67 Z M1008.28,338.83 L1023.22,338.83 L1023.22,354 L1008.28,354 L1008.28,338.83 Z"/>
    <path fill="#F8F8FB" d="M1209.6,345.99 C1206.87196,346.00384 1204.29744,347.254322 1202.6,349.39 C1200.0547,343.185411 1193.55612,339.56641 1186.94112,340.669708 C1180.32612,341.773005 1175.35385,347.305199 1174.96,354 L1218.6,354 C1218.09316,349.419586 1214.20829,345.962044 1209.6,345.99 L1209.6,345.99 Z M1703.01,352.87 C1703.02034,352.666798 1703.02034,352.463202 1703.01,352.26 C1702.64826,346.672965 1700.38233,341.37874 1696.59,337.26 C1696.3,336.95 1696.01,336.64 1695.71,336.35 C1690.32844,331.038092 1682.81313,328.47895 1675.30818,329.402696 C1667.80323,330.326442 1661.13282,334.631633 1657.2,341.09 C1656.86,341.65 1656.54,342.22 1656.25,342.8 C1645.30273,338.032656 1632.54036,340.662794 1624.37,349.37 L1624.05,349.1 C1621.36843,346.971358 1617.8486,346.212695 1614.52825,347.047684 C1611.2079,347.882672 1608.46565,350.216093 1607.11,353.36 C1607.01968,353.559121 1606.93958,353.762718 1606.87,353.97 L1703.09,353.97 C1703.05,353.62 1703.03,353.24 1703.01,352.87 L1703.01,352.87 Z M1982.14,335.68 C1974.85567,335.679165 1968.35784,340.259271 1965.91,347.12 C1960.15035,342.47525 1952.68457,340.504482 1945.38288,341.701386 C1938.08119,342.89829 1931.63532,347.14948 1927.66,353.39 C1927.52,353.59 1927.39,353.79 1927.27,354 L1982.14,354 L1982.14,335.68 Z"/>
    <polygon fill="#EFEFEF" points="270.03 131.34 595.89 131.34 595.89 353.35 270.03 353.35"/>
    <polygon fill="#EAEAEA" points="255.53 113.93 610.4 113.93 610.4 131.33 255.53 131.33"/>
    <polyline fill="#F4F4F4" points="432.96 24.75 255.53 114.51 610.4 114.51 432.96 24.75"/>
    <path fill="#FAFAFB" d="M567.27,131.34 L587.88,131.34 L587.88,353.35 L567.27,353.35 L567.27,131.34 Z M505.41,131.34 L526.02,131.34 L526.02,353.35 L505.41,353.35 L505.41,131.34 Z M339.92,131.34 L360.52,131.34 L360.52,353.35 L339.92,353.35 L339.92,131.34 Z M278.05,131.34 L298.66,131.34 L298.66,353.35 L278.05,353.35 L278.05,131.34 Z"/>
    <path fill="#E5E5E5" d="M559.26,131.34 L595.89,131.34 L595.89,142.08 L559.26,142.08 L559.26,131.34 Z M497.39,131.34 L534.02,131.34 L534.02,142.08 L497.39,142.08 L497.39,131.34 Z M331.9,131.34 L368.53,131.34 L368.53,142.08 L331.9,142.08 L331.9,131.34 Z M270.03,131.34 L306.66,131.34 L306.66,142.08 L270.03,142.08 L270.03,131.34 Z M559.26,343.13 L595.89,343.13 L595.89,353.34 L559.26,353.34 L559.26,343.13 Z M497.39,343.13 L534.03,343.13 L534.03,353.35 L497.39,353.35 L497.39,343.13 Z M331.9,343.13 L368.53,343.13 L368.53,353.35 L331.9,353.35 L331.9,343.13 Z M270.03,343.13 L306.67,343.13 L306.67,353.35 L270.03,353.35 L270.03,343.13 Z"/>
    <polygon fill="#FAFAFB" points="406.62 268.19 459.3 268.19 459.3 323.14 406.62 323.14"/>
    <path fill="#EAEAEA" d="M391.77,323.14 L474.16,323.14 L474.16,333.35 L391.77,333.35 L391.77,323.14 Z M378.46,333.35 L487.46,333.35 L487.46,343.56 L378.46,343.56 L378.46,333.35 Z"/>
    <polygon fill="#EAEAEA" points="368.53 343.55 497.39 343.55 497.39 353.35 368.53 353.35"/>
    <path fill="#E5E5E5" d="M391.77,330.8 L474.16,330.8 L474.16,333.35 L391.77,333.35 L391.77,330.8 Z M378.46,341 L487.46,341 L487.46,343.55 L378.46,343.55 L378.46,341 Z M368.15,350.62 L497.77,350.62 L497.77,353.35 L368.15,353.35 L368.15,350.62 Z"/>
    <circle cx="432.96" cy="72.63" r="19.07" fill="#F9F9FB"/>
    <polygon fill="#EFEFEF" points="431.96 268.19 433.96 268.19 433.96 323.14 431.96 323.14"/>
    <polygon fill="#E5E5E5" points="595.89 181.08 867.68 181.08 867.68 353.35 595.89 353.35"/>
    <polygon fill="#F4F4F4" points="595.89 164.17 867.68 164.17 867.68 181.09 595.89 181.09"/>
    <polygon fill="#E5E5E5" points="915.03 274.25 919.03 274.25 919.03 353.35 915.03 353.35"/>
    <path fill="#E5E5E5" d="M946.28,321.49 L887.78,321.49 L917.03,218 L946.28,321.49 L946.28,321.49 Z M952.56,296.64 L956.56,296.64 L956.56,353.35 L952.56,353.35 L952.56,296.64 Z"/>
    <polyline fill="#EFEFEF" points="975.53 330.51 933.59 330.51 954.56 261.97 975.53 330.51"/>
    <path fill="#F8F8FB" d="M318.67,353.35 L280.89,353.35 C281.690177,343.963551 289.247424,336.580766 298.65,336 L299.78,336 C309.650121,335.978503 317.876654,343.551791 318.67,353.39 L318.67,353.35 Z"/>
    <path fill="#F8F8FB" d="M343,353.35 L306.35,353.35 C306.45,353.18 306.56,353.02 306.67,352.86 C310.25855,347.476554 316.068538,343.982168 322.506008,343.335516 C328.943479,342.688865 335.332404,344.957857 339.92,349.52 C340.18,349.78 340.44,350.05 340.69,350.32 C341.546175,351.261297 342.319073,352.275098 343,353.35 L343,353.35 Z"/>
    <path fill="#F8F8FB" d="M353.55,353.35 L338.3,353.35 C338.703949,352.487078 339.251765,351.69917 339.92,351.02 C340.16,350.78 340.42,350.55 340.69,350.32 C342.705012,348.721419 345.339589,348.130227 347.844441,348.714563 C350.349293,349.298899 352.450329,350.994822 353.55,353.32 L353.55,353.35 Z M867.43,336.1 C866.508838,336.097454 865.589041,336.171038 864.68,336.32 C860.10766,337.060908 856.024999,339.608517 853.35,343.39 C852.32629,343.075338 851.260974,342.916889 850.19,342.92 C844.363636,342.921206 839.58037,347.527805 839.36,353.35 L884.68,353.35 C884.68,343.823088 876.956912,336.1 867.43,336.1 L867.43,336.1 Z"/>
    <path fill="#E5E5E5" d="M788.54,143.08 L804.87,143.08 L804.87,164.16 L788.54,164.16 L788.54,143.08 Z M814.54,143.08 L830.87,143.08 L830.87,164.16 L814.54,164.16 L814.54,143.08 Z"/>
    <polygon fill="#EFEFEF" points="0 174.17 135.02 174.17 135.02 353.35 0 353.35"/>
    <polygon fill="#E5E5E5" points="135.02 218.46 270.04 218.46 270.04 353.34 135.02 353.34"/>
    <polygon fill="#EAEAEA" points="135.02 210.84 270.04 210.84 270.04 220.37 135.02 220.37"/>
    <polygon fill="#E5E5E5" points="154.53 134.51 173.03 134.51 173.03 192.24 154.53 192.24"/>
    <polyline fill="#F4F4F4" points="135.02 210.84 191.63 154.23 270.03 154.23 270.03 210.84 135.02 210.84"/>
    <path fill="#F8F8FB" d="M90.85,342.92 C89.7790265,342.916889 88.7137097,343.075338 87.69,343.39 C83.3461903,337.25285 75.52761,334.636231 68.3647665,336.922488 C61.201923,339.208745 56.3450486,345.871152 56.3599656,353.39 L101.68,353.39 C101.480619,347.552082 96.6913217,342.921985 90.85,342.92 L90.85,342.92 Z"/>
    <circle cx="40.64" cy="224.53" r="14.41" fill="#F9F9FB"/>
    <circle cx="94.38" cy="224.53" r="14.41" fill="#F9F9FB"/>
    <circle cx="40.64" cy="285.39" r="14.41" fill="#F9F9FB"/>
    <circle cx="94.38" cy="285.39" r="14.41" fill="#F9F9FB"/>
    <polygon fill="#E5E5E5" points="0 158.25 135.02 158.25 135.02 174.17 0 174.17"/>
    <path fill="#F9F9FB" d="M183.9,296.32 L221.15,296.32 L221.15,353.35 L183.9,353.35 L183.9,296.32 Z M168.02,240.25 L237.02,240.25 L237.02,269.75 L168.02,269.75 L168.02,240.25 Z"/>
    <path fill="#E5E5E5" d="M182.9,240.25 L184.9,240.25 L184.9,269.75 L182.9,269.75 L182.9,240.25 Z M220.15,240.25 L222.15,240.25 L222.15,269.75 L220.15,269.75 L220.15,240.25 Z"/>
    <polyline fill="#F4F4F4" points="465.96 71.63 433.96 71.63 433.96 42.33 431.96 42.33 431.96 71.63 399.96 71.63 399.96 73.63 431.96 73.63 431.96 108.33 433.96 108.33 433.96 73.63 465.96 73.63 465.96 71.63"/>
    <path fill="#F9F9FB" d="M1163.49,206.7 L1184.87,206.7 L1184.87,238.2 L1163.49,238.2 L1163.49,206.7 Z M1211.44,206.7 L1232.82,206.7 L1232.82,238.2 L1211.44,238.2 L1211.44,206.7 Z M1259.38,206.7 L1280.76,206.7 L1280.76,238.2 L1259.38,238.2 L1259.38,206.7 Z M1163.49,260.2 L1184.87,260.2 L1184.87,291.7 L1163.49,291.7 L1163.49,260.2 Z M1211.44,260.2 L1232.82,260.2 L1232.82,291.7 L1211.44,291.7 L1211.44,260.2 Z M1259.38,260.2 L1280.76,260.2 L1280.76,291.7 L1259.38,291.7 L1259.38,260.2 Z M1543.58,206.7 L1564.96,206.7 L1564.96,238.2 L1543.58,238.2 L1543.58,206.7 Z M1591.52,206.7 L1612.9,206.7 L1612.9,238.2 L1591.52,238.2 L1591.52,206.7 Z M1639.47,206.7 L1660.85,206.7 L1660.85,238.2 L1639.47,238.2 L1639.47,206.7 Z M1543.58,260.2 L1564.96,260.2 L1564.96,291.7 L1543.58,291.7 L1543.58,260.2 Z M1591.52,260.2 L1612.9,260.2 L1612.9,291.7 L1591.52,291.7 L1591.52,260.2 Z M1639.47,260.2 L1660.85,260.2 L1660.85,291.7 L1639.47,291.7 L1639.47,260.2 Z"/>
    <polyline fill="#F4F4F4" points="1441.75 52.91 1413.17 52.91 1413.17 26.34 1411.17 26.34 1411.17 52.91 1382.59 52.91 1382.59 54.91 1411.17 54.91 1411.17 85.49 1413.17 85.49 1413.17 54.91 1441.75 54.91 1441.75 52.91"/>
    <path fill="#E5E5E5" d="M1348.52,169.81 L1379.92,169.81 L1379.92,175.32 L1348.52,175.32 L1348.52,169.81 Z M1396.47,169.81 L1427.87,169.81 L1427.87,175.32 L1396.47,175.32 L1396.47,169.81 Z M1444.41,169.81 L1475.81,169.81 L1475.81,175.32 L1444.41,175.32 L1444.41,169.81 Z M1348.52,223.41 L1379.92,223.41 L1379.92,228.92 L1348.52,228.92 L1348.52,223.41 Z M1396.47,223.41 L1427.87,223.41 L1427.87,228.92 L1396.47,228.92 L1396.47,223.41 Z M1444.41,223.41 L1475.81,223.41 L1475.81,228.92 L1444.41,228.92 L1444.41,223.41 Z"/>
    <path fill="#EFEFEF" d="M1158.48,238.2 L1189.88,238.2 L1189.88,243.71 L1158.48,243.71 L1158.48,238.2 Z M1206.42,238.2 L1237.82,238.2 L1237.82,243.71 L1206.42,243.71 L1206.42,238.2 Z M1254.37,238.2 L1285.77,238.2 L1285.77,243.71 L1254.37,243.71 L1254.37,238.2 Z M1158.48,291.8 L1189.88,291.8 L1189.88,297.31 L1158.48,297.31 L1158.48,291.8 Z M1206.42,291.8 L1237.82,291.8 L1237.82,297.31 L1206.42,297.31 L1206.42,291.8 Z M1254.37,291.8 L1285.77,291.8 L1285.77,297.31 L1254.37,297.31 L1254.37,291.8 Z M1538.57,238.2 L1569.97,238.2 L1569.97,243.71 L1538.57,243.71 L1538.57,238.2 Z M1586.51,238.2 L1617.91,238.2 L1617.91,243.71 L1586.51,243.71 L1586.51,238.2 Z M1634.46,238.2 L1665.86,238.2 L1665.86,243.71 L1634.46,243.71 L1634.46,238.2 Z M1538.57,291.8 L1569.97,291.8 L1569.97,297.31 L1538.57,297.31 L1538.57,291.8 Z M1586.51,291.8 L1617.91,291.8 L1617.91,297.31 L1586.51,297.31 L1586.51,291.8 Z M1634.46,291.8 L1665.86,291.8 L1665.86,297.31 L1634.46,297.31 L1634.46,291.8 Z"/>
    <path fill="#E5E5E5" d="M1879.4,247.42 L1881.4,247.42 L1881.4,263.92 L1879.4,263.92 L1879.4,247.42 Z M1814.42,247.42 L1816.42,247.42 L1816.42,263.92 L1814.42,263.92 L1814.42,247.42 Z M1944.39,247.42 L1946.39,247.42 L1946.39,263.92 L1944.39,263.92 L1944.39,247.42 Z M1814.42,296.06 L1816.42,296.06 L1816.42,312.56 L1814.42,312.56 L1814.42,296.06 Z M1944.39,296.06 L1946.39,296.06 L1946.39,312.56 L1944.39,312.56 L1944.39,296.06 Z M1206.42,85.49 L1222.12,85.49 L1222.12,113.54 L1206.42,113.54 L1206.42,85.49 Z"/>
    <path fill="#FAFAFB" d="M721.1,199.91 L742.48,199.91 L742.48,231.41 L721.1,231.41 L721.1,199.91 Z M721.1,253.41 L742.48,253.41 L742.48,284.91 L721.1,284.91 L721.1,253.41 Z"/>
    <polygon fill="#EFEFEF" points="716.08 231.41 747.48 231.41 747.48 236.92 716.08 236.92"/>
    <path fill="#FAFAFB" d="M643.15,199.91 L664.53,199.91 L664.53,231.41 L643.15,231.41 L643.15,199.91 Z M643.15,253.41 L664.53,253.41 L664.53,284.91 L643.15,284.91 L643.15,253.41 Z"/>
    <path fill="#EFEFEF" d="M638.14,231.41 L669.54,231.41 L669.54,236.92 L638.14,236.92 L638.14,231.41 Z M638.14,285.01 L669.54,285.01 L669.54,290.52 L638.14,290.52 L638.14,285.01 Z M716.08,285.01 L747.48,285.01 L747.48,290.52 L716.08,290.52 L716.08,285.01 Z"/>
    <path fill="#FAFAFB" d="M799.04,253.41 L820.42,253.41 L820.42,284.91 L799.04,284.91 L799.04,253.41 Z M799.04,199.91 L820.42,199.91 L820.42,231.41 L799.04,231.41 L799.04,199.91 Z"/>
    <path fill="#EFEFEF" d="M794.03,231.41 L825.43,231.41 L825.43,236.92 L794.03,236.92 L794.03,231.41 Z M794.03,285.01 L825.43,285.01 L825.43,290.52 L794.03,290.52 L794.03,285.01 Z"/>
    <polygon fill="#FAFAFB" points="392.5 152.4 413.88 152.4 413.88 183.9 392.5 183.9"/>
    <polygon fill="#E5E5E5" points="387.49 183.81 418.89 183.81 418.89 189.32 387.49 189.32"/>
    <polygon fill="#FAFAFB" points="452.04 152.4 473.42 152.4 473.42 183.9 452.04 183.9"/>
    <polygon fill="#E5E5E5" points="447.03 183.81 478.43 183.81 478.43 189.32 447.03 189.32"/>
    <polygon fill="#FAFAFB" points="392.5 209.45 413.88 209.45 413.88 240.95 392.5 240.95"/>
    <polygon fill="#E5E5E5" points="387.49 240.85 418.89 240.85 418.89 246.36 387.49 246.36"/>
    <polygon fill="#FAFAFB" points="452.04 209.45 473.42 209.45 473.42 240.95 452.04 240.95"/>
    <polygon fill="#E5E5E5" points="447.03 240.85 478.43 240.85 478.43 246.36 447.03 246.36"/>
    <path fill="#EAEAEA" d="M1370.98,323.38 L1453.37,323.38 L1453.37,333.59 L1370.98,333.59 L1370.98,323.38 Z M1357.67,333.59 L1466.67,333.59 L1466.67,343.8 L1357.67,343.8 L1357.67,333.59 Z"/>
    <polygon fill="#EAEAEA" points="1347.36 343.79 1476.98 343.79 1476.98 354 1347.36 354"/>
    <path fill="#E5E5E5" d="M1370.98,331.04 L1453.37,331.04 L1453.37,333.59 L1370.98,333.59 L1370.98,331.04 Z M1357.67,341.24 L1466.67,341.24 L1466.67,343.79 L1357.67,343.79 L1357.67,341.24 Z M1347.36,350.86 L1476.98,350.86 L1476.98,354 L1347.36,354 L1347.36,350.86 Z"/>
    <path fill="#EAEAEA" d="M1982.14,213.67 L1982.14,215.24 L1778.67,215.24 L1778.67,213.64 C1778.73128,209.11368 1779.09878,204.596695 1779.77,200.12 L1981,200.12 C1981.67122,204.596695 1982.03872,209.11368 1982.1,213.64 L1982.14,213.67 Z"/>
    <path fill="#E5E5E5" d="M1128.67,153.9 L1150.59,153.9 L1150.59,164.41 L1128.67,164.41 L1128.67,153.9 Z M1169.92,153.9 L1191.84,153.9 L1191.84,164.41 L1169.92,164.41 L1169.92,153.9 Z M1211.17,153.9 L1233.09,153.9 L1233.09,164.41 L1211.17,164.41 L1211.17,153.9 Z M1252.42,153.9 L1274.34,153.9 L1274.34,164.41 L1252.42,164.41 L1252.42,153.9 Z M1293.67,153.9 L1315.59,153.9 L1315.59,164.41 L1293.67,164.41 L1293.67,153.9 Z M1508.76,153.9 L1530.68,153.9 L1530.68,164.41 L1508.76,164.41 L1508.76,153.9 Z M1550.01,153.9 L1571.93,153.9 L1571.93,164.41 L1550.01,164.41 L1550.01,153.9 Z M1591.25,153.9 L1613.17,153.9 L1613.17,164.41 L1591.25,164.41 L1591.25,153.9 Z M1632.5,153.9 L1654.42,153.9 L1654.42,164.41 L1632.5,164.41 L1632.5,153.9 Z M1673.75,153.9 L1695.67,153.9 L1695.67,164.41 L1673.75,164.41 L1673.75,153.9 Z"/>
    <path fill="#EFEFEF" d="M1004,353.66 L955.82,353.66 C956.739663,352.166828 957.794061,350.760964 958.97,349.46 C964.943093,342.874799 973.667705,339.485637 982.519829,340.311835 C991.371953,341.138034 999.318695,346.083189 1003.97,353.66 L1004,353.66 Z"/>
    <path fill="#EFEFEF" d="M962.22,353.66 L942.06,353.66 C943.81045,349.653354 947.767668,347.063817 952.14,347.063817 C956.512332,347.063817 960.46955,349.653354 962.22,353.66 L962.22,353.66 Z"/>
  </g>
</svg>
