<!-- Generated by IcoMoon.io -->
<svg version="1.1" xmlns="http://www.w3.org/2000/svg" width="100" height="100" viewBox="0 0 100 100">
<title>handshake</title>
<path fill="#f29f5c" d="M81.397 47.932l-2.525-20.512-4.73 0.579-9.173-5.163c-0.979-0.551-2.101-0.79-3.22-0.687l-14.484 1.34c-1.78 0.165-3.371 1.181-4.27 2.727l-10.209 17.572c-0.754 1.297-0.162 2.962 1.242 3.492l0.418 0.158c0.803 0.303 1.629 0.479 2.454 0.548l-3.882 3.381-7.361 6.279c-1.31 1.141-1.446 3.127-0.305 4.438l0.747 0.855c1.466 1.681 4.017 1.855 5.701 0.389l2.813 3.227c0.915 1.050 2.255 1.515 3.542 1.356 0.774-0.095 1.529-0.416 2.159-0.967l2.81 3.227c0.918 1.053 2.258 1.515 3.545 1.356 0.774-0.095 1.529-0.413 2.159-0.964l1.527 1.32c1.466 1.684 4.020 1.858 5.704 0.392l2.076-1.811 17.472-13.61 6.886-0.007-1.097-8.914z"></path>
<path fill="#d37d42" d="M73.918 51.569l-0.019 0.017-17.453 13.592-2.076 1.811c-1.684 1.466-4.238 1.292-5.704-0.392l-1.527-1.32c-0.631 0.551-1.386 0.869-2.159 0.964-1.287 0.158-2.627-0.303-3.545-1.356l-2.81-3.227c-0.631 0.551-1.385 0.872-2.159 0.967-1.287 0.158-2.627-0.306-3.542-1.356l-2.813-3.227c-1.442 1.255-3.517 1.304-5.005 0.238-0.763 1.15-0.702 2.71 0.249 3.802l0.747 0.855c1.466 1.681 4.017 1.855 5.701 0.389l2.813 3.227c0.915 1.050 2.255 1.515 3.542 1.356 0.774-0.095 1.528-0.416 2.159-0.967l2.81 3.227c0.918 1.053 2.258 1.515 3.545 1.356 0.774-0.095 1.529-0.413 2.159-0.964l1.527 1.32c1.466 1.684 4.020 1.858 5.704 0.392l2.076-1.811 17.472-13.61 6.886-0.007-0.762-6.189-7.816 0.911z"></path>
<path fill="#f9c295" d="M77.095 60.442l-21.812-18.802 0.924-7.865c0.313-2.66-1.362-5.15-3.943-5.865l-17.439-4.825c-1.845-0.511-3.795 0.346-4.668 2.050l-2.193 4.281-9.414-0.639-3.459 29.446 9.163 0.609 0.019 0.017 21.229 18.301c1.692 1.457 4.245 1.269 5.702-0.423l2.792-3.239c0.633 0.548 1.39 0.861 2.165 0.952 1.288 0.151 2.625-0.318 3.538-1.376l2.792-3.242c0.633 0.548 1.39 0.864 2.164 0.955 1.288 0.151 2.626-0.321 3.534-1.376l2.795-3.242c1.692 1.457 4.242 1.268 5.699-0.421l0.742-0.859c1.134-1.317 0.987-3.302-0.329-4.436z"></path>
<path fill="#e59f6a" d="M77.095 60.442l-2.848-2.456c0.926 1.228 0.907 2.974-0.138 4.187l-0.788 0.912c-1.546 1.793-4.253 1.993-6.050 0.447l-2.967 3.442c-0.965 1.12-2.384 1.621-3.752 1.461-0.822-0.096-1.625-0.433-2.297-1.014l-2.964 3.442c-0.968 1.123-2.388 1.621-3.755 1.46-0.822-0.096-1.625-0.429-2.298-1.011l-2.964 3.439c-0.558 0.649-1.27 1.086-2.033 1.311l1.262 1.089c1.692 1.457 4.245 1.269 5.702-0.423l2.792-3.239c0.633 0.548 1.39 0.861 2.165 0.952 1.288 0.151 2.625-0.318 3.538-1.376l2.792-3.242c0.633 0.548 1.39 0.864 2.164 0.955 1.288 0.151 2.626-0.321 3.534-1.376l2.795-3.242c1.692 1.457 4.242 1.268 5.699-0.421l0.742-0.859c1.134-1.317 0.987-3.302-0.33-4.436z"></path>
<path fill="#f29f5c" d="M24.731 58.812l-1.109 1.465c-1.208 1.595-0.894 3.867 0.701 5.075v0c1.595 1.208 3.867 0.894 5.075-0.701l1.109-1.465c1.208-1.595 0.894-3.867-0.701-5.075v0c-1.595-1.208-3.867-0.894-5.075 0.701z"></path>
<path fill="#f29f5c" d="M31.487 61.892l-2.089 2.758c-1.208 1.595-0.894 3.867 0.701 5.075v0c1.595 1.208 3.867 0.894 5.075-0.701l2.089-2.758c1.208-1.595 0.894-3.867-0.701-5.075v0c-1.595-1.208-3.867-0.894-5.075 0.701z"></path>
<path fill="#f29f5c" d="M38.020 65.265l-2.847 3.759c-1.208 1.595-0.894 3.867 0.701 5.075v0c1.595 1.208 3.867 0.894 5.075-0.701l2.847-3.759c1.208-1.595 0.894-3.867-0.701-5.075v0c-1.595-1.208-3.867-0.894-5.075 0.701zM43.961 69.421l-3.012 3.977c-1.208 1.595-0.894 3.867 0.701 5.075v0c1.595 1.208 3.867 0.894 5.075-0.701l3.012-3.977c1.208-1.595 0.894-3.867-0.701-5.075v0c-1.595-1.208-3.867-0.894-5.075 0.701z"></path>
<path fill="#f29f5c" d="M74.142 28l-9.173-5.163c-0.979-0.551-2.101-0.79-3.22-0.687l-14.484 1.34c-1.78 0.165-3.371 1.181-4.27 2.727l-10.209 17.572c-0.754 1.298-0.162 2.962 1.242 3.492l0.418 0.158c3.742 1.413 7.968 0.211 10.405-2.961l3.911-5.090c0 0 9.402 10.886 19.754-1.827z"></path>
<path fill="#5c9cee" d="M93.342 20.792l4.798 38.975-11.219 1.381c-2.12 0.261-4.051-1.246-4.312-3.367l-3.853-31.296c-0.261-2.12 1.246-4.051 3.367-4.312l11.219-1.381z"></path>
<path fill="#3580d3" d="M86.733 56.75c-2.182 0.269-4.18-1.171-4.654-3.271l0.53 4.303c0.261 2.12 2.192 3.628 4.312 3.367l11.219-1.381-0.536-4.355-10.871 1.338z"></path>
<path fill="#ed5575" d="M6.448 20.792l-4.798 38.975 11.219 1.381c2.12 0.261 4.051-1.246 4.312-3.367l3.853-31.296c0.261-2.12-1.246-4.051-3.367-4.312l-11.219-1.381z"></path>
<path fill="#cc3a60" d="M13.133 56.653l-10.934-1.346-0.549 4.46 11.219 1.381c2.12 0.261 4.051-1.246 4.312-3.367l0.407-3.306c-0.896 1.495-2.614 2.404-4.455 2.177z"></path>
<path fill="#ebeef2" d="M93.093 53.348c0 1.555-1.26 2.815-2.815 2.815s-2.815-1.26-2.815-2.815c0-1.555 1.26-2.815 2.815-2.815s2.815 1.26 2.815 2.815z"></path>
<path fill="#ebeef2" d="M12.171 53.348c0 1.555-1.26 2.815-2.815 2.815s-2.815-1.26-2.815-2.815c0-1.555 1.26-2.815 2.815-2.815s2.815 1.26 2.815 2.815z"></path>
<path fill="#000" d="M49.915 67.559c-1.185-0.898-2.641-1.194-3.999-0.941-0.213-1.287-0.898-2.424-1.942-3.215-1.082-0.819-2.417-1.168-3.761-0.982-0.333 0.046-0.656 0.124-0.967 0.231-0.295-1.011-0.904-1.939-1.806-2.622-1.485-1.125-3.395-1.305-5.005-0.643-0.321-0.965-0.923-1.81-1.75-2.438-1.081-0.819-2.417-1.168-3.761-0.982-1.090 0.15-2.079 0.638-2.851 1.393l-5.33-0.354 3.267-26.536 5.853 0.398c0.033 0.002 0.066 0.003 0.099 0.003 0.543 0 1.045-0.304 1.295-0.792l2.194-4.28c0.556-1.083 1.811-1.634 2.984-1.309l3.258 0.901c0.774 0.214 1.577-0.24 1.792-1.015s-0.24-1.577-1.015-1.792l-3.257-0.901c-2.497-0.691-5.168 0.481-6.351 2.787l-1.756 3.427-4.738-0.322 0.112-0.912c0.359-2.914-1.72-5.576-4.634-5.935l-11.219-1.38c-0.8-0.098-1.525 0.469-1.623 1.267s0.469 1.525 1.267 1.623l11.219 1.381c0.64 0.079 1.21 0.402 1.607 0.91s0.572 1.14 0.493 1.779l-3.853 31.296c-0.162 1.32-1.369 2.261-2.689 2.1l-11.219-1.381c-0.799-0.097-1.525 0.469-1.623 1.267s0.469 1.525 1.267 1.623l11.219 1.381c0.22 0.027 0.438 0.040 0.654 0.040 1.967 0 3.741-1.093 4.66-2.758l3.987 0.265c-0.477 0.923-0.659 1.967-0.514 3.017 0.186 1.344 0.883 2.535 1.965 3.354 0.892 0.675 1.956 1.031 3.056 1.031 0.234 0 0.469-0.016 0.705-0.049 0.015-0.002 0.030-0.005 0.045-0.007 0.002 0.015 0.003 0.030 0.005 0.045 0.186 1.344 0.883 2.535 1.965 3.354 0.915 0.693 1.992 1.028 3.060 1.028 0.25 0 0.5-0.020 0.748-0.057 0.168 1.306 0.838 2.547 1.968 3.403 0.915 0.693 1.992 1.028 3.060 1.028 0.25 0 0.499-0.020 0.745-0.057 0.002 0.016 0.003 0.032 0.005 0.049 0.186 1.344 0.883 2.535 1.965 3.354 0.892 0.675 1.956 1.031 3.055 1.031 0.234 0 0.47-0.016 0.705-0.049 1.344-0.186 2.535-0.883 3.354-1.965l3.012-3.977c1.691-2.232 1.25-5.424-0.982-7.115zM26.806 64.608c-0.573 0.079-1.143-0.070-1.604-0.419s-0.759-0.858-0.838-1.431c-0.079-0.573 0.070-1.143 0.419-1.604l1.109-1.465c0.349-0.461 0.858-0.759 1.431-0.838s1.143 0.070 1.604 0.419c0.461 0.349 0.759 0.858 0.838 1.431s-0.070 1.143-0.419 1.604l-1.109 1.465c-0.349 0.461-0.858 0.759-1.431 0.838zM30.978 68.563c-0.461-0.349-0.759-0.858-0.838-1.431s0.070-1.143 0.419-1.604l1.109-1.464c0 0 0-0 0-0l0.979-1.293c0.426-0.562 1.074-0.858 1.73-0.858 0.456 0 0.915 0.143 1.305 0.439 0.952 0.721 1.14 2.083 0.419 3.035l-2.089 2.758c-0.721 0.952-2.083 1.14-3.035 0.419zM36.753 72.937c-0.461-0.349-0.759-0.858-0.838-1.431s0.070-1.143 0.419-1.604c0-0 0-0 0-0.001l2.089-2.758c0 0 0 0 0 0l0.758-1.001c0.349-0.461 0.858-0.759 1.431-0.838s1.143 0.070 1.604 0.419c0.952 0.721 1.14 2.082 0.42 3.034l-2.848 3.76c-0 0-0 0-0 0.001-0.721 0.952-2.082 1.14-3.035 0.419zM48.576 72.915l-3.012 3.977c-0.349 0.461-0.858 0.759-1.431 0.838s-1.143-0.070-1.604-0.419-0.759-0.858-0.838-1.431c-0.079-0.573 0.070-1.143 0.419-1.604l2.847-3.759c0.001-0.001 0.001-0.001 0.002-0.002l0.164-0.216c0.349-0.461 0.858-0.759 1.431-0.838s1.143 0.070 1.604 0.419c0.952 0.721 1.14 2.083 0.419 3.035z"></path>
<path fill="#000" d="M99.586 59.589c-0.098-0.798-0.824-1.365-1.623-1.267l-11.219 1.381c-1.322 0.163-2.526-0.779-2.689-2.1l-0.142-1.15-3.711-30.146c-0.079-0.64 0.096-1.271 0.493-1.779s0.967-0.831 1.607-0.91l11.219-1.381c0.798-0.098 1.365-0.825 1.267-1.623s-0.824-1.365-1.623-1.267l-11.219 1.381c-2.742 0.338-4.744 2.715-4.671 5.422l-2.829 0.348-8.761-4.93c-1.241-0.699-2.647-0.999-4.067-0.869-0.003 0-0.006 0.001-0.009 0.001l-2.637 0.244c-0.801 0.074-1.39 0.783-1.316 1.584s0.782 1.389 1.584 1.316l2.644-0.245c0.827-0.076 1.648 0.099 2.371 0.506l9.083 5.112c0.284 0.188 0.63 0.273 0.98 0.23l3.286-0.404 3.244 26.349-5.241 0.004c-0.349 0-0.687 0.126-0.951 0.354l-0.406 0.316-13.159-11.341c3.007-0.865 5.874-2.956 8.554-6.247 0.508-0.624 0.414-1.541-0.21-2.049s-1.541-0.414-2.049 0.21c-2.996 3.679-6.145 5.573-9.362 5.628-4.686 0.088-8.129-3.797-8.161-3.834-0.286-0.331-0.706-0.514-1.144-0.504-0.438 0.012-0.846 0.221-1.113 0.568l-3.911 5.090c-2.061 2.682-5.572 3.682-8.736 2.486l-0.418-0.158c-0.367-0.139-0.516-0.425-0.573-0.584s-0.122-0.475 0.075-0.814l10.209-17.571c0.66-1.137 1.836-1.887 3.145-2.008l6.044-0.559c0.801-0.074 1.39-0.783 1.316-1.584s-0.783-1.389-1.584-1.316l-6.044 0.559c-2.245 0.208-4.262 1.496-5.395 3.445l-10.209 17.571c-0.575 0.989-0.685 2.175-0.301 3.253s1.217 1.928 2.287 2.332l0.418 0.158c1.232 0.465 2.501 0.69 3.753 0.69 3.194-0 6.275-1.463 8.322-4.126l2.918-3.798c1.564 1.348 4.481 3.344 8.205 3.589l19.016 16.389c0.342 0.295 0.549 0.705 0.582 1.155s-0.11 0.886-0.404 1.228l-0.741 0.859c-0.931 1.078-2.567 1.198-3.648 0.268-0.060-0.052-0.125-0.097-0.19-0.137l-4.936-4.256c-0.609-0.525-1.528-0.457-2.054 0.152s-0.457 1.529 0.152 2.054l4.011 3.459-1.83 2.124c-0.562 0.652-1.408 0.982-2.262 0.881-0.511-0.060-0.99-0.272-1.384-0.612-0.007-0.006-0.015-0.011-0.022-0.017l-4.587-3.955c-0.609-0.525-1.528-0.457-2.054 0.152s-0.457 1.529 0.152 2.054l3.505 3.022-1.841 2.138c-0.562 0.652-1.41 0.982-2.265 0.881-0.799-0.094-1.522 0.478-1.616 1.276s0.477 1.522 1.276 1.616c0.216 0.025 0.431 0.038 0.645 0.038 1.59 0 3.112-0.689 4.166-1.91l1.968-2.285c0.538 0.256 1.116 0.424 1.715 0.494 1.817 0.214 3.614-0.486 4.808-1.872l1.971-2.288c2.18 1.034 4.872 0.538 6.522-1.374l0.742-0.861c0.802-0.931 1.194-2.119 1.103-3.345s-0.654-2.343-1.585-3.144l-1.195-1.030 4.368-0.004c0.477 2.516 2.692 4.329 5.225 4.329 0.216 0 0.435-0.013 0.654-0.040l11.219-1.381c0.798-0.098 1.366-0.825 1.267-1.623z"></path>
<path fill="#000" d="M90.278 49.077c-2.355 0-4.271 1.916-4.271 4.271s1.916 4.271 4.271 4.271c2.355 0 4.271-1.916 4.271-4.271s-1.916-4.271-4.271-4.271zM90.278 54.707c-0.749 0-1.359-0.61-1.359-1.359s0.61-1.359 1.359-1.359c0.749 0 1.359 0.609 1.359 1.359s-0.609 1.359-1.359 1.359zM13.627 53.348c0-2.355-1.916-4.271-4.271-4.271s-4.271 1.916-4.271 4.271c0 2.355 1.916 4.271 4.271 4.271s4.271-1.916 4.271-4.271zM7.997 53.348c0-0.749 0.609-1.359 1.359-1.359s1.359 0.609 1.359 1.359c0 0.749-0.609 1.359-1.359 1.359s-1.359-0.61-1.359-1.359z"></path>
</svg>
