<!-- Generated by IcoMoon.io -->
<svg version="1.1" xmlns="http://www.w3.org/2000/svg" width="100" height="100" viewBox="0 0 100 100">
<title>reward</title>
<path fill="#83b5fd" d="M33.62 36.643v11.714l-13.123-0.387-13.123-12.101c-3.615-1.72-5.918-5.366-5.918-9.369v-5.16l32.163 15.304z"></path>
<path fill="#4695fd" d="M20.537 47.97l13.083 0.386v-11.714l-5.594-2.662c-3.646 3.842-6.284 8.647-7.49 13.989z"></path>
<path fill="#83b5fd" d="M20.497 47.969l13.123 12.101v11.714l-14.41-6.857c-3.615-1.72-5.917-5.366-5.917-9.369v-5.16l7.205-2.429z"></path>
<path fill="#fd5c6f" d="M33.62 60.070l-20.328-9.672c-3.615-1.72-5.917-5.366-5.917-9.369v-5.16l26.245 12.488v11.714z"></path>
<path fill="#4695fd" d="M19.803 54.564c0 4.188 0.866 8.178 2.427 11.8l11.389 5.419v-11.714l-13.090-12.070c-0.475 2.113-0.727 4.31-0.727 6.564z"></path>
<path fill="#e92740" d="M19.824 53.506l13.796 6.564v-11.714l-11.453-5.45c-1.391 3.277-2.212 6.852-2.343 10.599z"></path>
<path fill="#83b5fd" d="M65.837 36.643v11.714l13.123-0.387 13.123-12.101c3.615-1.72 5.917-5.366 5.917-9.369v-5.16l-32.163 15.304z"></path>
<path fill="#4695fd" d="M78.92 47.97l-13.083 0.386v-11.714l5.594-2.662c3.646 3.842 6.284 8.647 7.49 13.989z"></path>
<path fill="#83b5fd" d="M78.959 47.969l-13.123 12.101v11.714l14.41-6.857c3.615-1.72 5.917-5.366 5.917-9.369v-5.16l-7.205-2.429z"></path>
<path fill="#fd5c6f" d="M65.837 60.070l20.328-9.672c3.615-1.72 5.917-5.366 5.917-9.369v-5.16l-26.245 12.488v11.714z"></path>
<path fill="#4695fd" d="M79.653 54.564c0 4.188-0.866 8.178-2.427 11.8l-11.389 5.419v-11.714l13.090-12.070c0.475 2.113 0.727 4.31 0.727 6.564z"></path>
<path fill="#e92740" d="M79.633 53.506l-13.796 6.564v-11.714l11.453-5.45c1.391 3.277 2.212 6.852 2.343 10.599z"></path>
<path fill="#fd5c6f" d="M73.826 54.564c0 13.309-10.789 24.098-24.098 24.098s-24.098-10.789-24.098-24.098c0-13.309 10.789-24.098 24.098-24.098s24.098 10.789 24.098 24.098z"></path>
<path fill="#4695fd" d="M67.649 54.564c0 9.897-8.024 17.921-17.921 17.921s-17.921-8.024-17.921-17.921c0-9.897 8.024-17.921 17.921-17.921s17.921 8.024 17.921 17.921z"></path>
<path fill="#eaeaec" d="M60.255 53.462c0.859-0.838 0.385-2.297-0.802-2.47l-5.069-0.737c-0.472-0.069-0.879-0.365-1.090-0.792l-2.267-4.593c-0.531-1.076-2.065-1.076-2.597 0l-2.267 4.593c-0.211 0.427-0.618 0.723-1.090 0.792l-5.069 0.737c-1.188 0.172-1.662 1.632-0.802 2.47l3.668 3.575c0.341 0.333 0.497 0.812 0.416 1.281l-0.866 5.049c-0.203 1.183 1.038 2.084 2.101 1.526l4.534-2.384c0.422-0.222 0.926-0.222 1.347 0l4.534 2.384c1.062 0.558 2.303-0.343 2.101-1.526l-0.866-5.049c-0.081-0.47 0.075-0.949 0.416-1.281l3.669-3.575z"></path>
<path fill="#000" d="M49.728 35.186c-10.685 0-19.378 8.693-19.378 19.378s8.693 19.378 19.378 19.378c10.685 0 19.378-8.693 19.378-19.378s-8.693-19.378-19.378-19.378zM49.728 71.028c-9.078 0-16.464-7.386-16.464-16.464s7.386-16.464 16.464-16.464c9.079 0 16.464 7.386 16.464 16.464s-7.386 16.464-16.464 16.464z"></path>
<path fill="#000" d="M62.007 51.528c-0.344-1.059-1.242-1.817-2.345-1.977l-5.062-0.732c0 0-2.264-4.587-2.267-4.593-1.047-2.121-4.165-2.116-5.209 0l-2.26 4.588c0 0-5.063 0.736-5.069 0.737-2.33 0.339-3.299 3.308-1.61 4.954l3.665 3.567c0 0-0.865 5.043-0.866 5.049-0.397 2.317 2.13 4.158 4.214 3.062l4.525-2.384c0 0 4.528 2.381 4.534 2.384 2.080 1.093 4.612-0.747 4.214-3.062l-0.868-5.041 3.668-3.575c0.798-0.778 1.079-1.918 0.735-2.978zM55.57 55.994c-0.685 0.668-0.997 1.629-0.835 2.571l0.862 5.030-4.517-2.375c-0.83-0.437-1.873-0.437-2.703 0l-4.517 2.375 0.863-5.030c0.162-0.942-0.151-1.904-0.835-2.571l-3.654-3.563 5.050-0.734c0.946-0.138 1.764-0.732 2.187-1.589l2.259-4.576 2.259 4.576c0.423 0.858 1.241 1.452 2.187 1.589l5.050 0.734-3.654 3.562z"></path>
<path fill="#000" d="M98.777 20.107c-0.422-0.267-0.952-0.299-1.404-0.084l-31.315 14.9c-4.431-3.691-10.126-5.914-16.33-5.914s-11.899 2.223-16.33 5.914l-31.315-14.9c-0.451-0.215-0.981-0.183-1.404 0.084s-0.679 0.732-0.679 1.232v5.16c0 4.225 2.295 8.149 5.917 10.246v4.284c0 4.225 2.295 8.149 5.917 10.246v4.284c0 4.54 2.649 8.734 6.748 10.684l12.797 6.089c4.648 4.799 11.155 7.787 18.348 7.787s13.699-2.988 18.348-7.786l12.797-6.089c4.099-1.951 6.748-6.145 6.748-10.684v-4.284c3.623-2.097 5.917-6.021 5.917-10.246v-4.284c3.623-2.096 5.917-6.021 5.917-10.246v-5.16c0-0.5-0.256-0.965-0.679-1.232zM8.831 41.029v-2.854l4.679 2.226c0.727 0.346 1.596 0.037 1.942-0.69s0.037-1.596-0.69-1.942c0 0-6.761-3.217-6.762-3.217-3.090-1.47-5.086-4.631-5.086-8.053v-2.854l28.197 13.417c-1.774 1.891-3.268 4.060-4.399 6.394l-6.834-3.252c-0.727-0.346-1.596-0.037-1.942 0.69s-0.037 1.596 0.69 1.942l6.967 3.315c-0.025 0.072-0.047 0.145-0.071 0.217-0.826 2.437-1.278 5-1.34 7.572-0 0.009-0.001 0.017-0.001 0.026l-10.263-4.883c-3.090-1.471-5.086-4.632-5.086-8.053zM27.572 67.293l-7.737-3.681c-3.090-1.47-5.087-4.631-5.087-8.053v-2.854l9.566 4.552c0.37 3.524 1.493 6.964 3.257 10.037zM49.728 77.204c-7.992 0-15.030-4.162-19.060-10.433-0.013-0.021-0.026-0.042-0.039-0.062-2.611-4.098-3.848-9.033-3.475-13.877 0.001-0.014 0.002-0.027 0.004-0.041 0.907-11.659 10.684-20.868 22.571-20.868s21.664 9.209 22.571 20.868c0.001 0.014 0.002 0.027 0.004 0.041 0.997 12.966-9.598 24.373-22.575 24.373zM84.707 55.558c0 3.422-1.996 6.583-5.087 8.053l-7.737 3.681c1.536-2.674 2.587-5.628 3.075-8.673 0.072-0.452 0.134-0.908 0.182-1.363l9.566-4.552v2.854h-0zM96.542 26.499c0 3.422-1.996 6.583-5.087 8.053l-5.937 2.825c-0.726 0.346-1.035 1.215-0.69 1.942s1.215 1.035 1.942 0.69l3.854-1.833v2.854c0 3.422-1.996 6.583-5.087 8.053l-10.263 4.883c-0-0.009-0.001-0.017-0.001-0.026-0.057-2.623-0.541-5.298-1.411-7.789l7.712-3.67c0.726-0.346 1.035-1.215 0.69-1.942-0.338-0.71-1.234-1.027-1.942-0.69l-7.579 3.606c-0.361-0.745-0.764-1.469-1.193-2.176-0.921-1.509-1.995-2.928-3.205-4.217l28.198-13.417v2.854z"></path>
</svg>
